<?xml version="1.0" encoding="UTF-8"?>
<svg width="67px" height="23px" viewBox="0 0 67 23" version="1.1" xmlns="http://www.w3.org/2000/svg" xmlns:xlink="http://www.w3.org/1999/xlink">
    <!-- Generator: Sketch 46.2 (44496) - http://www.bohemiancoding.com/sketch -->
    <title>Logo Black</title>
    <desc>Created with Sketch.</desc>
    <defs></defs>
    <g id="000-Player" stroke="none" stroke-width="1" fill="none" fill-rule="evenodd">
        <g transform="translate(-672.000000, -325.000000)" id="Logo-Black" fill="#000000">
            <g transform="translate(672.000000, 325.000000)">
                <path d="M11.5404836,21.8484268 C17.2687848,21.8484268 21.9124904,17.1969655 21.9124904,11.4590971 C21.9124904,5.72122878 17.2687848,1.06976744 11.5404836,1.06976744 C5.81218247,1.06976744 1.16847687,5.72122878 1.16847687,11.4590971 C1.16847687,17.1969655 5.81218247,21.8484268 11.5404836,21.8484268 Z M11.5404836,22.9181943 C5.22235134,22.9181943 0.100493131,17.7877817 0.100493131,11.4590971 C0.100493131,5.13041254 5.22235134,0 11.5404836,0 C17.8586159,0 22.9804741,5.13041254 22.9804741,11.4590971 C22.9804741,17.7877817 17.8586159,22.9181943 11.5404836,22.9181943 Z" id="Oval" fill-rule="nonzero"></path>
                <path d="M13.3281079,10.771297 C13.3281079,11.6783574 12.5783106,12.4162919 11.6567224,12.4162919 C10.7351342,12.4162919 9.98533689,11.6783574 9.98533689,10.771297 L9.98533689,7.69629298 C9.98533689,6.78923265 10.7351101,6.05129814 11.6567224,6.05129814 C12.5783106,6.05129814 13.3281079,6.78923265 13.3281079,7.69629298 L13.3281079,10.771297 Z M11.6567224,5.04200274 C10.169669,5.04200274 8.95984936,6.2327197 8.95984936,7.69629298 L8.95984936,10.7712733 C8.95984936,12.2348703 10.169669,13.4255873 11.6567224,13.4255873 C13.1437758,13.4255873 14.3535954,12.2348703 14.3535954,10.7712733 L14.3535954,7.69629298 C14.3535954,6.2327197 13.1437758,5.04200274 11.6567224,5.04200274 L11.6567224,5.04200274 Z" id="Fill-3" fill-rule="evenodd"></path>
                <path d="M15.5467613,9.32694595 C15.2812503,9.32694595 15.066006,9.54133008 15.066006,9.80577996 L15.066006,10.8330313 C15.066006,12.7612047 13.509578,14.349687 11.5736679,14.3550596 C9.63797263,14.3604323 8.06144753,12.7935359 8.06144753,10.8667888 L8.06144753,9.80577996 C8.06144753,9.54133008 7.8462032,9.32694595 7.58069223,9.32694595 C7.31518126,9.32694595 7.09993692,9.54133008 7.09993692,9.80577996 L7.09993692,10.8283243 C7.09993692,13.1115223 8.85189403,15.0409557 11.0829834,15.2861971 L11.0829834,17.3117681 L9.59539159,17.3117681 C9.32988061,17.3117681 9.11466015,17.5261522 9.11466015,17.7906021 C9.11466015,18.055052 9.32988061,18.2694361 9.59539159,18.2694361 L13.532062,18.2694361 C13.7975729,18.2694361 14.0128173,18.055052 14.0128173,17.7906021 C14.0128173,17.5261522 13.7975729,17.3117681 13.532062,17.3117681 L12.044494,17.3117681 L12.044494,15.2868627 C14.280548,15.0472793 16.0275166,13.1565245 16.0275166,10.8667888 L16.0275166,9.80577996 C16.0275166,9.54133008 15.8122723,9.32694595 15.5467613,9.32694595" id="Fill-4" fill-rule="evenodd"></path>
                <path d="M27.9351297,14.7843232 C27.3117068,14.1272017 27,13.2615835 27,12.1874426 C27,11.1133018 27.3117068,10.2476836 27.9351297,9.59056209 C28.5585527,8.93344062 29.3673054,8.60488481 30.3614123,8.60488481 C31.1954511,8.60488481 31.8757301,8.79864849 32.4022697,9.18618167 C32.9288094,9.57371485 33.2973816,10.1255201 33.5079975,10.841614 L32.2695824,10.841614 C32.1347883,10.4372316 31.9031143,10.1213125 31.5745536,9.89384741 C31.2459928,9.66638229 30.8416164,9.55265143 30.3614123,9.55265143 C29.7042908,9.55265143 29.1756529,9.78221927 28.7754828,10.2413618 C28.3753127,10.7005044 28.1752306,11.3491915 28.1752306,12.1874426 C28.1752306,13.0256937 28.3753127,13.6743809 28.7754828,14.1335234 C29.1756529,14.592666 29.7042908,14.8222338 30.3614123,14.8222338 C31.3470945,14.8222338 31.9831448,14.3925839 32.2695824,13.5332712 L33.5079975,13.5332712 C33.2973816,14.2156666 32.9245971,14.7590474 32.3896328,15.1634298 C31.8546686,15.5678123 31.1786018,15.7700005 30.3614123,15.7700005 C29.3673054,15.7700005 28.5585527,15.4414446 27.9351297,14.7843232 Z M40.3140149,12.1937611 C40.3140149,11.4102701 40.084447,10.7826442 39.6253045,10.3108647 C39.1661619,9.83908521 38.6143566,9.60319898 37.9698721,9.60319898 C37.3253876,9.60319898 36.7735823,9.8306607 36.3144397,10.2855909 C35.8552972,10.7405212 35.6257293,11.3597225 35.6257293,12.1432135 C35.6257293,12.9267045 35.8574033,13.5627549 36.3207582,14.0513837 C36.7841131,14.5400124 37.3359183,14.7843232 37.9761905,14.7843232 C38.6164627,14.7843232 39.1661619,14.548437 39.6253045,14.0766574 C40.084447,13.6048779 40.3140149,12.9772521 40.3140149,12.1937611 Z M35.3982653,14.752731 C34.7664178,14.0745479 34.4504987,13.2068236 34.4504987,12.149532 C34.4504987,11.0922404 34.7643116,10.2371528 35.3919469,9.58424365 C36.0195821,8.93133449 36.8093798,8.60488481 37.7613634,8.60488481 C38.3510878,8.60488481 38.8670889,8.74388919 39.3093822,9.02190212 C39.7516755,9.29991505 40.0865497,9.6621689 40.3140149,10.1086745 L40.3140149,8.7186168 L41.4766086,8.7186168 L41.4766086,15.6562685 L40.3140149,15.6562685 L40.3140149,14.240937 C40.0865497,14.6958672 39.7516755,15.0644395 39.3093822,15.3466647 C38.8670889,15.6288899 38.3510878,15.7700005 37.7613634,15.7700005 C36.8178044,15.7700005 36.0301129,15.430914 35.3982653,14.752731 Z M42.9877698,10.6773345 C42.9877698,10.0960347 43.2299744,9.60530713 43.7143909,9.205137 C44.1988074,8.80496687 44.8264332,8.60488481 45.5972872,8.60488481 C46.3681413,8.60488481 46.9725997,8.80075462 47.4106807,9.19250011 C47.8487617,9.58424561 48.0888602,10.121308 48.1309833,10.8037034 L46.9431158,10.8037034 C46.9262666,10.4161702 46.7956867,10.1044634 46.5513723,9.86857364 C46.3070579,9.63268388 45.9679715,9.51474077 45.5341028,9.51474077 C45.1002341,9.51474077 44.7590416,9.61794099 44.5105148,9.82434453 C44.2619881,10.0307481 44.1377266,10.2961201 44.1377266,10.6204685 C44.1377266,10.9448169 44.2788371,11.195446 44.5610624,11.3723633 C44.8432876,11.5492807 45.1844802,11.6777544 45.5846503,11.7577884 C45.9848205,11.8378225 46.3849846,11.930492 46.7851547,12.0358 C47.1853249,12.1411079 47.5265174,12.3390838 47.8087427,12.6297337 C48.0909679,12.9203836 48.2320784,13.3331845 48.2320784,13.8681488 C48.2320784,14.4031131 47.9898738,14.8538242 47.5054574,15.2202958 C47.0210409,15.5867674 46.3913089,15.7700005 45.6162426,15.7700005 C44.8411762,15.7700005 44.2198688,15.5762368 43.7523015,15.1887036 C43.2847343,14.8011704 43.029893,14.2662142 42.9877698,13.5838188 L44.1756373,13.5838188 C44.1924866,13.971352 44.3293848,14.2809526 44.5863362,14.5126301 C44.8432875,14.7443075 45.1971169,14.8601445 45.6478348,14.8601445 C46.0985527,14.8601445 46.4523821,14.7632627 46.7093334,14.5694961 C46.9662847,14.3757295 47.0947585,14.1293126 47.0947585,13.8302381 C47.0947585,13.5311636 46.9936644,13.2931712 46.7914732,13.1162539 C46.589282,12.9393366 46.3365467,12.8171812 46.0332599,12.7497842 C45.729973,12.6823871 45.3993111,12.6023543 45.0412642,12.5096833 C44.6832172,12.4170123 44.3525553,12.3180243 44.0492684,12.2127164 C43.7459816,12.1074085 43.4932463,11.9241754 43.2910551,11.6630118 C43.0888639,11.4018481 42.9877698,11.0732923 42.9877698,10.6773345 Z M52.0305164,14.7211387 L52.9782831,14.7211387 L52.9782831,15.6562685 L51.8156893,15.6562685 C50.6109666,15.6562685 50.0086143,15.0623407 50.0086143,13.8744672 L50.0086143,9.65374654 L49.1113952,9.65374654 L49.1113952,8.7186168 L50.0086143,8.7186168 L50.0086143,7 L51.171208,7 L51.171208,8.7186168 L52.9656462,8.7186168 L52.9656462,9.65374654 L51.171208,9.65374654 L51.171208,13.8744672 C51.171208,14.1861787 51.2343918,14.4052159 51.3607614,14.5315854 C51.4871309,14.6579549 51.7103803,14.7211387 52.0305164,14.7211387 Z M58.7543941,14.1208865 C59.2303859,13.6533193 59.4683783,13.0067384 59.4683783,12.1811242 C59.4683783,11.35551 59.2409165,10.7110352 58.7859863,10.2476803 C58.331056,9.7843254 57.7771446,9.55265143 57.1242355,9.55265143 C56.4713263,9.55265143 55.9258394,9.7843254 55.4877585,10.2476803 C55.0496775,10.7110352 54.8306403,11.3576162 54.8306403,12.1874426 C54.8306403,13.0172691 55.041253,13.6638501 55.4624847,14.127205 C55.8837164,14.5905599 56.4186726,14.8222338 57.0673695,14.8222338 C57.7160663,14.8222338 58.2784022,14.5884537 58.7543941,14.1208865 Z M53.6554097,12.1937611 C53.6554097,11.1238325 53.9881777,10.2582143 54.6537238,9.59688054 C55.3192699,8.93554675 56.1532962,8.60488481 57.1558277,8.60488481 C58.1583592,8.60488481 58.9923855,8.93554675 59.6579316,9.59688054 C60.3234777,10.2582143 60.6562458,11.1217264 60.6562458,12.1874426 C60.6562458,13.2531589 60.3087348,14.1166709 59.6137025,14.7780047 C58.9186701,15.4393385 58.069901,15.7700005 57.0673695,15.7700005 C56.064838,15.7700005 55.2455546,15.4414446 54.6094947,14.7843232 C53.9734348,14.1272017 53.6554097,13.2636896 53.6554097,12.1937611 Z M61.712479,10.6773345 C61.712479,10.0960347 61.9546836,9.60530713 62.4391001,9.205137 C62.9235165,8.80496687 63.5511424,8.60488481 64.3219964,8.60488481 C65.0928505,8.60488481 65.6973089,8.80075462 66.1353899,9.19250011 C66.5734709,9.58424561 66.8135694,10.121308 66.8556925,10.8037034 L65.667825,10.8037034 C65.6509758,10.4161702 65.5203959,10.1044634 65.2760815,9.86857364 C65.0317671,9.63268388 64.6926806,9.51474077 64.258812,9.51474077 C63.8249433,9.51474077 63.4837507,9.61794099 63.235224,9.82434453 C62.9866973,10.0307481 62.8624358,10.2961201 62.8624358,10.6204685 C62.8624358,10.9448169 63.0035463,11.195446 63.2857716,11.3723633 C63.5679968,11.5492807 63.9091894,11.6777544 64.3093595,11.7577884 C64.7095297,11.8378225 65.1096938,11.930492 65.5098639,12.0358 C65.9100341,12.1411079 66.2512266,12.3390838 66.5334519,12.6297337 C66.8156771,12.9203836 66.9567876,13.3331845 66.9567876,13.8681488 C66.9567876,14.4031131 66.714583,14.8538242 66.2301666,15.2202958 C65.7457501,15.5867674 65.1160181,15.7700005 64.3409518,15.7700005 C63.5658854,15.7700005 62.9445779,15.5762368 62.4770107,15.1887036 C62.0094435,14.8011704 61.7546022,14.2662142 61.712479,13.5838188 L62.9003465,13.5838188 C62.9171958,13.971352 63.054094,14.2809526 63.3110454,14.5126301 C63.5679967,14.7443075 63.921826,14.8601445 64.372544,14.8601445 C64.8232619,14.8601445 65.1770912,14.7632627 65.4340426,14.5694961 C65.6909939,14.3757295 65.8194677,14.1293126 65.8194677,13.8302381 C65.8194677,13.5311636 65.7183736,13.2931712 65.5161824,13.1162539 C65.3139911,12.9393366 65.0612559,12.8171812 64.7579691,12.7497842 C64.4546822,12.6823871 64.1240203,12.6023543 63.7659733,12.5096833 C63.4079264,12.4170123 63.0772644,12.3180243 62.7739776,12.2127164 C62.4706908,12.1074085 62.2179555,11.9241754 62.0157643,11.6630118 C61.8135731,11.4018481 61.712479,11.0732923 61.712479,10.6773345 Z" id="castos" fill-rule="evenodd"></path>
            </g>
        </g>
    </g>
</svg>