<?xml version="1.0" encoding="UTF-8"?>
<svg width="68px" height="23px" viewBox="0 0 68 23" version="1.1" xmlns="http://www.w3.org/2000/svg" xmlns:xlink="http://www.w3.org/1999/xlink">
    <!-- Generator: Sketch 46.2 (44496) - http://www.bohemiancoding.com/sketch -->
    <title>Logo White</title>
    <desc>Created with Sketch.</desc>
    <defs></defs>
    <g id="000-Player" stroke="none" stroke-width="1" fill="none" fill-rule="evenodd">
        <g transform="translate(-672.000000, -94.000000)" id="Logo-White" fill="#FFFFFF">
            <g transform="translate(672.000000, 94.000000)">
                <g id="Logo">
                    <g id="Mic-Icon">
                        <path d="M11.5763237,21.8484268 C17.3224146,21.8484268 21.9805416,17.1969655 21.9805416,11.4590971 C21.9805416,5.72122878 17.3224146,1.06976744 11.5763237,1.06976744 C5.83023273,1.06976744 1.17210568,5.72122878 1.17210568,11.4590971 C1.17210568,17.1969655 5.83023273,21.8484268 11.5763237,21.8484268 Z M11.5763237,22.9181943 C5.23856983,22.9181943 0.100805221,17.7877817 0.100805221,11.4590971 C0.100805221,5.13041254 5.23856983,0 11.5763237,0 C17.9140775,0 23.0518421,5.13041254 23.0518421,11.4590971 C23.0518421,17.7877817 17.9140775,22.9181943 11.5763237,22.9181943 Z" id="Oval" fill-rule="nonzero"></path>
                        <path d="M13.3694995,10.771297 C13.3694995,11.6783574 12.6173737,12.4162919 11.6929234,12.4162919 C10.7684731,12.4162919 10.0163473,11.6783574 10.0163473,10.771297 L10.0163473,7.69629298 C10.0163473,6.78923265 10.7684489,6.05129814 11.6929234,6.05129814 C12.6173737,6.05129814 13.3694995,6.78923265 13.3694995,7.69629298 L13.3694995,10.771297 Z M11.6929234,5.04200274 C10.2012518,5.04200274 8.98767498,6.2327197 8.98767498,7.69629298 L8.98767498,10.7712733 C8.98767498,12.2348703 10.2012518,13.4255873 11.6929234,13.4255873 C13.184595,13.4255873 14.3981718,12.2348703 14.3981718,10.7712733 L14.3981718,7.69629298 C14.3981718,6.2327197 13.184595,5.04200274 11.6929234,5.04200274 L11.6929234,5.04200274 Z" id="Fill-3"></path>
                        <path d="M15.5950432,9.32694595 C15.3287076,9.32694595 15.1127948,9.54133008 15.1127948,9.80577996 L15.1127948,10.8330313 C15.1127948,12.7612047 13.5515332,14.349687 11.609611,14.3550596 C9.66790423,14.3604323 8.08648308,12.7935359 8.08648308,10.8667888 L8.08648308,9.80577996 C8.08648308,9.54133008 7.87057029,9.32694595 7.60423475,9.32694595 C7.33789921,9.32694595 7.12198642,9.54133008 7.12198642,9.80577996 L7.12198642,10.8283243 C7.12198642,13.1115223 8.87938439,15.0409557 11.1174026,15.2861971 L11.1174026,17.3117681 L9.62519094,17.3117681 C9.3588554,17.3117681 9.14296655,17.5261522 9.14296655,17.7906021 C9.14296655,18.055052 9.3588554,18.2694361 9.62519094,18.2694361 L13.574087,18.2694361 C13.8404225,18.2694361 14.0563353,18.055052 14.0563353,17.7906021 C14.0563353,17.5261522 13.8404225,17.3117681 13.574087,17.3117681 L12.0818993,17.3117681 L12.0818993,15.2868627 C14.3248975,15.0472793 16.0772915,13.1565245 16.0772915,10.8667888 L16.0772915,9.80577996 C16.0772915,9.54133008 15.8613787,9.32694595 15.5950432,9.32694595" id="Fill-4"></path>
                    </g>
                    <path d="M28.3754537,14.9972403 C27.7485871,14.3400299 27.4351585,13.4742947 27.4351585,12.4000085 C27.4351585,11.3257224 27.7485871,10.4599872 28.3754537,9.80277683 C29.0023202,9.14556649 29.8155404,8.81696625 30.8151384,8.81696625 C31.6537842,8.81696625 32.3378209,9.01075613 32.8672691,9.39834172 C33.3967172,9.7859273 33.7673253,10.3378072 33.9791046,11.0539979 L32.7338488,11.0539979 C32.5983101,10.6495608 32.3653564,10.333599 32.0349808,10.1061032 C31.7046051,9.87860727 31.2979951,9.76486104 30.8151384,9.76486104 C30.1543871,9.76486104 29.6228292,9.99445992 29.2204486,10.4536646 C28.8180681,10.9128692 28.6168808,11.5616441 28.6168808,12.4000085 C28.6168808,13.238373 28.8180681,13.8871479 29.2204486,14.3463525 C29.6228292,14.8055572 30.1543871,15.0351561 30.8151384,15.0351561 C31.8062653,15.0351561 32.445829,14.6054481 32.7338488,13.7460191 L33.9791046,13.7460191 C33.7673253,14.4285068 33.3924817,14.9719611 32.8545624,15.3763982 C32.3166431,15.7808353 31.6368419,15.9830508 30.8151384,15.9830508 C29.8155404,15.9830508 29.0023202,15.6544506 28.3754537,14.9972403 Z M40.8227167,12.4063278 C40.8227167,11.6227309 40.5918808,10.9950202 40.1302021,10.5231769 C39.6685233,10.0513335 39.11367,9.81541543 38.4656255,9.81541543 C37.817581,9.81541543 37.2627277,10.0429079 36.8010489,10.4978997 C36.3393702,10.9528914 36.1085342,11.5721765 36.1085342,12.3557735 C36.1085342,13.1393704 36.3414879,13.7755068 36.8074023,14.2642016 C37.2733166,14.7528965 37.8281699,14.9972403 38.4719788,14.9972403 C39.1157878,14.9972403 39.6685233,14.7613221 40.1302021,14.2894788 C40.5918808,13.8176355 40.8227167,13.1899248 40.8227167,12.4063278 Z M35.8798138,14.9656438 C35.2444761,14.287369 34.9268119,13.4195273 34.9268119,12.3620928 C34.9268119,11.3046582 35.2423583,10.449455 35.8734605,9.79645753 C36.5045626,9.14346008 37.2987229,8.81696625 38.2559651,8.81696625 C38.848947,8.81696625 39.3677984,8.95598943 39.8125348,9.23403996 C40.2572712,9.51209048 40.5939952,9.87439331 40.8227167,10.3209593 L40.8227167,8.93071362 L41.9917323,8.93071362 L41.9917323,15.8693035 L40.8227167,15.8693035 L40.8227167,14.4537806 C40.5939952,14.9087724 40.2572712,15.2773944 39.8125348,15.5596578 C39.3677984,15.8419213 38.848947,15.9830508 38.2559651,15.9830508 C37.3071941,15.9830508 36.5151515,15.6439185 35.8798138,14.9656438 Z M43.5112409,10.8896962 C43.5112409,10.3083178 43.7547833,9.81752386 44.2418756,9.41729961 C44.7289679,9.01707537 45.3600606,8.81696625 46.1351726,8.81696625 C46.9102847,8.81696625 47.518082,9.01286255 47.9585828,9.40466102 C48.3990837,9.79645949 48.6405084,10.3335945 48.6828642,11.0160822 L47.4884352,11.0160822 C47.4714929,10.6284966 47.3401917,10.3167476 47.0945278,10.080826 C46.8488639,9.84490431 46.5079044,9.72694524 46.0716392,9.72694524 C45.6353739,9.72694524 45.2922967,9.83015942 45.0423972,10.0365909 C44.7924977,10.2430223 44.6675498,10.5084302 44.6675498,10.8328225 C44.6675498,11.1572148 44.8094397,11.4078778 45.0932239,11.584819 C45.3770081,11.7617603 45.7200854,11.8902514 46.1224659,11.9702962 C46.5248465,12.0503411 46.927221,12.1430232 47.3296016,12.2483454 C47.7319822,12.3536676 48.0750594,12.5516703 48.3588436,12.8423594 C48.6426278,13.1330486 48.7845178,13.5459054 48.7845178,14.080942 C48.7845178,14.6159786 48.5409753,15.0667507 48.053883,15.4332719 C47.5667907,15.799793 46.9335803,15.9830508 46.1542327,15.9830508 C45.374885,15.9830508 44.7501456,15.789261 44.2799957,15.4016754 C43.8098458,15.0140898 43.5535967,14.4790612 43.5112409,13.7965735 L44.7056698,13.7965735 C44.7226122,14.1841591 44.8602666,14.4938017 45.1186373,14.7255104 C45.377008,14.9572192 45.7327918,15.0730719 46.1859994,15.0730719 C46.639207,15.0730719 46.9949908,14.9761769 47.2533615,14.7823841 C47.5117321,14.5885913 47.6409155,14.3421411 47.6409155,14.0430262 C47.6409155,13.7439112 47.539263,13.5058867 47.335955,13.3289454 C47.1326469,13.1520042 46.8785156,13.0298323 46.5735535,12.9624261 C46.2685914,12.8950199 45.9361029,12.8149763 45.5760782,12.7222928 C45.2160535,12.6296093 44.883565,12.5306079 44.5786029,12.4252857 C44.2736408,12.3199636 44.0195095,12.1367057 43.8162014,11.8755068 C43.6128934,11.6143078 43.5112409,11.2857075 43.5112409,10.8896962 Z M52.6039374,14.9340473 L53.5569393,14.9340473 L53.5569393,15.8693035 L52.3879237,15.8693035 C51.1765464,15.8693035 50.5708668,15.2752953 50.5708668,14.0872613 L50.5708668,9.86596981 L49.6686917,9.86596981 L49.6686917,8.93071362 L50.5708668,8.93071362 L50.5708668,7.21186441 L51.7398824,7.21186441 L51.7398824,8.93071362 L53.5442326,8.93071362 L53.5442326,9.86596981 L51.7398824,9.86596981 L51.7398824,14.0872613 C51.7398824,14.3990149 51.8034152,14.6180817 51.9304828,14.7444683 C52.0575503,14.8708549 52.282033,14.9340473 52.6039374,14.9340473 Z M59.3649561,14.3337139 C59.8435772,13.8660835 60.0828842,13.2194151 60.0828842,12.3936892 C60.0828842,11.5679634 59.854166,10.9234014 59.3967228,10.4599839 C58.9392797,9.99656633 58.3823086,9.76486104 57.7257929,9.76486104 C57.0692773,9.76486104 56.5207772,9.99656633 56.0802764,10.4599839 C55.6397756,10.9234014 55.4195284,11.5700699 55.4195284,12.4000085 C55.4195284,13.2299472 55.6313045,13.8766157 56.054863,14.3400332 C56.4784215,14.8034508 57.0163327,15.0351561 57.6686128,15.0351561 C58.3208929,15.0351561 58.886335,14.8013443 59.3649561,14.3337139 Z M54.2378061,12.4063278 C54.2378061,11.3362546 54.5724123,10.4705194 55.2416348,9.80909613 C55.9108572,9.1476729 56.7494904,8.81696625 57.7575597,8.81696625 C58.7656289,8.81696625 59.6042621,9.1476729 60.2734845,9.80909613 C60.942707,10.4705194 61.2773132,11.3341482 61.2773132,12.4000085 C61.2773132,13.4658689 60.9278826,14.3294977 60.2290111,14.990921 C59.5301396,15.6523442 58.676682,15.9830508 57.6686128,15.9830508 C56.6605436,15.9830508 55.8367347,15.6544506 55.1971613,14.9972403 C54.557588,14.3400299 54.2378061,13.4764011 54.2378061,12.4063278 Z M62.3393808,10.8896962 C62.3393808,10.3083178 62.5829233,9.81752386 63.0700155,9.41729961 C63.5571078,9.01707537 64.1882005,8.81696625 64.9633125,8.81696625 C65.7384246,8.81696625 66.3462219,9.01286255 66.7867228,9.40466102 C67.2272236,9.79645949 67.4686483,10.3335945 67.5110042,11.0160822 L66.3165752,11.0160822 C66.2996328,10.6284966 66.1683317,10.3167476 65.9226677,10.080826 C65.6770038,9.84490431 65.3360443,9.72694524 64.8997791,9.72694524 C64.4635138,9.72694524 64.1204366,9.83015942 63.8705371,10.0365909 C63.6206376,10.2430223 63.4956897,10.5084302 63.4956897,10.8328225 C63.4956897,11.1572148 63.6375797,11.4078778 63.9213639,11.584819 C64.205148,11.7617603 64.5482253,11.8902514 64.9506059,11.9702962 C65.3529864,12.0503411 65.755361,12.1430232 66.1577415,12.2483454 C66.5601221,12.3536676 66.9031993,12.5516703 67.1869835,12.8423594 C67.4707677,13.1330486 67.6126577,13.5459054 67.6126577,14.080942 C67.6126577,14.6159786 67.3691152,15.0667507 66.8820229,15.4332719 C66.3949307,15.799793 65.7617202,15.9830508 64.9823726,15.9830508 C64.2030249,15.9830508 63.5782855,15.789261 63.1081356,15.4016754 C62.6379857,15.0140898 62.3817366,14.4790612 62.3393808,13.7965735 L63.5338098,13.7965735 C63.5507521,14.1841591 63.6884066,14.4938017 63.9467772,14.7255104 C64.2051479,14.9572192 64.5609317,15.0730719 65.0141393,15.0730719 C65.4673469,15.0730719 65.8231307,14.9761769 66.0815014,14.7823841 C66.3398721,14.5885913 66.4690555,14.3421411 66.4690555,14.0430262 C66.4690555,13.7439112 66.367403,13.5058867 66.1640949,13.3289454 C65.9607868,13.1520042 65.7066555,13.0298323 65.4016934,12.9624261 C65.0967313,12.8950199 64.7642428,12.8149763 64.4042181,12.7222928 C64.0441934,12.6296093 63.711705,12.5306079 63.4067429,12.4252857 C63.1017807,12.3199636 62.8476494,12.1367057 62.6443414,11.8755068 C62.4410333,11.6143078 62.3393808,11.2857075 62.3393808,10.8896962 Z" id="castos"></path>
                </g>
            </g>
        </g>
    </g>
</svg>