<?xml version="1.0" encoding="UTF-8"?>
<svg width="38px" height="40px" viewBox="0 0 38 40" version="1.1" xmlns="http://www.w3.org/2000/svg" xmlns:xlink="http://www.w3.org/1999/xlink">
    <!-- Generator: Sketch 46.2 (44496) - http://www.bohemiancoding.com/sketch -->
    <title>ssp_back_30</title>
    <desc>Created with Sketch.</desc>
    <defs></defs>
    <g id="Page-1" stroke="none" stroke-width="1" fill="none" fill-rule="evenodd">
        <path d="M7.23369959,20.498757 L8.00704127,20.498757 C8.63235123,20.498757 9.13876422,21.0033399 9.13876422,21.6292789 C9.13876422,22.2545889 8.63235123,22.7610019 8.00704127,22.7610019 L6.66223026,22.7610019 C7.2299504,29.3846894 12.782593,34.5907636 19.5569748,34.5907636 C25.1530814,34.5907636 31.4693754,30.7406523 32.4131164,22.8192208 L30.8863856,22.8192208 C30.2623338,22.8192208 29.7546627,22.3133225 29.7546627,21.6874978 C29.7546627,21.0597287 30.261762,20.5533157 30.8863856,20.5533157 L32.4162047,20.5533157 C32.2722648,18.8844111 31.8131479,17.3055049 31.0988091,15.8758619 C29.3027802,12.2813765 25.8933741,9.63045484 21.8235089,8.86504082 L21.8235089,11.3146385 C21.8235089,11.638617 21.6305516,11.932571 21.3353966,12.0605611 C21.0365243,12.1897522 20.691786,12.1303895 20.4547927,11.909924 L15.3589798,7.16010755 C15.1935878,7.00581029 15.0999114,6.79020589 15.0999114,6.5636211 C15.0999114,6.33829449 15.193645,6.12269008 15.3589798,5.97079478 L20.4547355,1.218462 C20.6917288,0.996795511 21.0365243,0.938633793 21.3347675,1.06782487 C21.6299797,1.19701594 21.8228798,1.49096995 21.8228798,1.81494845 L21.8228798,4.27066543 C30.4240657,5.4697576 37,12.8094004 37,21.6861825 C37,32.2286658 28.2095741,39.1873694 19.5563457,39.1873694 C9.86569991,39.1873694 1.7317522,31.3271878 2.00677649,21.6414031 C2.01767154,21.2596869 2.03804709,20.8857442 2.06738338,20.5194483 L7.22557373,20.5194483 L7.23369959,20.498757 Z" id="Combined-Shape" fill="#FFFFFF" fill-rule="nonzero"></path>
        <path d="M14.8254546,21.745 L14.8254546,23.245 C15.0854559,23.245 15.3579532,23.2524999 15.6429546,23.2675 C15.927956,23.2825001 16.1904534,23.3374995 16.4304546,23.4325 C16.6704558,23.5275005 16.8679538,23.679999 17.0229546,23.89 C17.1779554,24.1000011 17.2554546,24.404998 17.2554546,24.805 C17.2554546,25.3150025 17.0904563,25.7174985 16.7604546,26.0125 C16.430453,26.3075015 16.025457,26.455 15.5454546,26.455 C15.2354531,26.455 14.9679557,26.4000006 14.7429546,26.29 C14.5179535,26.1799995 14.3304554,26.0325009 14.1804546,25.8475 C14.0304539,25.6624991 13.915455,25.4425013 13.8354546,25.1875 C13.7554542,24.9324987 13.7104547,24.6650014 13.7004546,24.385 L11.6754546,24.385 C11.6654546,24.995003 11.7529537,25.5349976 11.9379546,26.005 C12.1229555,26.4750024 12.3854529,26.8724984 12.7254546,27.1975 C13.0654563,27.5225016 13.4779522,27.7699991 13.9629546,27.94 C14.447957,28.1100009 14.9854517,28.195 15.5754546,28.195 C16.0854572,28.195 16.5754523,28.1200007 17.0454546,27.97 C17.515457,27.8199993 17.9304528,27.6000014 18.2904546,27.31 C18.6504564,27.0199986 18.9379535,26.6600022 19.1529546,26.23 C19.3679557,25.7999979 19.4754546,25.3100028 19.4754546,24.76 C19.4754546,24.159997 19.3104563,23.6450021 18.9804546,23.215 C18.650453,22.7849979 18.1954575,22.5050006 17.6154546,22.375 L17.6154546,22.345 C18.1054571,22.2049993 18.4729534,21.940002 18.7179546,21.55 C18.9629558,21.1599981 19.0854546,20.7100026 19.0854546,20.2 C19.0854546,19.7299976 18.9804557,19.3150018 18.7704546,18.955 C18.5604536,18.5949982 18.2879563,18.2900012 17.9529546,18.04 C17.6179529,17.7899987 17.2404567,17.6025006 16.8204546,17.4775 C16.4004525,17.3524994 15.9804567,17.29 15.5604546,17.29 C15.0204519,17.29 14.5304568,17.3774991 14.0904546,17.5525 C13.6504524,17.7275009 13.2729562,17.9749984 12.9579546,18.295 C12.642953,18.6150016 12.3979555,18.9974978 12.2229546,19.4425 C12.0479537,19.8875022 11.9504547,20.3799973 11.9304546,20.92 L13.9554546,20.92 C13.9454546,20.3799973 14.0779532,19.9325018 14.3529546,19.5775 C14.627956,19.2224982 15.0354519,19.045 15.5754546,19.045 C15.9654566,19.045 16.3104531,19.1649988 16.6104546,19.405 C16.9104561,19.6450012 17.0604546,19.9899977 17.0604546,20.44 C17.0604546,20.7400015 16.9879553,20.9799991 16.8429546,21.16 C16.6979539,21.3400009 16.5129557,21.4774995 16.2879546,21.5725 C16.0629535,21.6675005 15.8204559,21.7249999 15.5604546,21.745 C15.3004533,21.7650001 15.0554558,21.7650001 14.8254546,21.745 Z M21.945,22.705 C21.945,23.0050015 21.9549999,23.3674979 21.975,23.7925 C21.9950001,24.2175021 22.0574995,24.627498 22.1625,25.0225 C22.2675005,25.417502 22.4349988,25.7549986 22.665,26.035 C22.8950011,26.3150014 23.2249979,26.455 23.655,26.455 C24.0950022,26.455 24.4324988,26.3150014 24.6675,26.035 C24.9025012,25.7549986 25.0724995,25.417502 25.1775,25.0225 C25.2825005,24.627498 25.3449999,24.2175021 25.365,23.7925 C25.3850001,23.3674979 25.395,23.0050015 25.395,22.705 C25.395,22.5249991 25.3925,22.3075013 25.3875,22.0525 C25.3825,21.7974987 25.3625002,21.5350014 25.3275,21.265 C25.2924998,20.9949987 25.2425003,20.7275013 25.1775,20.4625 C25.1124997,20.1974987 25.0150006,19.9600011 24.885,19.75 C24.7549993,19.5399989 24.590001,19.3700007 24.39,19.24 C24.189999,19.1099994 23.9450015,19.045 23.655,19.045 C23.3649985,19.045 23.122501,19.1099994 22.9275,19.24 C22.732499,19.3700007 22.5725006,19.5399989 22.4475,19.75 C22.3224994,19.9600011 22.2250004,20.1974987 22.155,20.4625 C22.0849996,20.7275013 22.0350001,20.9949987 22.005,21.265 C21.9749999,21.5350014 21.9575,21.7974987 21.9525,22.0525 C21.9475,22.3075013 21.945,22.5249991 21.945,22.705 Z M19.815,22.705 C19.815,21.6849949 19.917499,20.8275035 20.1225,20.1325 C20.327501,19.4374965 20.6049982,18.8800021 20.955,18.46 C21.3050017,18.0399979 21.7124977,17.7400009 22.1775,17.56 C22.6425023,17.3799991 23.1349974,17.29 23.655,17.29 C24.1850027,17.29 24.6824977,17.3799991 25.1475,17.56 C25.6125023,17.7400009 26.0224982,18.0399979 26.3775,18.46 C26.7325018,18.8800021 27.012499,19.4374965 27.2175,20.1325 C27.422501,20.8275035 27.525,21.6849949 27.525,22.705 C27.525,23.7550053 27.422501,24.6324965 27.2175,25.3375 C27.012499,26.0425035 26.7325018,26.6049979 26.3775,27.025 C26.0224982,27.4450021 25.6125023,27.7449991 25.1475,27.925 C24.6824977,28.1050009 24.1850027,28.195 23.655,28.195 C23.1349974,28.195 22.6425023,28.1050009 22.1775,27.925 C21.7124977,27.7449991 21.3050017,27.4450021 20.955,27.025 C20.6049982,26.6049979 20.327501,26.0425035 20.1225,25.3375 C19.917499,24.6324965 19.815,23.7550053 19.815,22.705 Z" id="30" fill="#FFFFFF"></path>
    </g>
</svg>