<?xml version="1.0" encoding="UTF-8"?>
<svg width="28px" height="28px" viewBox="0 0 28 28" version="1.1" xmlns="http://www.w3.org/2000/svg" xmlns:xlink="http://www.w3.org/1999/xlink">
    <!-- Generator: Sketch 45.2 (43514) - http://www.bohemiancoding.com/sketch -->
    <title>Group</title>
    <desc>Created with Sketch.</desc>
    <defs></defs>
    <g id="Page-1" stroke="none" stroke-width="1" fill="none" fill-rule="evenodd">
        <g id="Group" fill-rule="nonzero" fill="#FFFFFF">
            <path d="M11.7559427,8.57015369 C11.3456743,7.99283049 10.5430395,7.85551087 9.96402577,8.26703625 C9.38540219,8.67769471 9.24938296,9.48037292 9.66047487,10.0593866 L12.1096447,13.5076346 C12.082857,13.634768 12.0675559,13.7669728 12.0675559,13.9025586 C12.0675559,14.9526548 12.9178278,15.8037503 13.9674473,15.8037503 C14.5201067,15.8037503 15.0132523,15.5644379 15.3605825,15.1881961 L18.1158606,15.1881961 C18.8258221,15.1881961 19.400978,14.6125634 19.400978,13.902992 C19.400978,13.193464 18.8257787,12.6178313 18.1158606,12.6178313 L15.3601924,12.6178313 C15.0651373,12.2981557 14.6638415,12.0847208 14.2110509,12.0260739 L11.7559427,8.57015369 Z" id="Shape"></path>
            <path d="M23.0252968,9.80767734 C23.3632643,10.5406121 23.6132397,11.321574 23.763303,12.138253 C23.8113302,12.4010154 24.0515095,12.5816375 24.3176529,12.5574505 L26.7119903,12.3372103 C26.8548148,12.3244667 26.9853725,12.2525993 27.0729311,12.1391199 C27.1609231,12.0251637 27.1966401,11.8806486 27.1732333,11.7390811 C26.9428069,10.3510607 26.4976885,9.03694501 25.8719046,7.82959006 C25.8013376,7.69227045 25.6729472,7.59448224 25.5220604,7.56175614 C25.3711735,7.52989695 25.2138715,7.56600403 25.0926765,7.66210175 L23.1723692,9.18744175 C22.9874559,9.33581455 22.9258181,9.59172838 23.0252968,9.80767734 Z" id="Shape"></path>
            <path d="M21.2376278,21.2832276 C21.0420514,21.149289 20.7810661,21.1658904 20.6037816,21.3231925 C19.0588493,22.6946548 17.0837095,23.5907866 14.9074451,23.7791676 L14.9074451,22.6245212 C14.9074451,22.1509246 14.5239645,21.7678774 14.0508013,21.7678774 C13.5776382,21.7678774 13.1937674,22.151358 13.1937674,22.6245212 L13.1937674,23.778344 C8.42550863,23.3668186 4.61848711,19.5601872 4.20696174,14.7915383 L5.36117468,14.7915383 C5.83433784,14.7915383 6.21781846,14.4084912 6.21781846,13.9348512 C6.21781846,13.4612546 5.83433784,13.0782074 5.36117468,13.0782074 L4.20353741,13.0782074 C4.59039901,8.5986319 7.9765758,4.97145226 12.3388141,4.20661497 C12.5853653,4.16326913 12.7656406,3.94983423 12.7656406,3.69942533 L12.7656406,1.26555658 C12.7656406,1.11675032 12.701012,0.974315903 12.5879227,0.876527695 C12.4752668,0.778782833 12.3255937,0.73413662 12.1776543,0.755376081 C5.71101893,1.6652052 0.736173875,7.21819703 0.736173875,13.9348512 C0.736173875,21.2883424 6.69735346,27.249522 14.0508013,27.249522 C17.6631567,27.249522 20.9306959,25.802768 23.3284142,23.4662973 C23.4389461,23.3583229 23.4954691,23.2069592 23.482292,23.0530815 C23.4687247,22.8991604 23.3879281,22.7584598 23.2604046,22.6712913 L21.2376278,21.2832276 Z" id="Shape"></path>
            <path d="M15.7627885,4.20574805 C16.0995423,4.26443832 16.4302277,4.33964334 16.753761,4.43149317 C17.0016125,4.50162674 17.2613841,4.37878463 17.3655008,4.14367681 L18.3424726,1.94066799 C18.4019865,1.8067727 18.4011629,1.65371855 18.3407388,1.51977992 C18.2807915,1.3867082 18.1664452,1.28384853 18.0266115,1.23920231 C17.3476857,1.02407692 16.6461767,0.859146014 15.9252054,0.755419426 C15.777266,0.734613425 15.6267259,0.778826178 15.5141134,0.876571041 C15.4010675,0.974359249 15.3363955,1.11679367 15.3363955,1.2664235 L15.3363955,3.69730138 C15.335962,3.94901066 15.5158039,4.16283567 15.7627885,4.20574805 Z" id="Shape"></path>
            <path d="M21.0667152,6.9895044 C21.2516718,7.17784206 21.547984,7.19526709 21.7545702,7.0315932 L23.6412845,5.53217401 C23.7547639,5.44244813 23.8248975,5.30855284 23.8351271,5.16399447 C23.8453133,5.01900265 23.7939052,4.8778686 23.693993,4.77245153 C23.007395,4.05100341 22.2409105,3.40779454 21.4080636,2.85470166 C21.2818405,2.7709575 21.1245385,2.74672718 20.9782896,2.78924944 C20.8324743,2.83172837 20.7125797,2.93636522 20.651332,3.07537531 L19.6650408,5.29880002 C19.5668192,5.52155428 19.6361291,5.78258291 19.8329626,5.92458387 C20.2733996,6.24508299 20.6853585,6.60220934 21.0667152,6.9895044 Z" id="Shape"></path>
            <path d="M27.1171438,15.0741965 C27.0083024,14.9628411 26.8556817,14.9058413 26.7009371,14.9203188 L24.2543247,15.145197 C24.0209073,15.1660464 23.8321796,15.3420738 23.7930383,15.5728904 C23.6097721,16.6650321 23.2467507,17.694279 22.7357466,18.6329764 C22.6094802,18.8647033 22.6783567,19.1550337 22.8964296,19.3042301 L24.8821891,20.6671966 C25.0012168,20.7492502 25.1491561,20.7777285 25.2898567,20.7450024 C25.4306006,20.7122762 25.5508853,20.6221169 25.6223193,20.4967174 C26.4797866,18.9878922 27.049481,17.2967543 27.259925,15.4946512 C27.2783036,15.3394731 27.2255518,15.1856387 27.1171438,15.0741965 Z" id="Shape"></path>
        </g>
    </g>
</svg>