<svg width="17" height="16" viewBox="0 0 17 16" fill="none" xmlns="http://www.w3.org/2000/svg">
<path d="M9.75854 4.73047C8.03589 4.80078 3.78198 5.29297 3.78198 8.87891C3.78198 12.7109 8.6687 12.8867 10.2507 10.3906C10.4617 10.7422 11.4812 11.6914 11.8328 12.043L13.8367 10.0742C13.8367 10.0742 12.7117 9.16016 12.7117 8.21094V3.04297C12.7117 2.12891 11.8328 0.125 8.73901 0.125C5.64526 0.125 4.02808 2.05859 4.02808 3.81641L6.59448 4.0625C7.15698 2.30469 8.49292 2.30469 8.49292 2.30469C9.93433 2.30469 9.75854 3.35938 9.75854 4.73047ZM9.75854 7.78906C9.75854 10.6016 6.80542 10.1797 6.80542 8.38672C6.80542 6.73438 8.56323 6.38281 9.75854 6.34766V7.78906Z" fill="#0F172A"/>
<path d="M14.5398 13.5195C14.8211 13.168 14.6101 12.9922 14.3289 13.0977C7.86013 16.1914 3.81716 13.625 1.25075 12.043C1.07497 11.9375 0.793723 12.0781 1.03982 12.3242C1.91872 13.3789 4.73122 15.875 8.38747 15.875C12.0789 15.875 14.2586 13.8711 14.5398 13.5195ZM15.9461 13.625C16.157 13.0625 16.2976 12.2891 16.157 12.1133C15.9812 11.8672 15.1023 11.832 14.5398 11.9024C13.9773 11.9727 13.1336 12.3242 13.239 12.5C13.2742 12.6055 13.3445 12.5703 13.7312 12.5352C14.1179 12.5 15.1726 12.3594 15.4187 12.6406C15.6297 12.9219 15.0672 14.3281 14.9617 14.5742C14.8562 14.7852 14.9968 14.8555 15.1726 14.7149C15.3836 14.5391 15.7 14.1524 15.9461 13.625Z" fill="#0B66B2"/>
</svg>
