<svg width="17" height="18" viewBox="0 0 17 18" fill="none" xmlns="http://www.w3.org/2000/svg">
<path d="M10.158 17.174C10.4393 16.1544 10.8963 13.6583 10.8963 12.4982C10.8963 11.2677 9.77131 10.9513 8.64631 10.9513C7.48616 10.9513 6.39631 11.2677 6.39631 12.4982C6.39631 13.6583 6.81819 16.1896 7.09944 17.174C7.27522 17.8419 7.97835 17.9826 8.64631 17.9826C9.27913 17.9826 9.98225 17.8419 10.158 17.174ZM4.70881 8.1388C4.70881 5.99427 6.39631 4.27161 8.54085 4.23646C10.7205 4.16614 12.5487 5.95911 12.5838 8.1388C12.5838 9.12318 12.2323 10.0372 11.5643 10.7755C11.5291 10.8458 11.494 10.9513 11.5643 11.0216C11.7401 11.3029 11.8807 11.5841 11.951 11.9357C11.9862 12.0763 12.1619 12.1466 12.3026 12.0411C13.3221 11.0568 13.9901 9.68568 13.9901 8.1388C13.9549 5.18568 11.5291 2.7599 8.54085 2.83021C5.62288 2.86536 3.30256 5.22083 3.30256 8.1388C3.30256 9.68568 3.93538 11.0568 4.95491 12.0411C5.09553 12.1466 5.27131 12.0763 5.30647 11.9357C5.37678 11.5841 5.51741 11.3029 5.69319 11.0216C5.7635 10.9513 5.72835 10.8458 5.69319 10.7755C5.02522 10.0372 4.70881 9.12318 4.70881 8.1388ZM8.64631 0.0177075C4.076 -0.0174488 0.384595 3.6388 0.349439 8.20911C0.314283 11.6544 2.3885 14.6427 5.34163 15.9083C5.48225 15.9786 5.65803 15.838 5.62288 15.6974C5.58772 15.3458 5.48225 14.8185 5.4471 14.5021C5.4471 14.4318 5.37678 14.3615 5.34163 14.3615C3.23225 13.2013 1.75569 10.9513 1.75569 8.27943C1.75569 4.48255 4.81428 1.3888 8.64631 1.3888C12.4432 1.3888 15.5369 4.48255 15.5369 8.27943C15.5369 10.9161 14.0604 13.2013 11.9158 14.3615C11.8807 14.3615 11.8104 14.4318 11.8104 14.5021C11.7752 14.8185 11.6698 15.3458 11.6346 15.6974C11.5994 15.838 11.7752 15.9786 11.9158 15.9083C14.869 14.6427 16.9432 11.7247 16.9432 8.27943C16.9432 3.70911 13.2166 0.0177075 8.64631 0.0177075ZM8.64631 5.60755C7.38069 5.60755 6.39631 6.62708 6.39631 7.85755C6.39631 9.12318 7.38069 10.1076 8.64631 10.1076C9.87678 10.1076 10.8963 9.12318 10.8963 7.85755C10.8963 6.62708 9.87678 5.60755 8.64631 5.60755Z" fill="#A855F7"/>
</svg>
