<svg width="19" height="18" viewBox="0 0 19 18" fill="none" xmlns="http://www.w3.org/2000/svg">
<path d="M2.90106 8.38625V9.61358C2.90106 10.2349 2.39738 10.7386 1.77606 10.7386C1.15475 10.7386 0.651062 10.2349 0.651062 9.61358V8.38625C0.651062 7.76492 1.15475 7.26123 1.77606 7.26123C2.39738 7.26123 2.90106 7.76492 2.90106 8.38625Z" fill="#0A4ED2"/>
<path d="M16.4015 8.41824C16.4012 8.40758 16.4011 8.39692 16.4011 8.38625C16.4011 7.76492 16.9047 7.26123 17.5261 7.26123C18.1474 7.26123 18.6511 7.76492 18.6511 8.38625C18.6511 8.39694 18.6509 8.40763 18.6506 8.41824H18.6511V9.64553H18.6506C18.6337 10.2521 18.1367 10.7386 17.5261 10.7386C16.9154 10.7386 16.4184 10.2521 16.4015 9.64553H16.4011V8.41821H16.4015V8.41824Z" fill="#0A4ED2"/>
<path d="M6.78729 12.0682V13.2955C6.78729 13.9168 6.28364 14.4205 5.66229 14.4205C5.04094 14.4205 4.53729 13.9168 4.53729 13.2955V12.0682C4.53729 11.4469 5.04098 10.9432 5.66229 10.9432C6.28361 10.9432 6.78729 11.4469 6.78729 12.0682V12.0682ZM6.78729 4.70459V8.7188H6.78701C6.77344 9.32831 6.27507 9.81824 5.66229 9.81824C5.04952 9.81824 4.55118 9.32831 4.53761 8.7188H4.53729V4.70459C4.53729 4.08327 5.04098 3.57959 5.66229 3.57959C6.28361 3.57959 6.78729 4.08327 6.78729 4.70459Z" fill="#E42A27"/>
<path d="M12.5148 5.93188C12.5148 6.5532 13.0185 7.05689 13.6398 7.05689C14.2612 7.05689 14.7648 6.5532 14.7648 5.93188V4.7046C14.7648 4.08328 14.2611 3.57959 13.6398 3.57959C13.0185 3.57959 12.5148 4.08328 12.5148 4.7046V5.93188Z" fill="#2B9D42"/>
<path d="M8.52606 2.3523C8.52606 2.97359 9.02975 3.4773 9.65106 3.4773C10.2724 3.4773 10.7761 2.97359 10.7761 2.3523V1.125C10.7761 0.503684 10.2724 0 9.65106 0C9.02975 0 8.52606 0.503684 8.52606 1.125V2.3523ZM8.52606 15.6477C8.52606 15.0264 9.02975 14.5227 9.65106 14.5227C10.2724 14.5227 10.7761 15.0264 10.7761 15.6477V16.875C10.7761 17.4963 10.2724 18 9.65106 18C9.02975 18 8.52606 17.4963 8.52606 16.875V15.6477Z" fill="#F7AE0B"/>
<path d="M12.5148 9.30688C12.5148 8.68557 13.0185 8.18188 13.6398 8.18188C14.2612 8.18188 14.7648 8.68557 14.7648 9.30688V13.2955C14.7648 13.9169 14.2611 14.4205 13.6398 14.4205C13.0185 14.4205 12.5148 13.9169 12.5148 13.2955V9.30688Z" fill="#2B9D42"/>
<path d="M10.7761 5.7273V12.2727C10.7761 12.894 10.2724 13.3977 9.65106 13.3977C9.02975 13.3977 8.52606 12.894 8.52606 12.2727V5.7273C8.52606 5.10594 9.02975 4.60229 9.65106 4.60229C10.2724 4.60229 10.7761 5.10594 10.7761 5.7273Z" fill="#F7AE0B"/>
</svg>
