<svg width="19" height="18" viewBox="0 0 19 18" fill="none" xmlns="http://www.w3.org/2000/svg">
<path fill-rule="evenodd" clip-rule="evenodd" d="M9.65106 18C4.66349 18 0.651062 13.9876 0.651062 9C0.651062 4.01243 4.66349 0 9.65106 0C14.6386 0 18.6511 4.01243 18.6511 9C18.6511 13.9876 14.6386 18 9.65106 18ZM9.65106 14.4376L10.3261 13.7626L9.65106 11.1751L8.97606 13.7626L9.65106 14.4376ZM8.78864 14.4L8.45114 15.6751L9.23864 14.8876L8.78864 14.4ZM10.5135 14.4L10.0635 14.85L10.851 15.6375L10.5135 14.4ZM11.1511 16.7249L9.65106 15.2251L8.15099 16.7249C8.63856 16.8001 9.12614 16.875 9.65106 16.875C10.176 16.875 10.6636 16.8374 11.1511 16.7249ZM9.65106 1.125C5.30114 1.125 1.77606 4.65007 1.77606 9C1.77606 12.4499 3.98849 15.3749 7.06356 16.425L8.75106 10.1626C8.37599 9.9 8.15099 9.45 8.15099 8.96243C8.15099 8.13758 8.82599 7.46258 9.65106 7.46258C10.4761 7.46258 11.1511 8.13758 11.1511 8.96243C11.1511 9.45 10.9261 9.86242 10.5511 10.1626L12.2386 16.425C15.3136 15.3749 17.5261 12.4499 17.5261 9C17.5261 4.65007 14.001 1.125 9.65106 1.125ZM14.7885 12.8999C14.6011 13.1249 14.2636 13.2001 14.001 13.0124C13.7386 12.825 13.7011 12.4875 13.8885 12.2625C13.8885 12.2625 14.901 10.9125 14.901 9C14.901 7.0875 13.8885 5.7375 13.8885 5.7375C13.7011 5.5125 13.7386 5.175 14.001 4.98758C14.2636 4.79993 14.6011 4.87508 14.7885 5.10008C14.8636 5.175 16.026 6.71243 16.026 9C16.026 11.2876 14.8636 12.825 14.7885 12.8999ZM12.0511 11.4374C11.8261 11.2124 11.8635 10.8 12.0885 10.575C12.0885 10.575 12.651 9.97493 12.651 9C12.651 8.02507 12.0885 7.46258 12.0885 7.425C11.8635 7.2 11.8635 6.82493 12.0511 6.56258C12.2761 6.3 12.6136 6.3 12.8386 6.525C12.876 6.56258 13.776 7.49993 13.776 9C13.776 10.5001 12.876 11.4374 12.8386 11.475C12.6136 11.7 12.2761 11.6624 12.0511 11.4374ZM7.25099 11.4374C7.02599 11.6624 6.68849 11.7 6.46349 11.475C6.42614 11.4001 5.52614 10.5001 5.52614 9C5.52614 7.49993 6.42614 6.59993 6.46349 6.525C6.68849 6.3 7.06356 6.3 7.25099 6.56258C7.47599 6.78758 7.43864 7.2 7.21364 7.425C7.21364 7.46258 6.65114 8.02507 6.65114 9C6.65114 9.97493 7.21364 10.575 7.21364 10.575C7.43864 10.8 7.47599 11.1751 7.25099 11.4374ZM5.30114 13.0124C5.03856 13.2001 4.70106 13.1249 4.51364 12.8999C4.43849 12.825 3.27614 11.2876 3.27614 9C3.27614 6.71243 4.43849 5.175 4.51364 5.10008C4.70106 4.87508 5.03856 4.79993 5.30114 4.98758C5.56349 5.175 5.60106 5.5125 5.41364 5.7375C5.41364 5.7375 4.40114 7.0875 4.40114 9C4.40114 10.9125 5.41364 12.2625 5.41364 12.2625C5.60106 12.4875 5.52614 12.825 5.30114 13.0124Z" fill="#F97C30"/>
</svg>
