<svg width="18" height="18" viewBox="0 0 18 18" fill="none" xmlns="http://www.w3.org/2000/svg">
<path d="M8.93231 0.28125C4.11591 0.28125 0.213562 4.21875 0.213562 9C0.213562 13.8164 4.11591 17.7188 8.93231 17.7188C13.7136 17.7188 17.6511 13.8164 17.6511 9C17.6511 4.21875 13.7136 0.28125 8.93231 0.28125ZM12.4479 13.1133C12.3073 13.1133 12.2018 13.0781 12.0964 13.0078C9.88153 11.6719 7.35028 11.6367 4.81903 12.1289C4.67841 12.1641 4.50262 12.2344 4.39716 12.2344C4.04559 12.2344 3.83466 11.9531 3.83466 11.6719C3.83466 11.3203 4.04559 11.1445 4.32684 11.0742C7.20966 10.4414 10.1276 10.5117 12.6589 11.9883C12.8698 12.1289 12.9753 12.2695 12.9753 12.5859C12.9753 12.9023 12.7292 13.1133 12.4479 13.1133ZM13.3972 10.8281C13.2214 10.8281 13.0807 10.7227 12.9753 10.6875C10.7604 9.38672 7.49091 8.85938 4.57294 9.63281C4.39716 9.66797 4.32684 9.73828 4.15106 9.73828C3.7995 9.73828 3.48309 9.42188 3.48309 9.03516C3.48309 8.68359 3.65887 8.4375 4.01044 8.33203C4.99481 8.05078 6.01434 7.83984 7.45575 7.83984C9.74091 7.83984 11.9557 8.40234 13.6784 9.45703C13.9597 9.59766 14.1003 9.84375 14.1003 10.125C14.0651 10.5117 13.7839 10.8281 13.3972 10.8281ZM14.487 8.15625C14.3112 8.15625 14.2057 8.08594 14.03 8.01562C11.5339 6.50391 7.06903 6.15234 4.15106 6.96094C4.04559 6.99609 3.86981 7.06641 3.69403 7.06641C3.237 7.06641 2.88544 6.67969 2.88544 6.22266C2.88544 5.73047 3.20184 5.48438 3.51825 5.37891C4.74872 5.02734 6.11981 4.85156 7.63153 4.85156C10.1979 4.85156 12.905 5.37891 14.8386 6.53906C15.1198 6.67969 15.2956 6.89062 15.2956 7.3125C15.2956 7.80469 14.9089 8.15625 14.487 8.15625Z" fill="#24CB4C"/>
</svg>
