<svg width="11" height="12" viewBox="0 0 11 12" fill="none" xmlns="http://www.w3.org/2000/svg">
<path fill-rule="evenodd" clip-rule="evenodd" d="M3 0.5L10.5 0.5C10.6326 0.5 10.7598 0.552678 10.8536 0.646447C10.9473 0.740215 11 0.867392 11 1V8.5C11 8.77614 10.7761 9 10.5 9C10.2239 9 10 8.77614 10 8.5V2.20711L0.853553 11.3536C0.658291 11.5488 0.341709 11.5488 0.146447 11.3536C-0.0488155 11.1583 -0.0488155 10.8417 0.146447 10.6464L9.29289 1.5L3 1.5C2.72386 1.5 2.5 1.27614 2.5 1C2.5 0.723858 2.72386 0.5 3 0.5Z" fill="#3970AC"/>
</svg>
