<svg width="14" height="14" viewBox="0 0 14 14" fill="none" xmlns="http://www.w3.org/2000/svg">
<path d="M3.50403 1V2.5M10.504 1V2.5M1.00403 11.5V4C1.00403 3.60218 1.16206 3.22064 1.44337 2.93934C1.72467 2.65804 2.1062 2.5 2.50403 2.5H11.504C11.9019 2.5 12.2834 2.65804 12.5647 2.93934C12.846 3.22064 13.004 3.60218 13.004 4V11.5M1.00403 11.5C1.00403 11.8978 1.16206 12.2794 1.44337 12.5607C1.72467 12.842 2.1062 13 2.50403 13H11.504C11.9019 13 12.2834 12.842 12.5647 12.5607C12.846 12.2794 13.004 11.8978 13.004 11.5M1.00403 11.5V6.5C1.00403 6.10218 1.16206 5.72064 1.44337 5.43934C1.72467 5.15804 2.1062 5 2.50403 5H11.504C11.9019 5 12.2834 5.15804 12.5647 5.43934C12.846 5.72064 13.004 6.10218 13.004 6.5V11.5" stroke="#B3B3B3" stroke-linecap="round" stroke-linejoin="round"/>
</svg>
