<svg width="20" height="20" viewBox="0 0 20 20" fill="none" xmlns="http://www.w3.org/2000/svg">
<g id="icon/sm/outline/chevron-up-down">
<path id="Vector (Stroke)" fill-rule="evenodd" clip-rule="evenodd" d="M9.55806 3.93306C9.80214 3.68898 10.1979 3.68898 10.4419 3.93306L13.5669 7.05806C13.811 7.30214 13.811 7.69786 13.5669 7.94194C13.3229 8.18602 12.9271 8.18602 12.6831 7.94194L10 5.25888L7.31694 7.94194C7.07286 8.18602 6.67714 8.18602 6.43306 7.94194C6.18898 7.69786 6.18898 7.30214 6.43306 7.05806L9.55806 3.93306ZM6.43306 12.0581C6.67714 11.814 7.07286 11.814 7.31694 12.0581L10 14.7411L12.6831 12.0581C12.9271 11.814 13.3229 11.814 13.5669 12.0581C13.811 12.3021 13.811 12.6979 13.5669 12.9419L10.4419 16.0669C10.1979 16.311 9.80214 16.311 9.55806 16.0669L6.43306 12.9419C6.18898 12.6979 6.18898 12.3021 6.43306 12.0581Z" fill="#94A3B8"/>
</g>
</svg>
