<svg xmlns="http://www.w3.org/2000/svg" width="20px" height="20px" viewBox="0 0 24 24">
	<path fill="none" stroke="black" stroke-linecap="round" stroke-linejoin="round" stroke-width="1.5" d="M4.513 19.487c2.512 2.392 5.503 1.435 6.7.466c.618-.501.897-.825 1.136-1.065c.837-.777.784-1.555.24-2.177c-.219-.249-1.616-1.591-2.956-2.967c-.694-.694-1.172-1.184-1.582-1.58c-.547-.546-1.026-1.172-1.744-1.154c-.658 0-1.136.58-1.735 1.179c-.688.688-1.196 1.555-1.375 2.333c-.539 2.273.299 3.888 1.316 4.965m0 0L2 21.999M19.487 4.515c-2.513-2.394-5.494-1.42-6.69-.45c-.62.502-.898.826-1.138 1.066c-.837.778-.784 1.556-.239 2.178c.078.09.31.32.635.644m7.432-3.438c1.017 1.077 1.866 2.71 1.327 4.985c-.18.778-.688 1.645-1.376 2.334c-.598.598-1.077 1.179-1.735 1.179c-.718.018-1.09-.502-1.639-1.048m3.423-7.45L22 2m-5.936 9.964c-.41-.395-.994-.993-1.688-1.687c-.858-.882-1.74-1.75-2.321-2.325m4.009 4.012l-1.562 1.524m-3.99-3.983l1.543-1.553" color="currentColor"/>
</svg>
