<svg width="15" height="15" viewBox="0 0 15 15" fill="none" xmlns="http://www.w3.org/2000/svg">
	<path d="M8.24994 2.25C8.05103 2.25 7.86026 2.32902 7.71961 2.46967C7.57896 2.61032 7.49994 2.80109 7.49994 3C7.49994 3.19891 7.57896 3.38968 7.71961 3.53033C7.86026 3.67098 8.05103 3.75 8.24994 3.75H10.1894L5.46969 8.46975C5.39806 8.53893 5.34092 8.62169 5.30161 8.7132C5.26231 8.8047 5.24162 8.90311 5.24075 9.0027C5.23989 9.10228 5.25886 9.20104 5.29657 9.29321C5.33428 9.38539 5.38997 9.46913 5.46039 9.53955C5.53081 9.60996 5.61455 9.66565 5.70672 9.70336C5.7989 9.74108 5.89766 9.76005 5.99724 9.75919C6.09682 9.75832 6.19524 9.73763 6.28674 9.69833C6.37825 9.65902 6.461 9.60188 6.53019 9.53025L11.2499 4.8105V6.75C11.2499 6.94891 11.329 7.13968 11.4696 7.28033C11.6103 7.42098 11.801 7.5 11.9999 7.5C12.1989 7.5 12.3896 7.42098 12.5303 7.28033C12.6709 7.13968 12.7499 6.94891 12.7499 6.75V3C12.7499 2.80109 12.6709 2.61032 12.5303 2.46967C12.3896 2.32902 12.1989 2.25 11.9999 2.25H8.24994Z" fill="#CBD5E1"/>
	<path d="M3.75 3.75C3.35218 3.75 2.97064 3.90804 2.68934 4.18934C2.40804 4.47064 2.25 4.85218 2.25 5.25V11.25C2.25 11.6478 2.40804 12.0294 2.68934 12.3107C2.97064 12.592 3.35218 12.75 3.75 12.75H9.75C10.1478 12.75 10.5294 12.592 10.8107 12.3107C11.092 12.0294 11.25 11.6478 11.25 11.25V9C11.25 8.80109 11.171 8.61032 11.0303 8.46967C10.8897 8.32902 10.6989 8.25 10.5 8.25C10.3011 8.25 10.1103 8.32902 9.96967 8.46967C9.82902 8.61032 9.75 8.80109 9.75 9V11.25H3.75V5.25H6C6.19891 5.25 6.38968 5.17098 6.53033 5.03033C6.67098 4.88968 6.75 4.69891 6.75 4.5C6.75 4.30109 6.67098 4.11032 6.53033 3.96967C6.38968 3.82902 6.19891 3.75 6 3.75H3.75Z" fill="#CBD5E1"/>
</svg>
