<svg width="40" height="40" viewBox="0 0 40 40" fill="none" xmlns="http://www.w3.org/2000/svg">
<rect width="40" height="40" rx="4" fill="#CBD5E1"/>
<path d="M18.9258 14H22.0488C22.582 14 23.0391 14.3555 23.1914 14.8379L23.4707 15.625H25.375C26.2637 15.625 27 16.3613 27 17.25V23.75C27 24.6641 26.2637 25.375 25.375 25.375H15.625C14.7109 25.375 14 24.6641 14 23.75V17.25C14 16.3613 14.7109 15.625 15.625 15.625H17.5039L17.7832 14.8379C17.9355 14.3555 18.3926 14 18.9258 14ZM20.5 22.9375C21.8457 22.9375 22.9375 21.8457 22.9375 20.5C22.9375 19.1543 21.8457 18.0625 20.5 18.0625C19.1289 18.0625 18.0625 19.1543 18.0625 20.5C18.0625 21.8457 19.1289 22.9375 20.5 22.9375Z" fill="#94A3B8"/>
</svg>
