<svg width="407" height="60" viewBox="0 0 407 60" fill="none" xmlns="http://www.w3.org/2000/svg">
<circle cx="30" cy="29.9998" r="28.0408" fill="#2A2A2A"/>
<path fill-rule="evenodd" clip-rule="evenodd" d="M30 60C46.5685 60 60 46.5685 60 30C60 13.4315 46.5685 0 30 0C13.4315 0 0 13.4315 0 30C0 46.5685 13.4315 60 30 60ZM30 58.7755C45.8923 58.7755 58.7755 45.8923 58.7755 30C58.7755 14.1077 45.8923 1.22449 30 1.22449C14.1077 1.22449 1.22449 14.1077 1.22449 30C1.22449 45.8923 14.1077 58.7755 30 58.7755Z" fill="#2A2A2A"/>
<path fill-rule="evenodd" clip-rule="evenodd" d="M15.939 20.1204C16.292 19.9057 16.7483 19.6281 17.2653 19.7142C17.5478 19.7613 17.8483 19.9894 18.1949 20.2523C18.7496 20.6733 19.4221 21.1836 20.3265 21.1836C21.3699 21.1836 21.9194 20.9366 22.238 20.7934C22.368 20.735 22.4596 20.6938 22.5306 20.6938C22.7755 20.6938 23.1428 21.0612 22.653 21.4285C22.5724 21.489 22.4717 21.5728 22.3517 21.6728C21.7432 22.1794 20.6362 23.101 19.102 23.5101C18.8105 23.5879 18.5405 23.6533 18.2912 23.7137C16.9697 24.0339 16.2274 24.2137 15.9184 25.3469C15.551 26.6938 15.7959 32.0816 20.3265 32.0816C22.2032 32.0816 23.6806 31.3463 25.4116 30.4848C27.8595 29.2665 30.8145 27.7959 36.1224 27.7959C45.1837 27.7959 47.0204 35.5101 47.0204 39.4285C47.0204 43.3469 42.6122 48.7346 35.0204 48.7346C29.6799 48.7346 27.8614 46.9358 26.9175 46.0021C26.7879 45.8739 26.6749 45.7621 26.5714 45.6734C27.1837 47.2652 30.2449 50.6693 36.1224 50.5714C36.0408 51.0203 34.0163 51.9183 26.5714 51.9183C17.2653 51.9183 10.0408 43.5918 10.0408 36.1224C10.0408 30.8057 11.4057 27.7224 12.1924 25.9452C12.5109 25.2256 12.7347 24.7202 12.7347 24.3673C12.7347 23.2266 11.4596 22.086 10.2952 21.0443C10.2096 20.9678 10.1247 20.8917 10.0408 20.8163C8.81631 19.7142 8.57141 17.6326 8.69386 17.2653C8.81631 16.8979 9.30611 16.7755 9.42856 17.5101C9.551 18.2448 10.7755 18.9795 11.6326 18.9795C11.9837 18.9795 12.1704 18.9384 12.3527 18.8984C12.6154 18.8405 12.8689 18.7848 13.5918 18.8571C14.2035 18.9183 14.9435 19.6929 15.3714 20.1408C15.4398 20.2125 15.5003 20.2758 15.551 20.3265C15.6599 20.2902 15.7903 20.2109 15.939 20.1204ZM27.3061 42.3673C27.7795 42.3673 28.1632 41.9835 28.1632 41.5102C28.1632 41.0368 27.7795 40.653 27.3061 40.653C26.8327 40.653 26.449 41.0368 26.449 41.5102C26.449 41.9835 26.8327 42.3673 27.3061 42.3673Z" fill="white"/>
<path d="M23.0204 14.9389C22.5306 15.3199 22.4566 16.2873 22.96 16.7818C23.464 17.353 24.1224 17.3426 24.8028 16.8422C29.3877 13.4696 41.5102 13.592 46.7755 16.7818C47.3718 17.143 48.0844 17.2307 48.5409 16.7661C48.5409 16.7661 48.5409 16.7661 48.5789 16.7274C49.0734 16.224 49.102 15.3159 48.4858 14.8859C42.2449 10.5308 28.5306 10.6532 23.0204 14.9389Z" fill="#CF3529"/>
<path d="M25.9592 19.347C25.2245 19.7143 25.2245 20.5714 25.5918 21.1837C25.9592 21.7959 26.7324 21.8083 27.4286 21.4286C32.61 19.1144 38.7801 18.8525 44.0816 21.551C44.6739 21.8525 45.6735 21.9184 46.0408 21.1837C46.3915 20.4824 46.4082 19.8367 45.551 19.3469C40.3002 16.3465 31.9434 15.9972 25.9592 19.347Z" fill="#CF3529"/>
<path d="M28.6531 24.1226C27.9184 24.4899 27.7959 25.2858 28.1633 25.8369C28.7347 26.694 29.5102 26.4304 30.1701 26.1872C34.6531 24.535 37.102 24.6124 41.3878 26.1268C42.2565 26.4338 42.8571 26.4491 43.3469 25.8369C43.7143 25.2246 43.6404 24.3982 42.7347 24.0001C37.4733 21.6876 33.0612 21.6736 28.6531 24.1226Z" fill="#CF3529"/>
<path d="M337.067 37.1199C334.665 37.1199 332.783 36.5327 331.421 35.3583C330.078 34.1839 329.407 32.4317 329.407 30.1018C329.407 27.7341 330.106 25.9725 331.506 24.817C332.925 23.6615 334.807 23.0838 337.152 23.0838C338.136 23.0838 338.987 23.1596 339.706 23.3111C340.303 23.4184 340.881 23.5879 341.441 23.8194C341.683 23.9194 341.834 24.1602 341.834 24.4224V26.1532C341.834 26.6526 341.308 26.9868 340.831 26.8406C340.014 26.5902 339.109 26.465 338.117 26.465C336.793 26.465 335.781 26.7301 335.081 27.2605C334.4 27.7909 334.06 28.738 334.06 30.1018C334.06 31.371 334.381 32.2991 335.024 32.8863C335.667 33.4546 336.689 33.7387 338.088 33.7387C339.072 33.7387 339.993 33.5946 340.852 33.3063C341.328 33.1462 341.862 33.479 341.862 33.9827V35.8272C341.862 36.0949 341.705 36.3399 341.456 36.4357C340.89 36.6526 340.288 36.8144 339.649 36.921C338.873 37.0536 338.013 37.1199 337.067 37.1199Z" fill="#1E293B"/>
<path d="M347.441 37.1199C346.59 37.1199 345.795 36.9684 345.058 36.6653C344.339 36.3622 343.762 35.8981 343.327 35.273C342.892 34.629 342.675 33.8334 342.675 32.8863C342.675 31.5036 343.138 30.4239 344.065 29.6472C345.01 28.8517 346.42 28.4539 348.292 28.4539H352.037V28.1413C352.037 27.4594 351.81 26.9764 351.356 26.6923C350.902 26.3892 350.051 26.2377 348.803 26.2377C347.578 26.2377 346.371 26.389 345.183 26.6916C344.739 26.8048 344.292 26.4785 344.292 26.0193V24.4518C344.292 24.1747 344.459 23.9235 344.721 23.8343C345.293 23.6396 345.954 23.4747 346.703 23.3395C347.668 23.169 348.68 23.0838 349.739 23.0838C351.82 23.0838 353.446 23.51 354.619 24.3624C355.811 25.2148 356.406 26.5691 356.406 28.4255V36.1582C356.406 36.5324 356.104 36.8358 355.73 36.8358H352.961C352.638 36.8358 352.361 36.6078 352.297 36.2911L352.179 35.6992C351.687 36.1539 351.054 36.5043 350.278 36.7505C349.522 36.9968 348.576 37.1199 347.441 37.1199ZM348.888 34.307C349.607 34.307 350.231 34.1839 350.76 33.9376C351.29 33.6914 351.716 33.3788 352.037 33V31.0963H348.803C347.46 31.0963 346.788 31.6362 346.788 32.7159C346.788 33.2084 346.959 33.5967 347.299 33.8808C347.64 34.1649 348.169 34.307 348.888 34.307Z" fill="#1E293B"/>
<path d="M363.004 37.1199C361.926 37.1199 360.905 37.0441 359.94 36.8926C359.201 36.7766 358.579 36.6383 358.073 36.4778C357.81 36.3941 357.642 36.1427 357.642 35.8656V33.8571C357.642 33.3706 358.142 33.0375 358.608 33.1754C359.021 33.2977 359.465 33.4002 359.94 33.483C360.81 33.6346 361.586 33.7103 362.267 33.7103C363.08 33.7103 363.666 33.6724 364.026 33.5967C364.404 33.5209 364.593 33.3125 364.593 32.9716C364.593 32.5927 364.29 32.3086 363.685 32.1192C363.08 31.9298 362.248 31.6551 361.188 31.2952C359.959 30.8595 359.023 30.3576 358.38 29.7893C357.755 29.2021 357.443 28.3402 357.443 27.2037C357.443 25.8778 357.935 24.8643 358.919 24.1635C359.921 23.4437 361.51 23.0838 363.685 23.0838C364.536 23.0838 365.378 23.1501 366.21 23.2827C366.812 23.3786 367.336 23.4845 367.779 23.6003C368.064 23.6745 368.253 23.9369 368.253 24.2312V26.1136C368.253 26.6088 367.734 26.9453 367.257 26.8143C366.997 26.7429 366.724 26.6833 366.437 26.6354C365.756 26.5218 365.142 26.465 364.593 26.465C363.893 26.465 363.297 26.5123 362.806 26.607C362.333 26.6828 362.096 26.8817 362.096 27.2037C362.096 27.5636 362.361 27.8193 362.891 27.9709C363.42 28.1035 364.186 28.3308 365.189 28.6528C366.248 28.9748 367.071 29.3252 367.657 29.7041C368.244 30.064 368.66 30.4996 368.906 31.0111C369.151 31.5225 369.274 32.1665 369.274 32.9432C369.274 34.2881 368.745 35.3204 367.686 36.0402C366.626 36.76 365.066 37.1199 363.004 37.1199Z" fill="#1E293B"/>
<path d="M375.758 37.1199C374.094 37.1199 372.864 36.6937 372.07 35.8413C371.294 34.9889 370.907 33.8145 370.907 32.3181V26.8343H369.768C369.394 26.8343 369.091 26.531 369.091 26.1567V24.0455C369.091 23.6713 369.394 23.3679 369.768 23.3679H370.907V21.0754C370.907 20.7685 371.113 20.4999 371.409 20.4207L374.623 19.5609C375.053 19.446 375.475 19.7703 375.475 20.2156V23.3679H378.021C378.41 23.3679 378.719 23.6955 378.696 24.0843L378.575 26.1956C378.555 26.5541 378.258 26.8343 377.9 26.8343H375.475V32.0055C375.475 32.6496 375.635 33.1042 375.957 33.3694C376.278 33.6156 376.761 33.7387 377.404 33.7387C377.656 33.7387 377.911 33.7187 378.167 33.6786C378.623 33.6072 379.078 33.9322 379.078 34.3947V36.1036C379.078 36.3753 378.917 36.6239 378.66 36.7105C377.849 36.9834 376.882 37.1199 375.758 37.1199Z" fill="#1E293B"/>
<path d="M386.9 37.1199C384.308 37.1199 382.398 36.5232 381.169 35.3299C379.939 34.1176 379.324 32.3749 379.324 30.1018C379.324 27.8477 379.939 26.1145 381.169 24.9022C382.417 23.6899 384.327 23.0838 386.9 23.0838C389.491 23.0838 391.401 23.6899 392.631 24.9022C393.879 26.1145 394.503 27.8477 394.503 30.1018C394.503 32.3749 393.889 34.1176 392.659 35.3299C391.43 36.5232 389.51 37.1199 386.9 37.1199ZM386.9 33.5398C387.959 33.5398 388.715 33.2747 389.169 32.7443C389.623 32.2139 389.85 31.3331 389.85 30.1018C389.85 28.8706 389.623 27.9898 389.169 27.4594C388.715 26.929 387.959 26.6639 386.9 26.6639C385.859 26.6639 385.112 26.929 384.658 27.4594C384.204 27.9898 383.977 28.8706 383.977 30.1018C383.977 31.3331 384.204 32.2139 384.658 32.7443C385.112 33.2747 385.859 33.5398 386.9 33.5398Z" fill="#1E293B"/>
<path d="M400.73 37.1199C399.652 37.1199 398.63 37.0441 397.666 36.8926C396.927 36.7766 396.305 36.6383 395.799 36.4778C395.535 36.3941 395.368 36.1427 395.368 35.8656V33.8571C395.368 33.3706 395.867 33.0375 396.333 33.1754C396.746 33.2977 397.19 33.4002 397.666 33.483C398.536 33.6346 399.311 33.7103 399.992 33.7103C400.805 33.7103 401.392 33.6724 401.751 33.5967C402.13 33.5209 402.319 33.3125 402.319 32.9716C402.319 32.5927 402.016 32.3086 401.411 32.1192C400.805 31.9298 399.973 31.6551 398.914 31.2952C397.685 30.8595 396.748 30.3576 396.105 29.7893C395.481 29.2021 395.169 28.3402 395.169 27.2037C395.169 25.8778 395.661 24.8643 396.644 24.1635C397.647 23.4437 399.236 23.0838 401.411 23.0838C402.262 23.0838 403.104 23.1501 403.936 23.2827C404.538 23.3786 405.061 23.4845 405.505 23.6003C405.789 23.6745 405.979 23.9369 405.979 24.2312V26.1136C405.979 26.6088 405.46 26.9453 404.983 26.8143C404.723 26.7429 404.45 26.6833 404.163 26.6354C403.482 26.5218 402.867 26.465 402.319 26.465C401.619 26.465 401.023 26.5123 400.531 26.607C400.058 26.6828 399.822 26.8817 399.822 27.2037C399.822 27.5636 400.087 27.8193 400.616 27.9709C401.146 28.1035 401.912 28.3308 402.914 28.6528C403.974 28.9748 404.796 29.3252 405.383 29.7041C405.969 30.064 406.385 30.4996 406.631 31.0111C406.877 31.5225 407 32.1665 407 32.9432C407 34.2881 406.47 35.3204 405.411 36.0402C404.352 36.76 402.792 37.1199 400.73 37.1199Z" fill="#1E293B"/>
<path d="M318.603 15.33C322.506 19.8356 322.893 27.5936 320.867 34.0686C318.812 40.5436 314.342 45.7653 308.622 48.6596C302.871 51.5241 295.869 52.0911 290.655 49.3758C285.471 46.6903 282.074 40.7226 281.091 34.725C280.108 28.6976 281.538 22.6106 285.054 18.2243C288.57 13.8082 294.171 11.0929 300.696 10.3469C307.221 9.60097 314.67 10.8542 318.603 15.33Z" fill="url(#paint0_linear_1578_534)"/>
<path d="M316.647 16.9414C320.908 21.7752 323.142 28.8171 322.01 35.5607C320.878 42.334 316.379 48.8388 310.748 50.659C305.146 52.509 298.353 49.6445 292.781 46.2429C287.209 42.8114 282.8 38.8131 280.565 33.1437C278.331 27.4744 278.271 20.1341 281.817 15.4196C285.362 10.735 292.513 8.70595 299.276 9.03418C306.04 9.39224 312.356 12.0777 316.647 16.9414Z" fill="url(#paint1_linear_1578_534)"/>
<path fill-rule="evenodd" clip-rule="evenodd" d="M321.989 28.2922C321.275 24.0416 319.377 20.0382 316.647 16.9412C313.811 13.7261 310.089 11.4629 305.939 10.1945C304.181 10.0932 302.407 10.1514 300.696 10.3469C294.171 11.0929 288.57 13.8082 285.054 18.2243C281.642 22.4804 280.195 28.3377 281.01 34.1881C283.356 39.3108 287.558 43.0258 292.781 46.2426C295.863 48.1241 299.319 49.8413 302.74 50.6873C304.763 50.2751 306.758 49.588 308.622 48.6596C314.342 45.7653 318.812 40.5436 320.867 34.0686C321.448 32.2129 321.83 30.2519 321.989 28.2922Z" fill="url(#paint2_linear_1578_534)"/>
<path d="M300.693 33.986C302.101 33.986 303.329 33.2215 303.988 32.0845C304.542 31.1287 303.604 30.1745 302.499 30.1745H301.328C300.979 30.1745 300.693 29.8887 300.693 29.5393C300.693 29.1899 300.979 28.9041 301.328 28.9041H303.864C304.215 28.9041 304.499 28.6197 304.499 28.2688C304.499 27.918 304.215 27.6336 303.864 27.6336H301.328C300.979 27.6336 300.693 27.3477 300.693 26.9984C300.693 26.649 300.979 26.3631 301.328 26.3631H303.846C304.207 26.3631 304.499 26.0707 304.499 25.71C304.499 25.3493 304.207 25.0569 303.846 25.0569H301.328C300.977 25.0569 300.693 24.7725 300.693 24.4217C300.693 24.0709 300.977 23.7864 301.328 23.7864L302.477 23.7994C303.59 23.8119 304.54 22.8527 303.977 21.8926C303.315 20.7664 302.093 20.0107 300.693 20.0107C298.591 20.0107 296.888 21.7168 296.888 23.8222V30.1745C296.888 32.2788 298.557 33.986 300.693 33.986ZM306.719 28.4467C306.192 28.4467 305.768 28.8715 305.768 29.3638V30.1745C305.768 33.0859 303.311 35.4311 300.364 35.2445C297.745 35.079 295.619 32.6008 295.619 29.9721V29.3638C295.619 28.8715 295.193 28.4467 294.668 28.4467C294.142 28.4467 293.716 28.8715 293.716 29.3638V29.8272C293.716 33.1665 295.948 36.1662 299.105 36.9214C299.466 37.0078 299.742 37.3178 299.742 37.6892C299.742 38.0998 299.409 38.4326 298.999 38.4326H298.359C297.638 38.4326 296.854 39.0353 296.889 39.7654C296.905 40.0922 297.197 40.3383 297.522 40.3383H303.865C304.191 40.3383 304.482 40.0916 304.498 39.7654C304.531 39.0361 303.749 38.4326 303.028 38.4326H302.361C301.966 38.4326 301.645 38.112 301.645 37.7165C301.645 37.3586 301.91 37.0596 302.259 36.9796C305.354 36.2697 307.671 33.5143 307.671 30.1745V29.3638C307.671 28.8715 307.247 28.4467 306.719 28.4467Z" fill="white"/>
<path d="M256.707 30.7071C257.098 30.3166 257.098 29.6834 256.707 29.2929L250.343 22.9289C249.953 22.5384 249.319 22.5384 248.929 22.9289C248.538 23.3194 248.538 23.9526 248.929 24.3431L254.586 30L248.929 35.6568C248.538 36.0474 248.538 36.6805 248.929 37.0711C249.319 37.4616 249.953 37.4616 250.343 37.0711L256.707 30.7071ZM78 31L79.4833 31L79.4833 29L78 29L78 31ZM82.45 31L85.4167 31L85.4167 29L82.45 29L82.45 31ZM88.3833 31L91.35 31L91.35 29L88.3833 29L88.3833 31ZM94.3167 31L97.2833 31L97.2833 29L94.3167 29L94.3167 31ZM100.25 31L103.217 31L103.217 29L100.25 29L100.25 31ZM106.183 31L109.15 31L109.15 29L106.183 29L106.183 31ZM112.117 31L115.083 31L115.083 29L112.117 29L112.117 31ZM118.05 31L121.017 31L121.017 29L118.05 29L118.05 31ZM123.983 31L126.95 31L126.95 29L123.983 29L123.983 31ZM129.917 31L132.883 31L132.883 29L129.917 29L129.917 31ZM135.85 31L138.817 31L138.817 29L135.85 29L135.85 31ZM141.783 31L144.75 31L144.75 29L141.783 29L141.783 31ZM147.717 31L150.683 31L150.683 29L147.717 29L147.717 31ZM153.65 31L156.617 31L156.617 29L153.65 29L153.65 31ZM159.583 31L162.55 31L162.55 29L159.583 29L159.583 31ZM165.517 31L168.483 31L168.483 29L165.517 29L165.517 31ZM171.45 31L174.417 31L174.417 29L171.45 29L171.45 31ZM177.383 31L180.35 31L180.35 29L177.383 29L177.383 31ZM183.317 31L186.283 31L186.283 29L183.317 29L183.317 31ZM189.25 31L192.217 31L192.217 29L189.25 29L189.25 31ZM195.183 31L198.15 31L198.15 29L195.183 29L195.183 31ZM201.117 31L204.083 31L204.083 29L201.117 29L201.117 31ZM207.05 31L210.017 31L210.017 29L207.05 29L207.05 31ZM212.983 31L215.95 31L215.95 29L212.983 29L212.983 31ZM218.917 31L221.883 31L221.883 29L218.917 29L218.917 31ZM224.85 31L227.817 31L227.817 29L224.85 29L224.85 31ZM230.783 31L233.75 31L233.75 29L230.783 29L230.783 31ZM236.717 31L239.683 31L239.683 29L236.717 29L236.717 31ZM242.65 31L245.617 31L245.617 29L242.65 29L242.65 31ZM248.583 31L251.55 31L251.55 29L248.583 29L248.583 31ZM254.517 31L256 31L256 29L254.517 29L254.517 31Z" fill="#94A3B8"/>
<rect x="149" y="12" width="36" height="36" rx="18" fill="#6EE7B7"/>
<path fill-rule="evenodd" clip-rule="evenodd" d="M173.585 23.4153C172.364 22.1949 170.386 22.1949 169.165 23.4153L165.415 27.1653C164.195 28.3857 164.195 30.3643 165.415 31.5847C165.674 31.8438 165.966 32.0471 166.278 32.1957C166.589 32.3445 166.721 32.7176 166.572 33.0291C166.423 33.3405 166.05 33.4724 165.739 33.3236C165.301 33.1147 164.892 32.8294 164.531 32.4686C162.823 30.76 162.823 27.99 164.531 26.2814L168.281 22.5314C169.99 20.8229 172.76 20.8229 174.469 22.5314C176.177 24.24 176.177 27.01 174.469 28.7186L173.004 30.1827C172.76 30.4268 172.365 30.4268 172.121 30.1827C171.876 29.9387 171.876 29.5429 172.121 29.2989L173.585 27.8347C174.805 26.6143 174.805 24.6357 173.585 23.4153ZM167.428 26.9709C167.577 26.6595 167.95 26.5276 168.261 26.6764C168.699 26.8853 169.108 27.1706 169.469 27.5314C171.177 29.24 171.177 32.01 169.469 33.7186L165.719 37.4686C164.01 39.1771 161.24 39.1771 159.531 37.4686C157.823 35.76 157.823 32.99 159.531 31.2814L160.996 29.8173C161.24 29.5732 161.635 29.5732 161.879 29.8173C162.124 30.0613 162.124 30.4571 161.879 30.7011L160.415 32.1653C159.195 33.3857 159.195 35.3643 160.415 36.5847C161.636 37.8051 163.614 37.8051 164.835 36.5847L168.585 32.8347C169.805 31.6143 169.805 29.6357 168.585 28.4153C168.326 28.1562 168.034 27.9529 167.722 27.8043C167.411 27.6555 167.279 27.2824 167.428 26.9709Z" fill="#065F46"/>
<defs>
<linearGradient id="paint0_linear_1578_534" x1="296.845" y1="51.1795" x2="317.279" y2="1.99089" gradientUnits="userSpaceOnUse">
<stop stop-color="#853AED"/>
<stop offset="1" stop-color="#975CF6"/>
</linearGradient>
<linearGradient id="paint1_linear_1578_534" x1="279" y1="9" x2="330.52" y2="34.8799" gradientUnits="userSpaceOnUse">
<stop stop-color="#FF4F91"/>
<stop offset="1" stop-color="#E11966"/>
</linearGradient>
<linearGradient id="paint2_linear_1578_534" x1="285.597" y1="16.1991" x2="322.957" y2="32.7272" gradientUnits="userSpaceOnUse">
<stop stop-color="#6C0084"/>
<stop offset="1" stop-color="#7C086C"/>
</linearGradient>
</defs>
</svg>
