<svg width="24" height="24" viewBox="0 0 24 24" fill="none" xmlns="http://www.w3.org/2000/svg">
<g id="icon-publish-status-in-progress">
<path id="Vector" d="M20 12C20 13.0506 19.7931 14.0909 19.391 15.0615C18.989 16.0321 18.3997 16.914 17.6569 17.6569C16.914 18.3997 16.0321 18.989 15.0615 19.391C14.0909 19.7931 13.0506 20 12 20C10.9494 20 9.90914 19.7931 8.93853 19.391C7.96793 18.989 7.08601 18.3997 6.34315 17.6569C5.60028 16.914 5.011 16.0321 4.60896 15.0615C4.20693 14.0909 4 13.0506 4 12C4 9.87827 4.84285 7.84344 6.34315 6.34315C7.84344 4.84285 9.87827 4 12 4C14.1217 4 16.1566 4.84285 17.6569 6.34315C19.1571 7.84344 20 9.87827 20 12Z" fill="#CBD5E1"/>
<path id="Vector_2" d="M17 12C17 12.6566 16.8707 13.3068 16.6194 13.9134C16.3681 14.52 15.9998 15.0712 15.5355 15.5355C15.0712 15.9998 14.52 16.3681 13.9134 16.6194C13.3068 16.8707 12.6566 17 12 17C11.3434 17 10.6932 16.8707 10.0866 16.6194C9.47995 16.3681 8.92876 15.9998 8.46447 15.5355C8.00017 15.0712 7.63188 14.52 7.3806 13.9134C7.12933 13.3068 7 12.6566 7 12C7 10.6739 7.52678 9.40215 8.46447 8.46447C9.40215 7.52678 10.6739 7 12 7C13.3261 7 14.5979 7.52678 15.5355 8.46447C16.4732 9.40215 17 10.6739 17 12Z" fill="#F5F5F5"/>
</g>
</svg>
