<svg width="14" height="15" viewBox="0 0 14 15" fill="none" xmlns="http://www.w3.org/2000/svg">
<path d="M7 0.75C3.11719 0.75 0 3.89453 0 7.75C0 11.6328 3.11719 14.75 7 14.75C10.8555 14.75 14 11.6328 14 7.75C14 3.89453 10.8555 0.75 7 0.75ZM10.1445 6.54688L6.64453 10.0469C6.50781 10.2109 6.31641 10.2656 6.125 10.2656C5.90625 10.2656 5.71484 10.2109 5.57812 10.0469L3.82812 8.29688C3.52734 7.99609 3.52734 7.53125 3.82812 7.23047C4.12891 6.92969 4.59375 6.92969 4.89453 7.23047L6.125 8.43359L9.07812 5.48047C9.37891 5.17969 9.84375 5.17969 10.1445 5.48047C10.4453 5.78125 10.4453 6.24609 10.1445 6.54688Z" fill="#10B981"/>
</svg>
