<svg width="33" height="33" viewBox="0 0 33 33" fill="none" xmlns="http://www.w3.org/2000/svg">
	<path d="M16.5 13.75V30.25M9.62504 22C8.27068 22.0015 6.96339 21.5033 5.95361 20.6007C4.94383 19.6981 4.30257 18.4547 4.15269 17.1087C4.00281 15.7626 4.35484 14.4086 5.14135 13.306C5.92786 12.2034 7.09353 11.4298 8.41504 11.1334C8.03268 9.35013 8.37438 7.48802 9.36495 5.95671C10.3555 4.42539 11.9139 3.3503 13.6971 2.96794C15.4804 2.58558 17.3425 2.92727 18.8738 3.91785C20.4051 4.90843 21.4802 6.46675 21.8625 8.25H22C23.705 8.24829 25.3497 8.88014 26.615 10.0229C27.8803 11.1656 28.6758 12.7378 28.8471 14.4341C29.0185 16.1304 28.5534 17.8298 27.5422 19.2025C26.531 20.5752 25.0459 21.5232 23.375 21.8625L9.62504 22ZM20.625 17.875L16.5 13.75L20.625 17.875ZM16.5 13.75L12.375 17.875L16.5 13.75Z" stroke="#9CA3AF" stroke-width="2" stroke-linecap="round" stroke-linejoin="round"/>
</svg>
