<svg width="18" height="20" viewBox="0 0 18 20" fill="none" xmlns="http://www.w3.org/2000/svg">
	<path fill-rule="evenodd" clip-rule="evenodd" d="M1.8001 0.399902C2.11836 0.399902 2.42358 0.526331 2.64863 0.751374C2.87367 0.976418 3.0001 1.28164 3.0001 1.5999V4.1211C3.99855 3.10263 5.23981 2.35507 6.60699 1.94884C7.97416 1.54261 9.42224 1.49108 10.8148 1.79911C12.2074 2.10713 13.4987 2.76457 14.567 3.7095C15.6353 4.65443 16.4455 5.85575 16.9213 7.2003C16.979 7.35001 17.0061 7.50978 17.001 7.67015C16.9959 7.83052 16.9587 7.98824 16.8916 8.13397C16.8245 8.27971 16.7288 8.41051 16.6103 8.51863C16.4917 8.62675 16.3527 8.71 16.2014 8.76346C16.0501 8.81691 15.8896 8.83948 15.7295 8.82983C15.5693 8.82018 15.4127 8.77851 15.2689 8.70728C15.1252 8.63606 14.9971 8.53672 14.8924 8.41515C14.7877 8.29358 14.7084 8.15224 14.6593 7.9995C14.2971 6.97568 13.6638 6.06932 12.8271 5.37699C11.9904 4.68467 10.9815 4.23232 9.90797 4.06816C8.83444 3.904 7.73648 4.03416 6.73109 4.44479C5.7257 4.85542 4.85055 5.53113 4.1989 6.3999H7.8001C8.11836 6.3999 8.42358 6.52633 8.64863 6.75137C8.87367 6.97642 9.0001 7.28164 9.0001 7.5999C9.0001 7.91816 8.87367 8.22339 8.64863 8.44843C8.42358 8.67347 8.11836 8.7999 7.8001 8.7999H1.8001C1.48184 8.7999 1.17661 8.67347 0.951569 8.44843C0.726526 8.22339 0.600098 7.91816 0.600098 7.5999V1.5999C0.600098 1.28164 0.726526 0.976418 0.951569 0.751374C1.17661 0.526331 1.48184 0.399902 1.8001 0.399902ZM1.8097 11.2683C1.9583 11.2158 2.11579 11.1931 2.27316 11.2015C2.43054 11.2099 2.58473 11.2492 2.72691 11.3172C2.8691 11.3851 2.99651 11.4804 3.10186 11.5977C3.2072 11.7149 3.28843 11.8517 3.3409 12.0003C3.70313 13.0241 4.33635 13.9305 5.17308 14.6228C6.00981 15.3151 7.01869 15.7675 8.09222 15.9316C9.16576 16.0958 10.2637 15.9656 11.2691 15.555C12.2745 15.1444 13.1496 14.4687 13.8013 13.5999H10.2001C9.88184 13.5999 9.57661 13.4735 9.35157 13.2484C9.12653 13.0234 9.0001 12.7182 9.0001 12.3999C9.0001 12.0816 9.12653 11.7764 9.35157 11.5514C9.57661 11.3263 9.88184 11.1999 10.2001 11.1999H16.2001C16.5184 11.1999 16.8236 11.3263 17.0486 11.5514C17.2737 11.7764 17.4001 12.0816 17.4001 12.3999V18.3999C17.4001 18.7182 17.2737 19.0234 17.0486 19.2484C16.8236 19.4735 16.5184 19.5999 16.2001 19.5999C15.8818 19.5999 15.5766 19.4735 15.3516 19.2484C15.1265 19.0234 15.0001 18.7182 15.0001 18.3999V15.8787C14.0016 16.8972 12.7604 17.6447 11.3932 18.051C10.026 18.4572 8.57795 18.5087 7.18536 18.2007C5.79277 17.8927 4.5015 17.2352 3.43319 16.2903C2.36487 15.3454 1.55467 14.1441 1.0789 12.7995C1.02641 12.6509 1.00371 12.4934 1.01209 12.336C1.02047 12.1787 1.05977 12.0245 1.12774 11.8823C1.19572 11.7401 1.29104 11.6127 1.40825 11.5073C1.52547 11.402 1.66229 11.3208 1.8109 11.2683H1.8097Z" fill="white"/>
</svg>
