<svg width="17" height="16" viewBox="0 0 17 16" fill="none" xmlns="http://www.w3.org/2000/svg">
<g opacity="0.5">
<path fill-rule="evenodd" clip-rule="evenodd" d="M4.71995 11.78C4.5795 11.6394 4.50061 11.4488 4.50061 11.25C4.50061 11.0512 4.5795 10.8606 4.71995 10.72L9.93995 5.5H6.24995C6.05104 5.5 5.86027 5.42098 5.71962 5.28033C5.57897 5.13968 5.49995 4.94891 5.49995 4.75C5.49995 4.55109 5.57897 4.36032 5.71962 4.21967C5.86027 4.07902 6.05104 4 6.24995 4H11.75C11.9489 4 12.1396 4.07902 12.2803 4.21967C12.4209 4.36032 12.5 4.55109 12.5 4.75V10.25C12.5 10.4489 12.4209 10.6397 12.2803 10.7803C12.1396 10.921 11.9489 11 11.75 11C11.551 11 11.3603 10.921 11.2196 10.7803C11.079 10.6397 11 10.4489 11 10.25V6.56L5.77995 11.78C5.63933 11.9205 5.4487 11.9993 5.24995 11.9993C5.0512 11.9993 4.86058 11.9205 4.71995 11.78Z" fill="#853AED"/>
</g>
</svg>
