<svg width="36" height="36" viewBox="0 0 36 36" fill="none"
	 xmlns="http://www.w3.org/2000/svg">
	<circle cx="18" cy="18" r="16.8245" fill="#2A2A2A"/>
	<path fill-rule="evenodd" clip-rule="evenodd"
		  d="M18 36C27.9411 36 36 27.9411 36 18C36 8.05887 27.9411 0 18 0C8.05887 0 0 8.05887 0 18C0 27.9411 8.05887 36 18 36ZM18 35.2653C27.5354 35.2653 35.2653 27.5354 35.2653 18C35.2653 8.46463 27.5354 0.734694 18 0.734694C8.46462 0.734694 0.73468 8.46463 0.73468 18C0.73468 27.5354 8.46462 35.2653 18 35.2653Z"
		  fill="#2A2A2A"/>
	<path fill-rule="evenodd" clip-rule="evenodd"
		  d="M9.56338 12.0723C9.77521 11.9434 10.049 11.7769 10.3592 11.8285C10.5287 11.8568 10.709 11.9937 10.9169 12.1514C11.2498 12.404 11.6533 12.7102 12.1959 12.7102C12.822 12.7102 13.1516 12.562 13.3428 12.4761C13.4208 12.441 13.4758 12.4163 13.5184 12.4163C13.6653 12.4163 13.8857 12.6367 13.5918 12.8571C13.5434 12.8934 13.483 12.9437 13.411 13.0037C13.0459 13.3076 12.3817 13.8606 11.4612 14.1061C11.2863 14.1527 11.1243 14.192 10.9747 14.2282C10.1818 14.4203 9.73644 14.5283 9.55101 15.2081C9.3306 16.0163 9.47754 19.249 12.1959 19.249C13.3219 19.249 14.2084 18.8078 15.247 18.2909C16.7157 17.5599 18.4887 16.6775 21.6735 16.6775C27.1102 16.6775 28.2122 21.3061 28.2122 23.6571C28.2122 26.0081 25.5673 29.2408 21.0122 29.2408C17.8079 29.2408 16.7168 28.1615 16.1505 27.6013C16.0728 27.5244 16.0049 27.4573 15.9428 27.4041C16.3102 28.3592 18.1469 30.4016 21.6735 30.3428C21.6245 30.6122 20.4098 31.151 15.9428 31.151C10.3592 31.151 6.02448 26.1551 6.02448 21.6734C6.02448 18.4834 6.84341 16.6335 7.31544 15.5671C7.50656 15.1354 7.64081 14.8321 7.64081 14.6204C7.64081 13.936 6.87578 13.2516 6.17715 12.6266C6.12579 12.5807 6.07479 12.5351 6.02448 12.4898C5.28979 11.8285 5.14285 10.5796 5.21632 10.3592C5.28979 10.1388 5.58366 10.0653 5.65713 10.5061C5.7306 10.9469 6.4653 11.3877 6.97958 11.3877C7.19023 11.3877 7.30227 11.3631 7.41163 11.339C7.56926 11.3043 7.72132 11.2709 8.15509 11.3143C8.52212 11.351 8.96611 11.8158 9.22283 12.0845C9.26391 12.1275 9.3002 12.1655 9.3306 12.1959C9.39593 12.1741 9.47415 12.1265 9.56338 12.0723ZM16.3837 25.4204C16.6677 25.4204 16.898 25.1902 16.898 24.9061C16.898 24.6221 16.6677 24.3918 16.3837 24.3918C16.0996 24.3918 15.8694 24.6221 15.8694 24.9061C15.8694 25.1902 16.0996 25.4204 16.3837 25.4204Z"
		  fill="white"/>
	<path
		d="M13.8122 8.96328C13.5184 9.19185 13.474 9.77227 13.776 10.069C14.0784 10.4117 14.4735 10.4055 14.8817 10.1052C17.6326 8.08165 24.9061 8.15512 28.0653 10.069C28.4231 10.2857 28.8507 10.3383 29.1245 10.0596C29.1245 10.0596 29.1245 10.0596 29.1474 10.0363C29.444 9.73434 29.4612 9.18948 29.0915 8.93147C25.3469 6.31838 17.1184 6.39185 13.8122 8.96328Z"
		fill="#CF3529"/>
	<path
		d="M15.5755 11.6082C15.1347 11.8286 15.1347 12.3429 15.3551 12.7102C15.5755 13.0776 16.0395 13.085 16.4571 12.8572C19.566 11.4686 23.2681 11.3115 26.449 12.9306C26.8044 13.1115 27.4041 13.151 27.6245 12.7102C27.8349 12.2895 27.8449 11.9021 27.3306 11.6082C24.1801 9.8079 19.166 9.59834 15.5755 11.6082Z"
		fill="#CF3529"/>
	<path
		d="M17.1918 14.4734C16.751 14.6938 16.6775 15.1714 16.8979 15.502C17.2408 16.0163 17.7061 15.8581 18.1021 15.7122C20.7918 14.7209 22.2612 14.7673 24.8326 15.676C25.3539 15.8602 25.7143 15.8694 26.0082 15.502C26.2286 15.1347 26.1842 14.6388 25.6408 14.4C22.484 13.0125 19.8367 13.0041 17.1918 14.4734Z"
		fill="#CF3529"/>
</svg>
