<svg width="18" height="18" viewBox="0 0 18 18" fill="none" xmlns="http://www.w3.org/2000/svg">
	<path fill-rule="evenodd" clip-rule="evenodd" d="M17.953 7.87495C17.3905 3.42185 13.5937 0 8.99994 0C4.03122 0 8.63502e-10 4.03122 8.63502e-10 8.99994C-1.85185e-05 10.3369 0.297849 11.6571 0.871955 12.8646C1.44606 14.0721 2.28198 15.1365 3.31896 15.9804C4.35594 16.8244 5.56792 17.4267 6.86683 17.7436C8.16573 18.0604 9.51892 18.084 10.828 17.8124L17.953 7.87495ZM4.26562 6.23436C4.26562 4.82812 6.09373 3.46875 9.37496 3.46875C12.9374 3.46875 14.6718 5.20311 14.6718 6.79685L10.3125 13.0781C9.74996 13.9687 8.43747 14.6249 7.12497 14.6249C4.87499 14.6249 3.42188 13.5468 3.42188 11.9062C3.42188 9.89058 5.67186 8.81246 10.0312 8.71871H10.2187V6.74998C10.2187 6.37498 10.2187 5.62499 9.32808 5.62499C8.53121 5.62499 8.48434 6.14061 8.48434 6.28123C8.48434 6.42185 8.48434 6.56248 8.53121 6.60935L8.57809 6.93748C8.57809 7.59372 7.73435 8.06247 6.46873 8.06247C5.10936 8.06247 4.26562 7.35935 4.26562 6.23436ZM9.04684 12.3281C9.65621 12.3281 10.125 11.8593 10.125 11.2968L10.1718 9.84371H9.93746C8.53121 9.98433 8.06247 10.6875 8.06247 11.3906C8.06247 11.9999 8.43747 12.3281 9.04684 12.3281Z" fill="white"/>
</svg>
