<svg width="18" height="17" viewBox="0 0 18 17" fill="none" xmlns="http://www.w3.org/2000/svg">
	<path d="M0.0327273 12.6982C0.0872673 12.6109 0.174535 12.6054 0.294545 12.6818C3.02181 14.2636 5.98909 15.0545 9.19636 15.0545C11.3345 15.0545 13.4454 14.6564 15.5291 13.86C15.5836 13.8382 15.6627 13.8054 15.7664 13.7618C15.87 13.7182 15.9436 13.6854 15.9873 13.6636C16.1509 13.5982 16.2791 13.6309 16.3718 13.7618C16.4645 13.8927 16.4345 14.0127 16.2818 14.1218C16.0855 14.2636 15.8345 14.4273 15.5291 14.6127C14.5909 15.1691 13.5436 15.6 12.3873 15.9054C11.2309 16.2109 10.1018 16.3636 9 16.3636C7.29818 16.3636 5.68908 16.0663 4.17273 15.4718C2.65636 14.8773 1.29818 14.04 0.0981818 12.96C0.0327273 12.9054 0 12.8509 0 12.7963C0 12.7636 0.0108982 12.7309 0.0327273 12.6982ZM4.95818 8.03454C4.95818 7.28181 5.14363 6.63818 5.51455 6.10363C5.88544 5.56908 6.39272 5.16545 7.03636 4.89272C7.62545 4.64182 8.3509 4.46182 9.21273 4.35272C9.50727 4.31999 9.98727 4.27635 10.6527 4.22181V3.94363C10.6527 3.24545 10.5764 2.77637 10.4236 2.53636C10.1945 2.20909 9.83455 2.04545 9.34364 2.04545H9.21273C8.85273 2.07818 8.54182 2.19272 8.28 2.38909C8.01818 2.58545 7.84908 2.85818 7.77273 3.20727C7.72908 3.42545 7.61999 3.5509 7.44545 3.58363L5.56364 3.35454C5.37817 3.3109 5.28545 3.21272 5.28545 3.06C5.28545 3.02727 5.2909 2.98909 5.30182 2.94545C5.48727 1.97455 5.94272 1.25455 6.66818 0.785454C7.39363 0.316358 8.24181 0.0545399 9.21273 0H9.62182C10.8655 0 11.8364 0.321823 12.5345 0.965453C12.6441 1.07504 12.7452 1.19264 12.8373 1.31727C12.93 1.44273 13.0036 1.55454 13.0582 1.65273C13.1127 1.75091 13.1618 1.89273 13.2055 2.07818C13.2491 2.26363 13.2818 2.39182 13.3036 2.46272C13.3254 2.53363 13.3418 2.68637 13.3527 2.92091C13.3636 3.15545 13.3691 3.29454 13.3691 3.33818V7.29817C13.3691 7.5818 13.41 7.84091 13.4918 8.07545C13.5736 8.30999 13.6527 8.47909 13.7291 8.58272C13.8054 8.68635 13.9309 8.85272 14.1055 9.08181C14.1709 9.17999 14.2036 9.26726 14.2036 9.34363C14.2036 9.43089 14.16 9.50726 14.0727 9.57272C13.1673 10.3582 12.6764 10.7836 12.6 10.8491C12.4691 10.9473 12.3109 10.9582 12.1255 10.8818C11.9727 10.7509 11.8391 10.6254 11.7245 10.5054C11.61 10.3854 11.5282 10.2982 11.4791 10.2436C11.43 10.1891 11.3509 10.0827 11.2418 9.92453C11.1327 9.76635 11.0564 9.65998 11.0127 9.60544C10.4018 10.2709 9.80182 10.6854 9.21273 10.8491C8.84181 10.9582 8.38363 11.0127 7.83818 11.0127C6.99817 11.0127 6.30818 10.7536 5.76818 10.2354C5.22818 9.71726 4.95818 8.98363 4.95818 8.03454ZM7.77273 7.70726C7.77273 8.13272 7.87909 8.47362 8.09182 8.72999C8.30455 8.98636 8.59091 9.11453 8.95091 9.11453C8.98364 9.11453 9.02999 9.10909 9.09 9.09817C9.14999 9.08726 9.1909 9.08181 9.21273 9.08181C9.67091 8.96181 10.0254 8.66727 10.2764 8.19817C10.3964 7.99089 10.4864 7.76454 10.5464 7.51908C10.6064 7.27363 10.6391 7.07453 10.6445 6.92181C10.65 6.76909 10.6527 6.51817 10.6527 6.16908V5.75999C10.02 5.75999 9.54 5.80364 9.21273 5.8909C8.25272 6.16363 7.77273 6.76909 7.77273 7.70726ZM14.6455 12.9763C14.6673 12.9327 14.7 12.8891 14.7436 12.8454C15.0164 12.66 15.2782 12.5345 15.5291 12.4691C15.9436 12.36 16.3473 12.3 16.74 12.2891C16.8491 12.2782 16.9527 12.2836 17.0509 12.3054C17.5418 12.3491 17.8364 12.4309 17.9345 12.5509C17.9782 12.6163 18 12.7145 18 12.8454V12.96C18 13.3418 17.8964 13.7918 17.6891 14.31C17.4818 14.8282 17.1927 15.2454 16.8218 15.5618C16.7673 15.6054 16.7182 15.6273 16.6745 15.6273C16.6527 15.6273 16.6309 15.6218 16.6091 15.6109C16.5436 15.5782 16.5273 15.5182 16.56 15.4309C16.9636 14.4818 17.1655 13.8218 17.1655 13.4509C17.1655 13.3309 17.1436 13.2436 17.1 13.1891C16.9909 13.0582 16.6854 12.9927 16.1836 12.9927C15.9982 12.9927 15.78 13.0036 15.5291 13.0254C15.2564 13.0582 15.0055 13.0909 14.7764 13.1236C14.7109 13.1236 14.6673 13.1127 14.6455 13.0909C14.6236 13.0691 14.6182 13.0473 14.6291 13.0254C14.6291 13.0145 14.6345 12.9982 14.6455 12.9763Z" fill="white"/>
</svg>
