<svg width="18" height="17" viewBox="0 0 18 17" fill="none" xmlns="http://www.w3.org/2000/svg">
	<path d="M17.4103 5.34688C17.4103 5.34688 16.6565 4.98861 15.8725 5.22108C15.2868 5.39418 14.6447 5.83899 14.2794 6.76285C13.575 8.53507 14.1848 11.6256 13.9463 11.6256C13.7078 11.6256 12.9571 8.77761 11.9527 5.81182C10.9483 2.84604 10.0798 -0.234469 8.51191 0.0141049C7.1211 0.233494 7.55283 3.74574 8.09728 7.03557C8.59041 10.0175 9.16102 12.8091 8.83495 12.8091C8.25226 12.8101 6.34015 4.56795 4.38074 4.88093C2.42133 5.19391 4.94532 14.2754 4.41496 14.2925C3.9792 14.3066 2.91043 8.76452 1.32439 9.01914C0.122778 9.21236 1.19356 13.5237 1.24287 14.7263C1.25495 15.0282 1.34854 15.5948 0.896679 15.5948H0V16.4331H1.4683C1.77021 16.418 2.00872 16.3023 2.12949 16.0054C2.53707 14.999 1.46629 10.7239 1.71687 10.6927C1.88896 10.6716 2.26032 11.9728 2.7786 13.4452C3.29688 14.9175 3.81617 16.4411 4.8004 16.4411C6.92284 16.4411 4.75813 8.10032 5.1788 8.10032C5.40121 8.10032 6.00805 9.79505 6.67528 11.6538C7.49145 13.9252 8.48675 16.4442 9.68836 16.4442C11.1224 16.4442 10.6555 13.1906 10.2117 10.0728C9.82724 7.37472 9.37638 4.83967 9.61691 4.83967C10.1583 4.83967 12.2023 16.4401 14.6568 16.4401C15.8866 16.4401 15.9007 14.0148 15.9007 11.4002C15.9007 9.56358 15.7477 7.88999 16.899 7.48744C17.4465 7.29622 18 7.63537 18 7.63537L17.4103 5.34688Z" fill="white"/>
</svg>
