<svg width="18" height="18" viewBox="0 0 18 18" fill="none" xmlns="http://www.w3.org/2000/svg">
	<path fill-rule="evenodd" clip-rule="evenodd" d="M5.12258 2.41233L4.35669 0.11465L6.53503 1.49045L8.59873 0L10.8917 1.71975L12.8408 0.573248L12.0645 2.408C15.0874 3.66977 17.1975 6.53155 17.1975 9.85987C17.1975 14.3555 13.3477 18 8.59873 18C3.84978 18 0 14.3555 0 9.85987C0 6.53535 2.10527 3.67631 5.12258 2.41233ZM14.7855 9.91629C14.7855 7.64129 13.1116 5.32762 11.0346 4.54957L11.4368 3.47593C13.9458 4.41584 15.932 7.14676 15.932 9.91629H14.7855ZM12.7218 9.9163C12.7218 8.59701 11.9401 7.17822 10.3927 6.35296L10.9322 5.34134C12.8244 6.35048 13.8683 8.14188 13.8683 9.9163H12.7218Z" fill="white"/>
</svg>
