<svg width="18" height="18" viewBox="0 0 18 18" fill="none" xmlns="http://www.w3.org/2000/svg">
	<path d="M10.1952 9.69263C10.3565 9.69263 10.4918 9.70529 10.6445 9.73482C11.4451 9.88952 12.1018 10.4577 12.3696 11.2017C12.4474 11.4407 12.5496 11.7994 12.6144 12.0455L12.6994 12.3703L13.0421 12.3633C15.7694 12.3071 18 10.1399 18 7.45371C18 3.38511 14.5253 0 9.216 0C7.02576 0.0070318 4.94928 0.784749 3.3768 2.03641C1.31616 3.68607 0 6.19361 0 9.0007C0.00144 9.72076 0.09072 10.445 0.25632 11.1145C0.86112 13.5657 2.4912 15.6261 4.67856 16.8355C6.00192 17.564 7.58448 17.9958 9.216 18C9.61632 18 10.0238 17.9733 10.4098 17.9255C12.8102 17.6217 14.9198 16.4164 16.3728 14.6711L16.4678 14.5572L16.2835 13.9061L15.9278 13.9975C14.8248 14.283 13.6944 14.4307 12.5006 14.4293C11.5459 14.4293 10.6358 14.3336 9.73728 14.148C8.928 13.9891 8.26992 13.4139 8.01072 12.6629C7.9272 12.4266 7.88976 12.2072 7.8912 11.9442C7.88256 11.3578 8.08848 10.8754 8.46 10.4633C8.88336 9.99078 9.504 9.69263 10.1952 9.69263ZM9.216 0.843816C14.1293 0.843816 17.136 3.92656 17.136 7.45371C17.136 9.56184 15.4714 11.2931 13.3589 11.5012C13.3027 11.3057 13.2422 11.099 13.1904 10.9415C11.8526 6.84897 8.66736 3.68044 4.56912 2.21783C5.90112 1.33464 7.47216 0.83819 9.216 0.843816ZM0.864 9.0007C0.864 6.53817 1.98144 4.33018 3.74832 2.83382C7.10928 3.88577 9.864 6.13173 11.4725 9.1118C11.2637 9.0218 11.0434 8.95289 10.813 8.90788C9.87696 8.71802 8.8848 8.61255 7.88976 8.61255C5.40144 8.61677 3.0168 9.25666 0.97776 10.3564C0.90144 9.91624 0.864 9.46902 0.864 9.0007ZM9.56016 14.9749C10.5005 15.1676 11.4998 15.2731 12.5006 15.2731C13.2653 15.2731 14.0256 15.2112 14.7643 15.0973C13.5979 16.1113 12.1392 16.8088 10.5264 17.0577C9.91296 16.3546 9.38016 15.5951 8.9352 14.7837C9.13392 14.8666 9.34272 14.9313 9.56016 14.9749ZM9.49536 17.1534C9.4032 17.1562 9.3096 17.1576 9.216 17.1576C7.81488 17.1618 6.53904 16.8398 5.38128 16.2505C5.71392 14.8202 6.28128 13.494 7.0488 12.293C7.07472 12.5138 7.12512 12.7332 7.19136 12.9287C7.70544 14.4602 8.49888 15.9017 9.49536 17.1534ZM7.812 9.90499C6.31152 11.5476 5.17824 13.5897 4.60512 15.8033C2.9592 14.7372 1.72368 13.1171 1.17504 11.2157C3.1608 10.085 5.42304 9.45214 7.88976 9.45636C8.028 9.45636 8.1648 9.45777 8.3016 9.46199C8.12304 9.59278 7.95888 9.74045 7.812 9.90499Z" fill="white"/>
</svg>
