<svg width="18" height="17" viewBox="0 0 18 17" fill="none" xmlns="http://www.w3.org/2000/svg">
	<path fill-rule="evenodd" clip-rule="evenodd" d="M7.16229 1.7427C8.5474 0.911528 11.0133 2.65449 12.6689 5.63484V5.63432C14.3245 8.6152 14.5435 11.7058 13.1599 12.538C12.8562 12.7196 12.4999 12.693 12.1613 12.6171C11.9065 12.5603 11.6664 12.4565 11.4019 12.3422C11.0704 12.1988 10.7004 12.0389 10.2149 11.9342C8.84439 11.6387 7.25695 11.8291 5.88172 12.4803C6.07047 12.7259 6.26826 12.9645 6.47467 13.1955L6.53865 13.157C6.63848 13.0968 6.75601 13.0729 6.87141 13.0893C6.98682 13.1057 7.09304 13.1614 7.17217 13.247C7.27516 13.3546 7.38282 13.4633 7.48841 13.5658C7.51766 13.5948 7.53936 13.6306 7.5516 13.6699C7.56384 13.7093 7.56625 13.751 7.55863 13.7915C7.55239 13.8238 7.54458 13.8618 7.53418 13.9008C7.51026 13.9908 7.48165 14.0792 7.44784 14.1655C7.88527 14.5483 8.32478 14.8635 8.75233 15.1018C8.8086 15.1347 8.84946 15.1887 8.86595 15.2518C8.88243 15.3149 8.87318 15.382 8.84023 15.4383C8.8186 15.4751 8.78731 15.5053 8.74973 15.5257C8.40783 15.7079 8.06185 15.8823 7.71207 16.0489C7.59935 16.1026 7.47522 16.128 7.35047 16.1227C7.22573 16.1174 7.10416 16.0818 6.99637 16.0187C6.28431 15.5985 5.54312 14.9707 4.83574 14.1775C4.63653 13.9533 4.44616 13.7255 4.2896 13.5237C4.21822 13.433 4.11608 13.3715 4.00249 13.351C3.50108 13.236 2.7625 12.7086 2.29126 11.8608C1.66242 10.728 1.74876 9.45365 2.1295 9.22479L3.02204 8.6901C4.5169 7.79339 5.69188 6.27512 6.19432 4.69392C6.34945 4.20451 6.40087 3.79175 6.44697 3.42169C6.48371 3.1267 6.51708 2.85885 6.59691 2.60092C6.70353 2.25867 6.85957 1.92474 7.16229 1.7427ZM3.10318 9.52803C3.13174 9.7797 3.18754 10.0275 3.26962 10.2671C4.02902 9.78237 5.85416 8.56214 7.00781 7.30238C6.84449 6.91541 6.70405 6.51907 6.5865 6.1144C6.03724 7.1219 5.06928 8.25995 3.10318 9.52803ZM8.68783 8.02277C9.99753 10.3805 11.9506 11.7563 12.6112 11.361H12.6107C13.2712 10.9641 13.098 8.52105 11.7873 6.1633C10.4771 3.80554 8.50267 2.44176 7.86811 2.82301C7.23355 3.20375 7.37762 5.66449 8.68783 8.02277ZM14.3604 4.31579L15.9863 3.29997C16.0239 3.27658 16.0658 3.26101 16.1096 3.2542C16.1756 3.24407 16.2431 3.25408 16.3034 3.28294C16.3636 3.3118 16.4137 3.35816 16.4472 3.41596L16.6703 3.80294C16.6925 3.84133 16.7068 3.8838 16.7122 3.92783C16.7176 3.97185 16.7141 4.01652 16.7019 4.05915C16.6896 4.10179 16.6689 4.14152 16.641 4.17596C16.613 4.21041 16.5784 4.23886 16.5392 4.25961L14.8488 5.16412C14.7933 5.19625 14.7319 5.21711 14.6683 5.2255C14.5397 5.24189 14.4099 5.20672 14.3072 5.12768C14.2045 5.04864 14.1372 4.93215 14.1201 4.80367C14.1072 4.70768 14.1232 4.61003 14.166 4.52314C14.2087 4.43626 14.2764 4.36408 14.3604 4.31579ZM15.6815 7.76374L17.579 7.5016H17.5784C17.6223 7.49564 17.6669 7.49855 17.7096 7.51014C17.7523 7.52173 17.7922 7.54177 17.8271 7.56907C17.8619 7.59638 17.8909 7.63039 17.9123 7.6691C17.9338 7.70781 17.9472 7.75043 17.9519 7.79443L17.9982 8.23914C18.0028 8.28323 17.9986 8.32779 17.9857 8.37022C17.9665 8.43433 17.9281 8.49104 17.8758 8.53277C17.8235 8.5745 17.7597 8.59927 17.6929 8.60375L15.7814 8.73899C15.6521 8.75223 15.5228 8.71356 15.422 8.63147C15.3211 8.54939 15.2571 8.43062 15.2438 8.3013C15.2306 8.17197 15.2693 8.04268 15.3513 7.94187C15.4334 7.84106 15.5522 7.77698 15.6815 7.76374ZM13.717 0.796059L12.5415 2.31276V2.3138C12.5038 2.36583 12.4563 2.40992 12.4016 2.44357C12.3469 2.47721 12.2861 2.49975 12.2226 2.50989C12.1271 2.52491 12.0292 2.51131 11.9414 2.4708C11.8535 2.43029 11.7797 2.36468 11.729 2.28225C11.6784 2.19982 11.6533 2.10425 11.6569 2.00758C11.6606 1.91092 11.6927 1.81748 11.7493 1.73906L12.8203 0.145894C12.845 0.109127 12.8769 0.0777146 12.914 0.0535279C12.9512 0.0293413 12.9928 0.0128751 13.0364 0.00510985C13.0801 -0.00265535 13.1248 -0.00156071 13.168 0.00832863C13.2112 0.018218 13.252 0.0366996 13.2879 0.0626731L13.6494 0.324299C13.6855 0.350255 13.7161 0.383253 13.7392 0.421311C13.7623 0.459369 13.7774 0.501703 13.7837 0.545767C13.79 0.589831 13.7874 0.634718 13.7759 0.677729C13.7645 0.720741 13.7444 0.76099 13.717 0.796059ZM1.29524 9.90983C1.11059 10.4144 1.20837 11.323 1.71394 12.2V12.2005C2.22003 13.0795 2.95498 13.6142 3.48499 13.7063C3.63583 13.7328 3.73986 13.7318 3.84908 13.6912L3.0356 14.1619C2.24136 14.6212 1.07106 14.0771 0.420896 12.9479C-0.228748 11.8192 -0.1138 10.5314 0.678881 10.0726L1.46792 9.61596C1.4029 9.67526 1.34829 9.76472 1.29524 9.90983ZM9.15859 6.11652L10.1442 5.89442C10.2094 5.87967 10.2775 5.88442 10.3401 5.9081C10.4026 5.93178 10.4568 5.97333 10.4958 6.02757C10.8617 6.54066 11.1773 7.08776 11.4383 7.66131C11.4659 7.72246 11.4748 7.79037 11.4641 7.85658C11.4534 7.92279 11.4234 7.98439 11.378 8.03372L10.6904 8.78219C10.0411 7.98086 9.52399 7.08097 9.15859 6.11652Z" fill="white"/>
</svg>
