<svg width="18" height="18" viewBox="0 0 18 18" fill="none" xmlns="http://www.w3.org/2000/svg">
	<path fill-rule="evenodd" clip-rule="evenodd" d="M10.3041 17.9081C9.80259 17.9683 9.27178 18 8.71138 18C4.38554 18 0 14.4197 0 8.95186C0 3.48396 4.81928 0 8.71138 0C13.4411 0 15.8554 2.79518 17.1807 5.3012L14.5783 6.6506C13.759 4.84337 11.6795 3.21783 8.71138 3.21783C6.15347 3.21783 3.10843 5.61446 3.10843 9.06024C3.10843 12.7136 5.85542 14.7952 8.53012 14.9398C10.1422 15.0269 11.1083 14.707 12.0241 14.2913C12.7073 15.8548 11.9983 17.7049 10.3041 17.9081ZM8.12245 12.3023C8.30644 12.1183 8.39843 11.8949 8.39843 11.632C8.39843 11.3691 8.30644 11.1457 8.12245 10.9617C7.93847 10.7777 7.71506 10.6857 7.45222 10.6857C7.18938 10.6857 6.96597 10.7777 6.78199 10.9617C6.598 11.1457 6.50601 11.3691 6.50601 11.632C6.50601 11.8949 6.598 12.1183 6.78199 12.3023C6.96597 12.4863 7.18938 12.5783 7.45222 12.5783C7.71506 12.5783 7.93847 12.4863 8.12245 12.3023ZM10.8379 12.4748C10.9003 12.4091 10.9282 12.3302 10.9217 12.2382C10.8789 11.7125 10.7467 11.2097 10.5249 10.73C10.3032 10.2503 10.005 9.82475 9.63047 9.45345C9.25922 9.07886 8.83375 8.78067 8.35407 8.55887C7.8744 8.33708 7.37173 8.20482 6.84605 8.1621H6.82141C6.73599 8.1621 6.66536 8.19003 6.6095 8.24589C6.54051 8.30504 6.50601 8.38226 6.50601 8.47755V9.14294C6.50601 9.22508 6.53312 9.29573 6.58733 9.35488C6.64154 9.41402 6.70971 9.44688 6.79184 9.45345C7.54421 9.52574 8.18734 9.82886 8.72122 10.3628C9.25511 10.8968 9.55819 11.54 9.63047 12.2924C9.63704 12.3746 9.6699 12.4428 9.72903 12.497C9.78817 12.5512 9.85881 12.5783 9.94095 12.5783H10.6062C10.7015 12.5783 10.7787 12.5438 10.8379 12.4748ZM13.3562 12.4797C13.4219 12.414 13.4514 12.3368 13.4449 12.2481C13.4022 11.3872 13.205 10.5633 12.8535 9.77629C12.502 8.98932 12.019 8.29025 11.4046 7.67908C10.7935 7.06462 10.0945 6.5816 9.30768 6.23001C8.52081 5.87842 7.69699 5.68127 6.8362 5.63856H6.82141C6.73599 5.63856 6.66371 5.66813 6.60457 5.72727C6.53887 5.78642 6.50601 5.86199 6.50601 5.954V6.65882C6.50601 6.74097 6.53476 6.81243 6.59225 6.87322C6.64975 6.93401 6.71956 6.96605 6.8017 6.96933C7.50807 7.01205 8.17912 7.17963 8.81486 7.47207C9.45059 7.76451 10.0025 8.14485 10.4707 8.61309C10.9389 9.08133 11.3192 9.63335 11.6116 10.2692C11.904 10.905 12.0699 11.5761 12.1093 12.2826C12.1126 12.3647 12.1447 12.4346 12.2054 12.4921C12.2662 12.5496 12.3393 12.5783 12.4247 12.5783H13.1295C13.2215 12.5783 13.297 12.5455 13.3562 12.4797Z" fill="white"/>
</svg>
