<?xml version="1.0" encoding="iso-8859-1"?>
<!-- Generator: Adobe Illustrator 16.0.0, SVG Export Plug-In . SVG Version: 6.00 Build 0)  -->
<!DOCTYPE svg PUBLIC "-//W3C//DTD SVG 1.1//EN" "http://www.w3.org/Graphics/SVG/1.1/DTD/svg11.dtd">
<svg version="1.1" id="Capa_1" xmlns="http://www.w3.org/2000/svg" xmlns:xlink="http://www.w3.org/1999/xlink" x="0px" y="0px"
	 width="97.848px" height="97.848px" viewBox="0 0 97.848 97.848" style="enable-background:new 0 0 97.848 97.848;"
	 xml:space="preserve">
<g>
	<g>
		<rect y="70.818" width="17.838" height="5.406"/>
		<rect y="63.791" width="17.838" height="5.408"/>
		<rect y="56.764" width="17.838" height="5.408"/>
		<rect y="49.736" width="17.838" height="5.405"/>
		<rect y="42.709" width="17.838" height="5.404"/>
		<rect x="20.001" y="70.818" width="17.84" height="5.406"/>
		<rect x="20.001" y="63.791" width="17.84" height="5.408"/>
		<rect x="20.001" y="56.764" width="17.84" height="5.408"/>
		<rect x="40.004" y="70.818" width="17.84" height="5.406"/>
		<rect x="40.004" y="63.791" width="17.84" height="5.408"/>
		<rect x="40.004" y="56.764" width="17.84" height="5.408"/>
		<rect x="40.004" y="49.736" width="17.84" height="5.405"/>
		<rect x="40.004" y="42.709" width="17.84" height="5.404"/>
		<rect x="40.004" y="35.68" width="17.84" height="5.406"/>
		<rect x="40.004" y="28.653" width="17.84" height="5.407"/>
		<rect x="60.005" y="70.818" width="17.841" height="5.406"/>
		<rect x="60.005" y="63.791" width="17.841" height="5.408"/>
		<rect x="60.005" y="56.764" width="17.841" height="5.408"/>
		<rect x="60.005" y="49.736" width="17.841" height="5.405"/>
		<rect x="60.005" y="42.709" width="17.841" height="5.404"/>
		<rect x="80.008" y="70.818" width="17.84" height="5.406"/>
		<rect x="80.008" y="63.791" width="17.84" height="5.408"/>
		<rect x="80.008" y="56.762" width="17.84" height="5.406"/>
		<rect x="80.008" y="49.736" width="17.84" height="5.406"/>
		<rect x="80.008" y="42.707" width="17.84" height="5.407"/>
		<rect x="80.008" y="35.681" width="17.84" height="5.404"/>
		<rect x="80.008" y="28.652" width="17.84" height="5.404"/>
		<rect x="80.008" y="21.623" width="17.84" height="5.406"/>
	</g>
</g>
<g>
</g>
<g>
</g>
<g>
</g>
<g>
</g>
<g>
</g>
<g>
</g>
<g>
</g>
<g>
</g>
<g>
</g>
<g>
</g>
<g>
</g>
<g>
</g>
<g>
</g>
<g>
</g>
<g>
</g>
</svg>
