<svg width="18" height="18" viewBox="0 0 18 18" fill="none" xmlns="http://www.w3.org/2000/svg">
	<path fill-rule="evenodd" clip-rule="evenodd" d="M18 9C18 13.9706 13.9706 18 9 18C4.02944 18 0 13.9706 0 9C0 4.02944 4.02944 0 9 0C13.9706 0 18 4.02944 18 9ZM14.5837 11.2592C14.7857 10.5062 14.9143 9.75312 14.9143 9.147C14.9143 8.44904 14.8775 7.93475 14.7857 7.42047C14.5102 6.06128 13.9592 4.8123 13.0775 3.71026C12.8939 3.48985 12.7102 3.28781 12.5265 3.10414C12.4163 3.0123 12.3245 3.0123 12.2143 3.10414C12.0171 3.27941 11.833 3.46121 11.658 3.63396L11.658 3.63402L11.658 3.63403L11.6579 3.63407C11.5396 3.75093 11.4254 3.86365 11.3143 3.9674C11.2775 4.00414 11.2592 4.04087 11.2408 4.07761C11.2224 4.13271 11.2592 4.18781 11.2959 4.24291C11.351 4.31638 11.4245 4.38985 11.4979 4.46332L11.4979 4.46332C12.1592 5.19802 12.6367 6.04291 12.9306 6.97965C13.2245 7.89802 13.2979 8.85312 13.151 9.80822C13.0959 10.3409 12.949 10.8552 12.7653 11.3694C12.6 11.8103 12.3979 12.2327 12.1408 12.6368C11.8837 13.0409 11.5898 13.4082 11.2592 13.7388C11.149 13.8307 11.149 13.9409 11.2592 14.0327C11.351 14.1062 11.4428 14.198 11.5347 14.2899C11.7551 14.4919 11.9571 14.6939 12.1592 14.896C12.251 14.9878 12.3428 14.9878 12.4347 14.9143L12.5449 14.8041C13.1326 14.198 13.6286 13.5184 13.9959 12.7654C14.2347 12.2694 14.4367 11.7919 14.5837 11.2592ZM11.3877 9.00006C11.3877 9.82659 11.1857 10.6348 10.8183 11.4062C10.5796 11.9205 10.249 12.398 9.84488 12.8021L9.80814 12.8388C9.71631 12.9307 9.62447 12.9307 9.53263 12.8388C9.2204 12.545 8.92654 12.2511 8.61431 11.9389L8.61427 11.9388C8.5408 11.8654 8.52243 11.7735 8.5959 11.6817L8.92651 11.296C9.33059 10.7266 9.56937 10.1021 9.6612 9.42251C9.73467 8.88985 9.69794 8.37557 9.53263 7.86128C9.36733 7.27353 9.05508 6.75924 8.63263 6.30006C8.52243 6.18985 8.5408 6.09802 8.63263 5.98781C8.77957 5.85006 8.92651 5.70771 9.07345 5.56536C9.22039 5.42302 9.36733 5.28067 9.51427 5.14291L9.51427 5.14291C9.53264 5.12454 9.551 5.10618 9.56937 5.10618C9.6612 5.05108 9.73467 5.05108 9.80814 5.12455C9.95508 5.25312 10.0837 5.41842 10.1939 5.56536C10.6898 6.18985 11.002 6.90618 11.2041 7.65924C11.3326 8.10006 11.3877 8.54087 11.3877 9.00006ZM7.53058 7.87966C7.65915 8.17354 7.71426 8.48578 7.73262 8.79803C7.76936 9.27558 7.71426 9.75313 7.53058 10.2123C7.2367 10.9837 6.64895 11.4613 5.82242 11.645C5.56528 11.7001 5.30813 11.7552 5.01426 11.7552H3.43466C3.34283 11.7552 3.30609 11.7184 3.30609 11.645V9.03681V6.52048C3.30609 6.39191 3.34283 6.35517 3.45303 6.35517H5.17956C5.63875 6.35517 6.09793 6.44701 6.50201 6.68578C6.97956 6.9613 7.32854 7.36538 7.53058 7.87966ZM4.35303 7.47558V9.01844V10.4144C4.35303 10.5246 4.40813 10.5613 4.53671 10.5613H5.06936C5.25303 10.5613 5.4367 10.5246 5.62038 10.4511C5.93262 10.3225 6.13466 10.0837 6.26324 9.7715C6.42854 9.33068 6.42854 8.79803 6.29997 8.33885C6.13466 7.78783 5.73058 7.34701 5.14283 7.34701H4.51834C4.40813 7.34701 4.35303 7.36538 4.35303 7.47558Z" fill="white"/>
</svg>
