<svg width="18" height="18" viewBox="0 0 18 18" fill="none" xmlns="http://www.w3.org/2000/svg">
	<path d="M9 0C4.02823 0 0 4.02823 0 9C0 13.9718 4.02823 18 9 18C13.9718 18 18 13.9718 18 9C18 4.02823 13.9718 0 9 0ZM13.1008 8.38306C13.4637 8.74597 13.4637 9.29032 13.1008 9.61694L8.20161 14.5524C7.875 14.879 7.29435 14.879 6.96774 14.5524L6.35081 13.9355C6.02419 13.6089 6.02419 13.0282 6.35081 12.7016L10.0524 9L6.35081 5.33468C6.02419 5.00806 6.02419 4.42742 6.35081 4.10081L6.96774 3.48387C7.29435 3.15726 7.875 3.15726 8.20161 3.48387L13.1008 8.38306Z" fill="white"/>
</svg>
