<svg width="18" height="18" viewBox="0 0 18 18" fill="none" xmlns="http://www.w3.org/2000/svg">
	<path fill-rule="evenodd" clip-rule="evenodd" d="M9 3.4773C8.37868 3.4773 7.875 2.97359 7.875 2.3523V1.125C7.875 0.503684 8.37868 0 9 0C9.62132 0 10.125 0.503684 10.125 1.125V2.3523C10.125 2.97359 9.62132 3.4773 9 3.4773ZM9 14.5227C8.37868 14.5227 7.875 15.0264 7.875 15.6477V16.875C7.875 17.4963 8.37868 18 9 18C9.62132 18 10.125 17.4963 10.125 16.875V15.6477C10.125 15.0264 9.62132 14.5227 9 14.5227ZM6.13623 13.2955V12.0682V12.0682C6.13623 11.4469 5.63255 10.9432 5.01123 10.9432C4.38991 10.9432 3.88623 11.4469 3.88623 12.0682V13.2955C3.88623 13.9168 4.38988 14.4205 5.01123 14.4205C5.63258 14.4205 6.13623 13.9168 6.13623 13.2955ZM6.13623 8.7188V4.70459C6.13623 4.08327 5.63255 3.57959 5.01123 3.57959C4.38991 3.57959 3.88623 4.08327 3.88623 4.70459V8.7188H3.88655C3.90012 9.32831 4.39846 9.81824 5.01123 9.81824C5.624 9.81824 6.12238 9.32831 6.13595 8.7188H6.13623ZM2.25 8.38625V9.61358C2.25 10.2349 1.74632 10.7386 1.125 10.7386C0.503684 10.7386 0 10.2349 0 9.61358V8.38625C0 7.76492 0.503684 7.26123 1.125 7.26123C1.74632 7.26123 2.25 7.76492 2.25 8.38625ZM15.7505 8.41821C15.7502 8.40756 15.75 8.3969 15.75 8.38625C15.75 7.76492 16.2537 7.26123 16.875 7.26123C17.4963 7.26123 18 7.76492 18 8.38625C18 8.39694 17.9999 8.40763 17.9995 8.41824H18V9.64553H17.9995C17.9827 10.2521 17.4856 10.7386 16.875 10.7386C16.2644 10.7386 15.7674 10.2521 15.7505 9.64553H15.75V8.41821H15.7505ZM11.8638 5.93188C11.8638 6.5532 12.3674 7.05689 12.9888 7.05689C13.6101 7.05689 14.1138 6.5532 14.1138 5.93188V4.7046C14.1138 4.08328 13.6101 3.57959 12.9888 3.57959C12.3675 3.57959 11.8638 4.08328 11.8638 4.7046V5.93188ZM11.8638 9.30688C11.8638 8.68557 12.3674 8.18188 12.9888 8.18188C13.6101 8.18188 14.1138 8.68557 14.1138 9.30688V13.2955C14.1138 13.9169 13.6101 14.4205 12.9888 14.4205C12.3675 14.4205 11.8638 13.9169 11.8638 13.2955V9.30688ZM10.125 12.2727V5.72729C10.125 5.10594 9.62132 4.60229 9 4.60229C8.37868 4.60229 7.875 5.10594 7.875 5.72729V12.2727C7.875 12.894 8.37868 13.3977 9 13.3977C9.62132 13.3977 10.125 12.894 10.125 12.2727Z" fill="white"/>
</svg>
