<svg width="12" height="18" viewBox="0 0 12 18" fill="none" xmlns="http://www.w3.org/2000/svg">
	<path d="M3.77901 10.7403C3.85359 9.59669 4.62431 8.75138 5.81768 8.75138C7.18508 8.75138 8.17207 9.67127 8.17207 10.8895V17C8.17207 17.5523 8.61978 18 9.17207 18H10.9511C11.5034 18 11.9511 17.5523 11.9511 17V10.2431C11.9511 7.53315 10.1685 5.32044 6.93646 5.32044C5.84254 5.32044 4.54972 5.66851 3.77901 6.43923V1C3.77901 0.447716 3.33129 0 2.77901 0H1C0.447715 0 0 0.447715 0 1V17C0 17.5523 0.447715 18 1 18H2.77901C3.33129 18 3.77901 17.5523 3.77901 17V10.7403Z" fill="white"/>
</svg>
