<svg width="18" height="18" viewBox="0 0 18 18" fill="none" xmlns="http://www.w3.org/2000/svg">
<path fill-rule="evenodd" clip-rule="evenodd" d="M9 18C4.01243 18 0 13.9876 0 9C0 4.01243 4.01243 0 9 0C13.9876 0 18 4.01243 18 9C18 13.9876 13.9876 18 9 18ZM9 14.4376L9.675 13.7626L9 11.1751L8.325 13.7626L9 14.4376ZM8.13758 14.4L7.80008 15.6751L8.58758 14.8876L8.13758 14.4ZM9.86243 14.4L9.41243 14.85L10.1999 15.6375L9.86243 14.4ZM10.5001 16.7249L9 15.2251L7.49993 16.7249C7.9875 16.8001 8.47508 16.875 9 16.875C9.52493 16.875 10.0125 16.8374 10.5001 16.7249ZM9 1.125C4.65007 1.125 1.125 4.65007 1.125 9C1.125 12.4499 3.33743 15.3749 6.4125 16.425L8.1 10.1626C7.72493 9.9 7.49993 9.45 7.49993 8.96243C7.49993 8.13758 8.17493 7.46258 9 7.46258C9.82508 7.46258 10.5001 8.13758 10.5001 8.96243C10.5001 9.45 10.2751 9.86242 9.9 10.1626L11.5875 16.425C14.6626 15.3749 16.875 12.4499 16.875 9C16.875 4.65007 13.3499 1.125 9 1.125ZM14.1374 12.8999C13.95 13.1249 13.6125 13.2001 13.3499 13.0124C13.0876 12.825 13.05 12.4875 13.2374 12.2625C13.2374 12.2625 14.2499 10.9125 14.2499 9C14.2499 7.0875 13.2374 5.7375 13.2374 5.7375C13.05 5.5125 13.0876 5.175 13.3499 4.98758C13.6125 4.79993 13.95 4.87508 14.1374 5.10008C14.2126 5.175 15.3749 6.71243 15.3749 9C15.3749 11.2876 14.2126 12.825 14.1374 12.8999ZM11.4001 11.4374C11.1751 11.2124 11.2124 10.8 11.4374 10.575C11.4374 10.575 11.9999 9.97493 11.9999 9C11.9999 8.02507 11.4374 7.46258 11.4374 7.425C11.2124 7.2 11.2124 6.82493 11.4001 6.56258C11.6251 6.3 11.9626 6.3 12.1876 6.525C12.2249 6.56258 13.1249 7.49993 13.1249 9C13.1249 10.5001 12.2249 11.4374 12.1876 11.475C11.9626 11.7 11.6251 11.6624 11.4001 11.4374ZM6.59993 11.4374C6.37493 11.6624 6.03743 11.7 5.81243 11.475C5.77507 11.4001 4.87508 10.5001 4.87508 9C4.87508 7.49993 5.77507 6.59993 5.81243 6.525C6.03743 6.3 6.4125 6.3 6.59993 6.56258C6.82492 6.78758 6.78758 7.2 6.56258 7.425C6.56258 7.46258 6.00008 8.02507 6.00008 9C6.00008 9.97493 6.56258 10.575 6.56258 10.575C6.78758 10.8 6.82492 11.1751 6.59993 11.4374ZM4.65008 13.0124C4.3875 13.2001 4.05 13.1249 3.86258 12.8999C3.78743 12.825 2.62508 11.2876 2.62508 9C2.62508 6.71243 3.78743 5.175 3.86258 5.10008C4.05 4.87508 4.3875 4.79993 4.65008 4.98758C4.91243 5.175 4.95 5.5125 4.76258 5.7375C4.76258 5.7375 3.75008 7.0875 3.75008 9C3.75008 10.9125 4.76258 12.2625 4.76258 12.2625C4.95 12.4875 4.87508 12.825 4.65008 13.0124Z" fill="white"/>
</svg>
