<svg width="17" height="11" viewBox="0 0 17 11" fill="none" xmlns="http://www.w3.org/2000/svg">
<path fill-rule="evenodd" clip-rule="evenodd" d="M13.8469 4.37624C11.21 0.706924 6.26147 -0.0448761 2.76048 2.71552C2.43507 2.96237 2.10965 3.31023 1.85156 3.60197C3.28786 1.41386 5.7453 0 8.50569 0C11.2885 0 13.746 1.43629 15.1598 3.60197L13.8694 4.39868L13.8469 4.37624ZM3.93872 4.87003C4.90374 3.37761 6.58691 2.4126 8.50572 2.4126C10.4133 2.4126 12.1077 3.41127 13.0952 4.8588L11.8496 5.6555C9.97569 3.15318 6.5308 2.70435 4.1407 4.69049C4.06215 4.7466 4.01727 4.79147 3.93872 4.87003ZM17 3.75903L8.50562 9.0554L0 3.75903V5.19534L8.50562 10.5141L17 5.19534V3.75903ZM8.50548 4.87C7.46191 4.87 6.54178 5.39738 5.99194 6.16043C6.44079 5.83501 6.95696 5.6667 7.5068 5.6667C8.42693 5.6667 9.24607 6.13799 9.79591 6.93469L10.9853 6.19409C10.4692 5.37495 9.54904 4.87 8.50548 4.87Z" fill="white"/>
</svg>
