<svg width="19" height="18" viewBox="0 0 19 18" fill="none" xmlns="http://www.w3.org/2000/svg">
<path fill-rule="evenodd" clip-rule="evenodd" d="M18.0039 9C18.0039 13.9707 13.9737 18 9.00195 18C4.03021 18 0 13.9707 0 9C0 4.02933 4.03021 0 9.00195 0C13.9737 0 18.0039 4.02933 18.0039 9ZM2.00049 9C2.00049 5.134 5.13517 2 9.00201 2C12.8688 2 16.0035 5.134 16.0035 9H14.2531C14.2531 6.1005 11.9021 3.75 9.00201 3.75C6.10188 3.75 3.75087 6.1005 3.75087 9C3.75087 11.8995 6.10188 14.25 9.00201 14.25V16C5.13517 16 2.00049 12.866 2.00049 9ZM9.00201 13.2C6.6819 13.2 4.8011 11.3196 4.8011 9C4.8011 6.6804 6.6819 4.8 9.00201 4.8C11.3221 4.8 13.2029 6.6804 13.2029 9H11.6753C11.6753 7.5239 10.4784 6.32727 9.00201 6.32727C7.52559 6.32727 6.32869 7.5239 6.32869 9C6.32869 10.4761 7.52559 11.6727 9.00201 11.6727V13.2Z" fill="white"/>
</svg>
