<svg width="18" height="19" viewBox="0 0 18 19" fill="none" xmlns="http://www.w3.org/2000/svg">
<path d="M10.5117 17.4414C10.7929 16.4219 11.25 13.9258 11.25 12.7656C11.25 11.5352 10.125 11.2188 8.99995 11.2188C7.8398 11.2188 6.74995 11.5352 6.74995 12.7656C6.74995 13.9258 7.17183 16.457 7.45308 17.4414C7.62886 18.1094 8.33198 18.25 8.99995 18.25C9.63276 18.25 10.3359 18.1094 10.5117 17.4414ZM5.06245 8.40626C5.06245 6.26173 6.74995 4.53907 8.89448 4.50391C11.0742 4.4336 12.9023 6.22657 12.9375 8.40626C12.9375 9.39063 12.5859 10.3047 11.9179 11.043C11.8828 11.1133 11.8476 11.2188 11.9179 11.2891C12.0937 11.5703 12.2343 11.8516 12.3046 12.2031C12.3398 12.3438 12.5156 12.4141 12.6562 12.3086C13.6757 11.3242 14.3437 9.95313 14.3437 8.40626C14.3085 5.45313 11.8828 3.02735 8.89448 3.09766C5.97651 3.13282 3.6562 5.48829 3.6562 8.40626C3.6562 9.95313 4.28901 11.3242 5.30855 12.3086C5.44917 12.4141 5.62495 12.3438 5.66011 12.2031C5.73042 11.8516 5.87105 11.5703 6.04683 11.2891C6.11714 11.2188 6.08198 11.1133 6.04683 11.043C5.37886 10.3047 5.06245 9.39063 5.06245 8.40626ZM8.99995 0.285164C4.42964 0.250007 0.738233 3.90626 0.703077 8.47657C0.667921 11.9219 2.74214 14.9102 5.69526 16.1758C5.83589 16.2461 6.01167 16.1055 5.97651 15.9649C5.94136 15.6133 5.83589 15.0859 5.80073 14.7695C5.80073 14.6992 5.73042 14.6289 5.69526 14.6289C3.58589 13.4688 2.10933 11.2188 2.10933 8.54688C2.10933 4.75001 5.16792 1.65626 8.99995 1.65626C12.7968 1.65626 15.8906 4.75001 15.8906 8.54688C15.8906 11.1836 14.414 13.4688 12.2695 14.6289C12.2343 14.6289 12.164 14.6992 12.164 14.7695C12.1289 15.0859 12.0234 15.6133 11.9882 15.9649C11.9531 16.1055 12.1289 16.2461 12.2695 16.1758C15.2226 14.9102 17.2968 11.9922 17.2968 8.54688C17.2968 3.97657 13.5703 0.285164 8.99995 0.285164ZM8.99995 5.87501C7.73433 5.87501 6.74995 6.89454 6.74995 8.12501C6.74995 9.39063 7.73433 10.375 8.99995 10.375C10.2304 10.375 11.25 9.39063 11.25 8.12501C11.25 6.89454 10.2304 5.87501 8.99995 5.87501Z" fill="white"/>
</svg>
