<svg width="17" height="18" viewBox="0 0 17 18" fill="none" xmlns="http://www.w3.org/2000/svg">
	<path d="M8.294 5.93408C7.50733 5.93317 6.75314 5.62029 6.19684 5.06408C5.64054 4.50786 5.32756 3.75371 5.32653 2.96705C5.3251 2.57732 5.40107 2.19118 5.55004 1.83105C5.69901 1.47091 5.918 1.14393 6.19432 0.869094C6.46928 0.592719 6.79631 0.373607 7.15649 0.224431C7.51667 0.0752553 7.90286 -0.0010224 8.29271 1.03483e-05C9.07945 0.000922645 9.8337 0.313859 10.39 0.870169C10.9463 1.42648 11.2593 2.18074 11.2602 2.96748C11.2596 3.75402 10.9469 4.50819 10.3908 5.0644C9.83467 5.62061 9.08054 5.9334 8.294 5.93408ZM0 7.12159C0 6.96604 0.126248 6.83979 0.282226 6.83979H8.26901C9.70987 6.83979 10.8819 8.00747 10.8819 9.44316V11.763C10.8819 11.8002 10.8745 11.8371 10.8603 11.8715C10.846 11.9058 10.8251 11.9371 10.7988 11.9633C10.7725 11.9896 10.7412 12.0105 10.7068 12.0247C10.6724 12.0389 10.6356 12.0462 10.5983 12.0461C10.5936 12.0461 10.5876 12.0461 10.582 12.047L2.60294 12.0457C1.91273 12.0448 1.25106 11.7701 0.763088 11.282C0.275114 10.7938 0.000684019 10.1321 0 9.44187L0 7.12159ZM14.2332 6.8023H16.5216C16.6768 6.8023 16.8034 6.92941 16.8034 7.0841V9.40568C16.8028 10.0958 16.5283 10.7575 16.0403 11.2455C15.5523 11.7335 14.8906 12.0079 14.2005 12.0086L11.9181 12.0082C11.8805 12.0091 11.8432 12.0024 11.8082 11.9886C11.7732 11.9749 11.7413 11.9543 11.7144 11.928C11.6875 11.9018 11.666 11.8704 11.6514 11.8358C11.6367 11.8012 11.6291 11.764 11.629 11.7264V9.40611C11.6298 8.71571 11.9044 8.05382 12.3927 7.56567C12.8809 7.07752 13.5428 6.80299 14.2332 6.8023ZM10.5988 12.7941H5.98879C5.91401 12.7943 5.84236 12.8241 5.78948 12.877C5.7366 12.9299 5.7068 13.0016 5.70657 13.0763V17.7186C5.70657 17.8768 5.83411 17.9996 5.99612 17.9996L8.27806 18C8.96846 17.9993 9.63039 17.7248 10.1186 17.2366C10.6068 16.7485 10.8815 16.0866 10.8823 15.3962V13.0759C10.8817 13.001 10.8516 12.9294 10.7985 12.8767C10.7454 12.8239 10.6736 12.7942 10.5988 12.7941Z" fill="white"/>
</svg>
