<svg width="18" height="18" viewBox="0 0 18 18" fill="none" xmlns="http://www.w3.org/2000/svg">
<path d="M8.71875 0C3.90234 0 0 3.9375 0 8.71875C0 13.5352 3.90234 17.4375 8.71875 17.4375C13.5 17.4375 17.4375 13.5352 17.4375 8.71875C17.4375 3.9375 13.5 0 8.71875 0ZM12.2344 12.832C12.0938 12.832 11.9883 12.7969 11.8828 12.7266C9.66797 11.3906 7.13672 11.3555 4.60547 11.8477C4.46484 11.8828 4.28906 11.9531 4.18359 11.9531C3.83203 11.9531 3.62109 11.6719 3.62109 11.3906C3.62109 11.0391 3.83203 10.8633 4.11328 10.793C6.99609 10.1602 9.91406 10.2305 12.4453 11.707C12.6562 11.8477 12.7617 11.9883 12.7617 12.3047C12.7617 12.6211 12.5156 12.832 12.2344 12.832ZM13.1836 10.5469C13.0078 10.5469 12.8672 10.4414 12.7617 10.4062C10.5469 9.10547 7.27734 8.57812 4.35938 9.35156C4.18359 9.38672 4.11328 9.45703 3.9375 9.45703C3.58594 9.45703 3.26953 9.14062 3.26953 8.75391C3.26953 8.40234 3.44531 8.15625 3.79688 8.05078C4.78125 7.76953 5.80078 7.55859 7.24219 7.55859C9.52734 7.55859 11.7422 8.12109 13.4648 9.17578C13.7461 9.31641 13.8867 9.5625 13.8867 9.84375C13.8516 10.2305 13.5703 10.5469 13.1836 10.5469ZM14.2734 7.875C14.0977 7.875 13.9922 7.80469 13.8164 7.73438C11.3203 6.22266 6.85547 5.87109 3.9375 6.67969C3.83203 6.71484 3.65625 6.78516 3.48047 6.78516C3.02344 6.78516 2.67188 6.39844 2.67188 5.94141C2.67188 5.44922 2.98828 5.20312 3.30469 5.09766C4.53516 4.74609 5.90625 4.57031 7.41797 4.57031C9.98438 4.57031 12.6914 5.09766 14.625 6.25781C14.9062 6.39844 15.082 6.60938 15.082 7.03125C15.082 7.52344 14.6953 7.875 14.2734 7.875Z" fill="white"/>
</svg>
