<svg width="14" height="12" viewBox="0 0 14 12" fill="none" xmlns="http://www.w3.org/2000/svg">
<path d="M12.5508 2.90625C13.0977 2.49609 13.5898 2.00391 13.9727 1.42969C13.4805 1.64844 12.9062 1.8125 12.332 1.86719C12.9336 1.51172 13.3711 0.964844 13.5898 0.28125C13.043 0.609375 12.4141 0.855469 11.7852 0.992188C11.2383 0.417969 10.5 0.0898438 9.67969 0.0898438C8.09375 0.0898438 6.80859 1.375 6.80859 2.96094C6.80859 3.17969 6.83594 3.39844 6.89062 3.61719C4.51172 3.48047 2.37891 2.33203 0.957031 0.609375C0.710938 1.01953 0.574219 1.51172 0.574219 2.05859C0.574219 3.04297 1.06641 3.91797 1.85938 4.4375C1.39453 4.41016 0.929688 4.30078 0.546875 4.08203V4.10938C0.546875 5.50391 1.53125 6.65234 2.84375 6.92578C2.625 6.98047 2.35156 7.03516 2.10547 7.03516C1.91406 7.03516 1.75 7.00781 1.55859 6.98047C1.91406 8.12891 2.98047 8.94922 4.23828 8.97656C3.25391 9.74219 2.02344 10.207 0.683594 10.207C0.4375 10.207 0.21875 10.1797 0 10.1523C1.25781 10.9727 2.76172 11.4375 4.40234 11.4375C9.67969 11.4375 12.5508 7.08984 12.5508 3.28906C12.5508 3.15234 12.5508 3.04297 12.5508 2.90625Z" fill="#F4F1F1"/>
</svg>
