<svg width="16" height="18" viewBox="0 0 16 18" fill="none" xmlns="http://www.w3.org/2000/svg">
<path fill-rule="evenodd" clip-rule="evenodd" d="M8.50707 10.814C8.07264 10.8218 7.64571 10.7002 7.28069 10.4647C6.91566 10.2292 6.62906 9.89052 6.45739 9.49173C6.28573 9.09295 6.23676 8.65214 6.31675 8.22545C6.39673 7.79876 6.60203 7.40552 6.9065 7.09582C7.21097 6.78612 7.60083 6.57398 8.0264 6.48643C8.45198 6.39887 8.89401 6.43987 9.29618 6.60419C9.69835 6.76851 10.0425 7.04872 10.2847 7.40912C10.5269 7.76953 10.6562 8.1938 10.6562 8.62791C10.6613 9.20252 10.4378 9.75563 10.0348 10.1656C9.63174 10.5755 9.08221 10.8088 8.50707 10.814ZM15.5015 13.7963C14.7177 14.9076 13.6786 15.8148 12.4713 16.4419C11.2641 17.0689 9.92382 17.3975 8.56314 17.4C3.83387 17.4 0 13.5049 0 8.7C0 3.89508 3.83387 0 8.56314 0C9.92097 0.00244008 11.2585 0.329601 12.4638 0.954131C13.6692 1.57866 14.7074 2.48241 15.4917 3.58983L12.87 5.51047C12.3828 4.80692 11.7324 4.23164 10.9744 3.83375C10.2163 3.43585 9.37315 3.22717 8.51686 3.22552C5.56755 3.22552 3.1771 5.65418 3.1771 8.65015C3.1771 11.6461 5.56779 14.0749 8.51686 14.0749C9.36252 14.0734 10.1956 13.8699 10.9465 13.4814C11.6975 13.0929 12.3446 12.5307 12.8338 11.8415L15.5015 13.7963Z" fill="white"/>
</svg>
