<svg width="18" height="14" viewBox="0 0 18 14" fill="none" xmlns="http://www.w3.org/2000/svg">
	<path d="M13.1203 0C11.426 0 9.89444 0.894569 9.01343 2.22286C8.13242 0.908123 6.61437 0 4.90656 0C2.19575 0 0 2.19576 0 4.90657C0 6.62793 1.08433 7.86134 2.22286 9.01343L6.66858 13.2152C6.899 13.432 7.27851 13.2694 7.27851 12.9441V9.66403C7.27851 8.71525 8.0511 7.94267 8.99988 7.94267C9.94866 7.94267 10.7212 8.71525 10.7212 9.66403V12.9441C10.7212 13.2694 11.1007 13.432 11.3312 13.2152L15.7769 9.01343C16.9154 7.86134 17.9998 6.62793 17.9998 4.90657C18.0269 2.19576 15.8311 0 13.1203 0ZM4.55415 8.68814C4.48638 8.76947 4.39151 8.79657 4.29663 8.79657C4.2153 8.79657 4.13398 8.76946 4.06621 8.71525C2.60237 7.41406 1.8569 6.05866 1.8569 4.68971V4.67614C1.8569 3.49694 2.57527 2.15509 3.5376 1.54516C3.70025 1.45028 3.90356 1.49095 4.01199 1.6536C4.10687 1.81625 4.06621 2.01956 3.90356 2.12799C3.14454 2.60238 2.54816 3.72736 2.54816 4.67614V4.68971C2.54816 5.85535 3.21231 7.04811 4.52705 8.21375C4.67614 8.33574 4.68969 8.5526 4.55415 8.68814ZM6.74991 7.42761C6.68214 7.53605 6.5737 7.60382 6.45172 7.60382C6.3975 7.60382 6.34329 7.59026 6.28907 7.56315C5.29963 7.00744 4.62192 5.90957 4.62192 4.8388V4.82525C4.62192 3.8087 5.1912 2.87346 6.08576 2.39907C6.24841 2.31775 6.45172 2.37196 6.5466 2.54816C6.62792 2.71081 6.57371 2.91413 6.3975 3.009C5.7198 3.36141 5.28607 4.06622 5.28607 4.8388C5.28607 5.67915 5.81468 6.53304 6.60081 6.96677C6.77702 7.06165 6.84479 7.26497 6.74991 7.42761ZM9.01343 6.56015C8.20019 6.56015 7.53604 5.896 7.53604 5.08276C7.53604 4.26952 8.20019 3.60538 9.01343 3.60538C9.82667 3.60538 10.4908 4.26952 10.4908 5.08276C10.4908 5.896 9.82667 6.56015 9.01343 6.56015ZM11.7378 7.56315C11.6836 7.59026 11.6294 7.60382 11.5751 7.60382C11.4532 7.60382 11.3447 7.53605 11.277 7.42761C11.1821 7.26497 11.2498 7.06165 11.4125 6.96677C12.1986 6.51949 12.7272 5.66559 12.7272 4.8388C12.7272 4.06622 12.3071 3.37496 11.6158 3.009C11.4532 2.92768 11.3854 2.71081 11.4667 2.54816C11.548 2.38552 11.7649 2.31775 11.9275 2.39907C12.8357 2.87346 13.3914 3.8087 13.3914 4.82525V4.8388C13.4049 5.90957 12.7408 7.00744 11.7378 7.56315ZM16.1564 4.68971C16.1564 6.05866 15.4109 7.41406 13.9471 8.71525C13.8793 8.76946 13.798 8.79657 13.7167 8.79657C13.6218 8.79657 13.5269 8.75591 13.4592 8.68814C13.3372 8.5526 13.3507 8.33574 13.4863 8.21375C14.801 7.04811 15.4651 5.86891 15.4651 4.68971V4.67614C15.4651 3.72736 14.8688 2.60238 14.1097 2.12799C13.9471 2.03311 13.9064 1.81625 14.0013 1.6536C14.0962 1.49095 14.3131 1.45028 14.4757 1.54516C15.4245 2.14154 16.1564 3.48339 16.1564 4.67614V4.68971Z" fill="white"/>
</svg>
