<svg width="18" height="18" viewBox="0 0 18 18" fill="none" xmlns="http://www.w3.org/2000/svg">
	<path d="M8.97662 1.02857C4.58182 1.02857 0.981818 4.58182 0.981818 9.02338C0.981818 13.4182 4.58182 17.0182 8.97662 17.0182C13.4182 17.0182 16.9714 13.4649 16.9714 9.02338C16.9714 4.58182 13.4182 1.02857 8.97662 1.02857ZM12.7169 12.2494C12.5299 12.8571 12.0623 13.2312 11.4078 13.3714C10.8468 13.4649 10.3792 13.4649 9.91169 13.1377C9.3974 12.6701 9.35065 11.8753 9.86493 11.4078C10.239 11.0338 10.8 10.9403 11.6416 10.8C11.7818 10.7532 11.9221 10.7532 12.0156 10.613C12.1558 10.4727 12.1091 10.5195 12.1091 6.82597C12.1091 6.59221 11.9688 6.4987 11.6883 6.54546C11.5013 6.59221 7.43377 7.34026 7.43377 7.34026C7.2 7.43377 7.10649 7.48052 7.10649 7.76104C7.10649 13.1844 7.10649 12.9506 7.05974 13.2779C6.96623 13.6987 6.68571 14.026 6.35844 14.213C5.93766 14.4 5.23636 14.4935 4.86234 14.4468C3.88052 14.2597 3.50649 13.0909 4.20779 12.4364C4.58182 12.0623 5.14286 12.0156 5.98442 11.8286C6.12468 11.8286 6.26494 11.7818 6.35844 11.6883C6.59221 11.4078 6.40519 5.75065 6.45195 5.42338C6.4987 5.28312 6.54545 5.18961 6.63896 5.14286C6.73247 5.04935 6.91948 5.0026 6.91948 5.0026C11.6416 4.11429 12.2493 3.97403 12.3429 3.97403C12.5766 3.97403 12.7636 4.11429 12.7636 4.39481C12.7169 12.3896 12.7636 11.9688 12.7169 12.2494ZM8.97662 18C4.02078 18 0 13.9792 0 9.02338C0 4.06753 4.02078 0 8.97662 0C13.9325 0 18 4.06753 18 9.02338C18 13.9792 13.9325 18 8.97662 18Z" fill="white"/>
</svg>
