<svg width="8" height="18" viewBox="0 0 8 18" fill="none" xmlns="http://www.w3.org/2000/svg">
	<path fill-rule="evenodd" clip-rule="evenodd" d="M5.88462 3.46154C6.84049 3.46154 7.61539 2.68665 7.61539 1.73077C7.61539 0.774892 6.84049 0 5.88462 0C4.92874 0 4.15385 0.774892 4.15385 1.73077C4.15385 2.68665 4.92874 3.46154 5.88462 3.46154ZM1.38462 4.84615C0.619913 4.84615 0 5.46607 0 6.23077C0 6.99547 0.619913 7.61538 1.38462 7.61538H4.15385C4.5362 7.61538 4.84615 7.92534 4.84615 8.30769V16.6154C4.84615 17.3801 5.46607 18 6.23077 18C6.99547 18 7.61539 17.3801 7.61539 16.6154V8.30769C7.61539 6.39594 6.0656 4.84615 4.15385 4.84615H1.38462Z" fill="white"/>
</svg>
