<svg width="17" height="17" viewBox="0 0 17 17" fill="none" xmlns="http://www.w3.org/2000/svg">
	<path fill-rule="evenodd" clip-rule="evenodd" d="M5.58008 0H8.61548C8.61548 1.27905 8.79712 2.38672 9.14307 3.32178C10.7964 2.70581 12.6228 2.36157 14.5786 2.32959C14.8318 2.32568 15.0833 2.3313 15.333 2.34473C15.5198 2.35474 15.7056 2.3689 15.8904 2.38647C16.0867 2.40527 16.282 2.42773 16.4758 2.45312V5.15747C15.9446 5.08179 15.4016 5.04126 14.8501 5.04126C13.3877 5.04126 12.0247 5.28027 10.7844 5.71899C11.5691 6.37695 12.5505 6.80127 13.7021 6.99097C13.9456 6.96973 14.1929 6.95898 14.4436 6.95898L14.728 6.95752H14.731H14.7339C15.2458 6.95435 16.0544 6.94922 16.3831 6.99219V7.052V9.60815V9.66772C15.981 9.71997 14.8589 9.70117 14.4436 9.70117C14.1929 9.70117 13.9456 9.69043 13.7021 9.66919C12.5508 9.85889 11.5693 10.2832 10.7847 10.9412C12.0249 11.3799 13.3877 11.6187 14.8501 11.6187C15.4016 11.6187 15.9446 11.5793 16.4758 11.5024V14.2053C16.1221 14.2517 15.7649 14.2886 15.4041 14.3098C15.1309 14.3259 14.8557 14.3333 14.5786 14.3289C12.623 14.2969 10.7966 13.9526 9.14355 13.3369C8.79712 14.2722 8.61548 15.3804 8.61548 16.6599H5.58008C5.60962 15.0518 5.98608 13.4983 6.64771 12.123C5.99487 11.7219 5.38159 11.2708 4.81177 10.7729C3.84863 12.4919 3.30005 14.4963 3.25317 16.6411H0C0.0922852 13.4402 1.02979 10.6099 2.62134 8.3291C1.02979 6.0481 0.0922852 3.21802 0 0.017334H3.25317C3.30005 2.16211 3.84888 4.1665 4.81152 5.88574C5.3811 5.38818 5.99414 4.93701 6.64648 4.53613C5.98511 3.16113 5.60913 1.60791 5.58008 0ZM8.29346 6.97119C7.69971 7.37134 7.15088 7.82666 6.65088 8.32983C7.15112 8.83325 7.70044 9.28857 8.29443 9.68896C8.77173 9.17358 9.3042 8.71631 9.88477 8.33032C9.30371 7.94434 8.771 7.48682 8.29346 6.97119Z" fill="white"/>
</svg>
