<svg width="18" height="18" viewBox="0 0 18 18" fill="none" xmlns="http://www.w3.org/2000/svg">
	<path d="M15.75 4.49997H7.43555L17.5897 1.64493C17.6609 1.62493 17.7273 1.59111 17.7854 1.54541C17.8435 1.4997 17.8919 1.44301 17.9281 1.37856C17.9642 1.31412 17.9873 1.24318 17.996 1.16981C18.0048 1.09644 17.9989 1.02207 17.9789 0.950945L17.8267 0.410242C17.8067 0.339112 17.7729 0.272619 17.7272 0.214562C17.6815 0.156505 17.6248 0.108022 17.5603 0.0718808C17.4959 0.03574 17.4249 0.0126503 17.3516 0.00393063C17.2782 -0.00478901 17.2038 0.00103229 17.1327 0.021062L2.25 4.49997C1.65326 4.49997 1.08097 4.73702 0.65901 5.15898C0.237053 5.58094 0 6.15323 0 6.74997V15.75C0 16.3467 0.237053 16.919 0.65901 17.341C1.08097 17.7629 1.65326 18 2.25 18H15.75C16.3467 18 16.919 17.7629 17.341 17.341C17.7629 16.919 18 16.3467 18 15.75V6.74997C18 6.15323 17.7629 5.58094 17.341 5.15898C16.919 4.73702 16.3467 4.49997 15.75 4.49997ZM7.3125 8.71872V9.28122C7.3125 9.35581 7.28287 9.42735 7.23012 9.48009C7.17738 9.53284 7.10584 9.56247 7.03125 9.56247H3.09375C3.01916 9.56247 2.94762 9.53284 2.89488 9.48009C2.84213 9.42735 2.8125 9.35581 2.8125 9.28122V8.71872C2.8125 8.64413 2.84213 8.57259 2.89488 8.51984C2.94762 8.4671 3.01916 8.43747 3.09375 8.43747H7.03125C7.10584 8.43747 7.17738 8.4671 7.23012 8.51984C7.28287 8.57259 7.3125 8.64413 7.3125 8.71872ZM7.3125 13.7812C7.3125 13.8558 7.28287 13.9273 7.23012 13.9801C7.17738 14.0328 7.10584 14.0625 7.03125 14.0625H3.09375C3.01916 14.0625 2.94762 14.0328 2.89488 13.9801C2.84213 13.9273 2.8125 13.8558 2.8125 13.7812V13.2187C2.8125 13.1441 2.84213 13.0726 2.89488 13.0198C2.94762 12.9671 3.01916 12.9375 3.09375 12.9375H7.03125C7.10584 12.9375 7.17738 12.9671 7.23012 13.0198C7.28287 13.0726 7.3125 13.1441 7.3125 13.2187V13.7812ZM7.875 11.5312C7.875 11.6058 7.84537 11.6773 7.79262 11.7301C7.73988 11.7828 7.66834 11.8125 7.59375 11.8125H2.53125C2.45666 11.8125 2.38512 11.7828 2.33238 11.7301C2.27963 11.6773 2.25 11.6058 2.25 11.5312V10.9687C2.25 10.8941 2.27963 10.8226 2.33238 10.7698C2.38512 10.7171 2.45666 10.6875 2.53125 10.6875H7.59375C7.66834 10.6875 7.73988 10.7171 7.79262 10.7698C7.84537 10.8226 7.875 10.8941 7.875 10.9687V11.5312ZM12.9375 14.0625C12.3812 14.0625 11.8375 13.8975 11.375 13.5885C10.9124 13.2794 10.552 12.8402 10.3391 12.3263C10.1262 11.8123 10.0705 11.2468 10.179 10.7013C10.2876 10.1557 10.5554 9.65456 10.9488 9.26123C11.3421 8.8679 11.8432 8.60003 12.3888 8.49151C12.9344 8.38299 13.4999 8.43869 14.0138 8.65156C14.5277 8.86443 14.967 9.22491 15.276 9.68743C15.585 10.1499 15.75 10.6937 15.75 11.25C15.75 11.6193 15.6773 11.985 15.5359 12.3263C15.3946 12.6675 15.1874 12.9775 14.9262 13.2387C14.6651 13.4999 14.355 13.707 14.0138 13.8484C13.6726 13.9897 13.3068 14.0625 12.9375 14.0625Z" fill="white"/>
</svg>
