<svg width="15" height="18" viewBox="0 0 15 18" fill="none" xmlns="http://www.w3.org/2000/svg">
	<path d="M7.09464 0C5.39542 0 3.8358 0.597673 2.61428 1.59452V0.440621H0V18H1.30659C2.0286 18 2.61428 17.4154 2.61428 16.6934V12.5926C3.8358 13.5894 5.39542 14.1871 7.09464 14.1871C11.0122 14.1871 14.1882 11.0111 14.1882 7.09355C14.1882 3.17596 11.0122 0 7.09464 0ZM6.9365 11.5074C4.50218 11.5074 2.52266 9.52678 2.52266 7.09355C2.52266 4.66032 4.50218 2.67971 6.9365 2.67971C9.37082 2.67971 11.3503 4.66032 11.3503 7.09355C11.3503 9.52678 9.37082 11.5074 6.9365 11.5074Z" fill="white"/>
</svg>
