<svg width="18" height="18" viewBox="0 0 18 18" fill="none" xmlns="http://www.w3.org/2000/svg">
	<path fill-rule="evenodd" clip-rule="evenodd" d="M18 9C18 13.9706 13.9706 18 9 18C4.02944 18 0 13.9706 0 9C0 4.02944 4.02944 0 9 0C13.9706 0 18 4.02944 18 9ZM9.14743 3.60573C9.27414 4.24987 8.85467 4.87477 8.21053 5.00148C6.33643 5.37013 4.92449 7.02227 4.92449 9.00003C4.92449 11.2498 6.75026 13.0755 9.00472 13.0755C10.8932 13.0755 12.4838 11.7933 12.948 10.0523C13.1171 9.41798 13.7684 9.04084 14.4027 9.20995C15.0371 9.37906 15.4142 10.0304 15.2451 10.6647C14.5101 13.4216 11.9958 15.4529 9.00472 15.4529C5.43931 15.4529 2.54713 12.5648 2.54713 9.00003C2.54713 5.86301 4.78578 3.25225 7.75167 2.66883C8.39581 2.54212 9.02072 2.96158 9.14743 3.60573ZM11.0392 1.55804C10.7743 1.46341 10.4828 1.60149 10.3882 1.86645C10.2935 2.13141 10.4316 2.42292 10.6966 2.51755C12.957 3.32484 14.6844 4.7509 15.476 7.28408C15.5599 7.55263 15.8457 7.70229 16.1142 7.61837C16.3827 7.53445 16.5324 7.24872 16.4485 6.98018C15.542 4.0794 13.5336 2.44886 11.0392 1.55804ZM10.0727 3.67787C10.1985 3.42622 10.5045 3.32422 10.7562 3.45005C11.611 3.87747 12.3462 4.28609 12.9759 4.86916C13.6138 5.4598 14.1185 6.20496 14.5647 7.2758C14.6729 7.53551 14.5501 7.83377 14.2903 7.94198C14.0306 8.05019 13.7324 7.92738 13.6242 7.66767C13.2213 6.70078 12.792 6.08745 12.2837 5.61676C11.7672 5.13851 11.1438 4.78298 10.3005 4.36135C10.0489 4.23552 9.9469 3.92952 10.0727 3.67787ZM10.378 5.47037C10.1168 5.36588 9.82033 5.49294 9.71584 5.75417C9.61135 6.0154 9.73841 6.31188 9.99964 6.41637C10.371 6.5649 10.6492 6.7421 10.8899 6.98284C11.135 7.22793 11.3607 7.55827 11.6011 8.03912C11.7269 8.29077 12.0329 8.39277 12.2846 8.26695C12.5362 8.14112 12.6382 7.83512 12.5124 7.58347C12.2434 7.04546 11.9596 6.61165 11.6104 6.26239C11.2568 5.9088 10.8558 5.66147 10.378 5.47037Z" fill="white"/>
</svg>
