<svg width="18" height="14" viewBox="0 0 18 14" fill="none" xmlns="http://www.w3.org/2000/svg">
	<path fill-rule="evenodd" clip-rule="evenodd" d="M1.87362 6.48693C3.40085 3.74746 6.05021 2 9.00018 2C11.9502 2 14.5995 3.74746 16.1267 6.48693C16.3957 6.96932 17.0047 7.14236 17.4871 6.87344C17.9695 6.60451 18.1425 5.99545 17.8736 5.51307C16.0509 2.24349 12.7865 0 9.00018 0C5.21383 0 1.9495 2.24349 0.126745 5.51307C-0.142181 5.99545 0.0308642 6.60451 0.513251 6.87344C0.995639 7.14236 1.6047 6.96932 1.87362 6.48693ZM9.00018 6C7.29278 6 5.75463 6.97015 4.86495 8.50218C4.5876 8.97978 3.9756 9.14211 3.498 8.86476C3.02041 8.58741 2.85807 7.97541 3.13542 7.49782C4.33948 5.42442 6.49739 4 9.00018 4C11.503 4 13.6609 5.42442 14.8649 7.49782C15.1423 7.97541 14.98 8.58741 14.5024 8.86476C14.0248 9.14211 13.4128 8.97978 13.1354 8.50218C12.2457 6.97015 10.7076 6 9.00018 6ZM9.00018 12.5C9.82861 12.5 10.5002 11.8284 10.5002 11C10.5002 10.1716 9.82861 9.5 9.00018 9.5C8.17176 9.5 7.50018 10.1716 7.50018 11C7.50018 11.8284 8.17176 12.5 9.00018 12.5ZM9.00018 14C10.657 14 12.0002 12.6569 12.0002 11C12.0002 9.34315 10.657 8 9.00018 8C7.34333 8 6.00018 9.34315 6.00018 11C6.00018 12.6569 7.34333 14 9.00018 14Z" fill="white"/>
</svg>
