<svg width="17" height="18" viewBox="0 0 17 18" fill="none" xmlns="http://www.w3.org/2000/svg">
	<g clip-path="url(#clip0)">
		<path fill-rule="evenodd" clip-rule="evenodd" d="M0 5.94199V12.0521C7.79887e-05 12.5587 0.133476 13.0565 0.386794 13.4952C0.640114 13.934 1.00443 14.2984 1.44316 14.5518L6.73444 17.6068C7.17334 17.8602 7.67125 17.9936 8.17805 17.9936C8.68484 17.9936 9.18275 17.8602 9.62165 17.6068L14.9138 14.5518C15.3526 14.2985 15.7171 13.9341 15.9705 13.4953C16.2239 13.0565 16.3573 12.5588 16.3574 12.0521V5.94199C16.3574 5.43523 16.224 4.93741 15.9706 4.49854C15.7172 4.05967 15.3527 3.69524 14.9138 3.44185L9.62256 0.386814C9.18365 0.133408 8.68574 0 8.17895 0C7.67215 0 7.17424 0.133408 6.73534 0.386814L1.44361 3.44185C1.00473 3.69524 0.640281 4.05967 0.386877 4.49854C0.133473 4.93741 4.45481e-05 5.43523 0 5.94199ZM15.4085 12.6841C15.2594 13.0197 15.0416 13.3203 14.7691 13.5666L14.7697 13.5669C14.6321 13.6916 14.4818 13.8013 14.3212 13.8944L9.58439 16.6287C9.44188 16.711 9.28019 16.7543 9.11562 16.7543C8.95105 16.7543 8.78937 16.711 8.64685 16.6287C8.50434 16.5464 8.38601 16.428 8.30377 16.2855C8.22149 16.1429 8.17818 15.9812 8.17822 15.8167V10.2109C8.68502 10.2109 9.18288 10.3442 9.62183 10.5976L13.7127 12.9572L9.62183 10.5953C9.18288 10.342 8.68502 10.2087 8.17822 10.2087V9.87219C8.17822 9.57395 8.25672 9.28094 8.40582 9.02262C8.55496 8.76431 8.76943 8.5498 9.0277 8.40061L14.2287 5.39744C14.3713 5.31516 14.5329 5.27185 14.6975 5.27185C14.8621 5.2719 15.0238 5.3152 15.1663 5.39749C15.3088 5.47982 15.4271 5.59815 15.5094 5.74071C15.5917 5.88322 15.635 6.0449 15.6349 6.20948V11.6176C15.6348 11.9851 15.5577 12.3483 15.4085 12.6841Z" fill="white"/>
	</g>
	<defs>
		<clipPath id="clip0">
			<rect width="16.3759" height="18" fill="white"/>
		</clipPath>
	</defs>
</svg>
