<svg width="18" height="18" viewBox="0 0 18 18" fill="none" xmlns="http://www.w3.org/2000/svg">
	<path d="M17.9939 8.79539C17.8839 3.92128 13.9016 0 8.99695 0C4.02511 0 0 4.03122 0 8.99695C0 12.4357 1.9301 15.4286 4.77028 16.9433V14.2131V9.05803C4.77028 9.02138 4.77028 8.99084 4.77028 8.95419C4.77028 6.87139 6.26671 5.13675 8.23957 4.75806V6.2545C7.07296 6.59654 6.22396 7.67764 6.22396 8.95419C6.22396 8.9603 6.22396 8.97251 6.22396 8.97862V8.99084C6.24228 10.53 7.50051 11.7699 9.0397 11.7699C10.3163 11.7699 11.3912 10.9209 11.7394 9.76043H13.2358C12.8571 11.7333 11.1225 13.2236 9.0397 13.2236C7.9586 13.2236 6.97523 12.8205 6.22396 12.1608V17.5602C7.09739 17.8412 8.0319 18 9.00305 18C10.8721 18 12.6067 17.432 14.0482 16.4547V18H18L17.9939 8.79539ZM9.03359 10.5972C8.12352 10.5972 7.39057 9.86427 7.39057 8.95419C7.39057 8.04411 8.12352 7.31116 9.03359 7.31116C9.94367 7.31116 10.6766 8.04411 10.6766 8.95419C10.6766 9.86427 9.94367 10.5972 9.03359 10.5972ZM13.3091 8.96641H11.8554C11.8554 8.9603 11.8554 8.9603 11.8554 8.95419C11.8554 7.39667 10.5972 6.13845 9.0397 6.13845H9.03359V4.68476H9.0397C11.3974 4.68476 13.3091 6.59654 13.3091 8.95419C13.3091 8.9603 13.3091 8.9603 13.3091 8.96641ZM15.8134 8.96641H14.3719C14.3719 8.9603 14.3719 8.9603 14.3719 8.95419C14.3719 6.01018 11.9837 3.62199 9.0397 3.62199H9.03359V2.18052H9.0397C12.7838 2.18052 15.8134 5.21615 15.8134 8.95419C15.8134 8.9603 15.8134 8.9603 15.8134 8.96641Z" fill="white"/>
</svg>
