<svg width="18" height="18" viewBox="0 0 18 18" fill="none" xmlns="http://www.w3.org/2000/svg">
	<path fill-rule="evenodd" clip-rule="evenodd" d="M18 9C18 13.9706 13.9706 18 9 18C4.02944 18 0 13.9706 0 9C0 4.02944 4.02944 0 9 0C13.9706 0 18 4.02944 18 9ZM16.7401 8.99996C16.7401 13.2746 13.2748 16.74 9.00007 16.74C8.11784 16.74 7.27009 16.5924 6.48016 16.3205V14.3611C7.24128 14.7319 8.0963 14.94 8.99993 14.94C12.1811 14.94 14.7599 12.3611 14.7599 9.17999C14.7599 5.99883 12.1811 3.41999 8.99993 3.41999C5.81877 3.41999 3.23993 5.99883 3.23993 9.17999C3.23993 9.19739 3.24 9.21478 3.24016 9.23215V14.1703C2.00906 12.7997 1.26007 10.9873 1.26007 8.99996C1.26007 4.72527 4.72539 1.25996 9.00007 1.25996C13.2748 1.25996 16.7401 4.72527 16.7401 8.99996Z" fill="white"/>
</svg>
