<svg width="18" height="12" viewBox="0 0 18 12" fill="none" xmlns="http://www.w3.org/2000/svg">
	<path d="M2.64129 11.5527C2.53392 11.5527 2.42594 11.5123 2.34233 11.4315C0.834257 9.92432 0.00216105 7.91983 1.37638e-06 5.787C-0.00123273 3.65108 0.82747 1.64567 2.33307 0.136063C2.49752 -0.027764 2.76532 -0.027764 2.92915 0.136063C3.09359 0.301741 3.09359 0.568302 2.92915 0.73398C1.58336 2.08131 0.841666 3.87538 0.844134 5.78515C0.846294 7.69183 1.58922 9.48683 2.9384 10.8326C3.10316 10.9971 3.10439 11.2655 2.9384 11.4308C2.85634 11.5123 2.74896 11.5527 2.64129 11.5527ZM15.3674 11.5385C15.2603 11.5385 15.1529 11.4969 15.0715 11.4167C14.9055 11.2507 14.9055 10.9838 15.0687 10.8212C16.4166 9.46801 17.1583 7.67425 17.1571 5.76695C17.1537 3.85995 16.4092 2.06496 15.0579 0.720408C14.8941 0.555964 14.8941 0.287546 15.0579 0.123719C15.2217 -0.0407246 15.4895 -0.041341 15.6546 0.122486C17.1657 1.6287 17.9966 3.63195 18 5.76695C18.0018 7.89885 17.1738 9.90611 15.6669 11.4167C15.5845 11.4969 15.4775 11.5385 15.3674 11.5385ZM13.9299 5.49699C13.9287 4.1367 12.8242 3.03496 11.459 3.0365C10.0996 3.03774 8.99908 4.14164 9.00031 5.50162C8.99908 4.14164 7.89609 3.0399 6.53241 3.04113C5.1678 3.04237 4.06668 4.14627 4.06884 5.50686C4.06884 6.25873 4.4113 6.91898 4.93517 7.36942L9.01388 11.4379L13.1534 7.29168C13.63 6.84277 13.9299 6.2069 13.9299 5.49699ZM3.91736 10.2754C3.80999 10.2754 3.70231 10.2341 3.61932 10.1526C2.44939 8.98671 1.80426 7.43545 1.80333 5.78392C1.80086 4.13393 2.44322 2.5805 3.60975 1.40811C3.77296 1.24212 4.04077 1.24212 4.20583 1.40595C4.37181 1.57255 4.37243 1.83943 4.20737 2.00418C3.19911 3.01614 2.64438 4.35853 2.64623 5.78392C2.64623 7.2093 3.20528 8.54922 4.21385 9.55532C4.37983 9.721 4.38045 9.98818 4.21539 10.152C4.13363 10.2341 4.02657 10.2754 3.91736 10.2754ZM14.0913 10.2652C13.9842 10.2652 13.8756 10.2245 13.7932 10.1403C13.6282 9.978 13.6282 9.70958 13.792 9.54638C14.7987 8.53626 15.3522 7.19449 15.3501 5.77034C15.3495 4.34496 14.7926 3.00596 13.7825 1.99647C13.618 1.83264 13.618 1.56576 13.7825 1.40039C13.9469 1.23657 14.2159 1.23657 14.3791 1.40039C15.5478 2.56816 16.1911 4.12035 16.1951 5.77034C16.1951 7.41971 15.5537 8.97314 14.3899 10.1418C14.3097 10.2233 14.1993 10.2652 14.0913 10.2652Z" fill="white"/>
</svg>
