<svg width="18" height="18" viewBox="0 0 18 18" fill="none" xmlns="http://www.w3.org/2000/svg">
	<path fill-rule="evenodd" clip-rule="evenodd" d="M16 9C16 12.866 12.866 16 9 16C5.13401 16 2 12.866 2 9C2 5.13401 5.13401 2 9 2C12.866 2 16 5.13401 16 9ZM18 9C18 13.9706 13.9706 18 9 18C4.02944 18 0 13.9706 0 9C0 4.02944 4.02944 0 9 0C13.9706 0 18 4.02944 18 9ZM10.3977 8.76136C10.5568 8.60227 10.6364 8.40909 10.6364 8.18182C10.6364 7.95455 10.5568 7.76136 10.3977 7.60227C10.2386 7.44318 10.0455 7.36364 9.81818 7.36364C9.59091 7.36364 9.39773 7.44318 9.23864 7.60227C9.07955 7.76136 9 7.95455 9 8.18182C9 8.40909 9.07955 8.60227 9.23864 8.76136C9.39773 8.92045 9.59091 9 9.81818 9C10.0455 9 10.2386 8.92045 10.3977 8.76136ZM12.7457 8.91051C12.7997 8.85369 12.8239 8.78551 12.8182 8.70597C12.7813 8.25142 12.6669 7.81676 12.4751 7.40199C12.2834 6.98722 12.0256 6.61932 11.7017 6.2983C11.3807 5.97443 11.0128 5.71662 10.598 5.52486C10.1832 5.3331 9.74858 5.21875 9.29403 5.18182H9.27273C9.19886 5.18182 9.13778 5.20597 9.08949 5.25426C9.02983 5.3054 9 5.37216 9 5.45455V6.02983C9 6.10085 9.02344 6.16193 9.07031 6.21307C9.11719 6.2642 9.17614 6.29261 9.24716 6.2983C9.89773 6.3608 10.4538 6.62287 10.9155 7.08452C11.3771 7.54616 11.6392 8.10227 11.7017 8.75284C11.7074 8.82386 11.7358 8.88281 11.7869 8.92969C11.8381 8.97656 11.8991 9 11.9702 9H12.5455C12.6278 9 12.6946 8.97017 12.7457 8.91051ZM14.9233 8.91477C14.9801 8.85795 15.0057 8.79119 15 8.71449C14.9631 7.97017 14.7926 7.25781 14.4886 6.57741C14.1847 5.89702 13.767 5.29261 13.2358 4.7642C12.7074 4.23295 12.103 3.81534 11.4226 3.51136C10.7422 3.20739 10.0298 3.03693 9.28551 3H9.27273C9.19886 3 9.13636 3.02557 9.08523 3.0767C9.02841 3.12784 9 3.19318 9 3.27273V3.8821C9 3.95312 9.02486 4.01491 9.07457 4.06747C9.12429 4.12003 9.18466 4.14773 9.25568 4.15057C9.86648 4.1875 10.4467 4.33239 10.9964 4.58523C11.5462 4.83807 12.0234 5.1669 12.4283 5.57173C12.8331 5.97656 13.1619 6.45384 13.4148 7.00355C13.6676 7.55327 13.8111 8.13352 13.8452 8.74432C13.848 8.81534 13.8757 8.87571 13.9283 8.92543C13.9808 8.97514 14.044 9 14.1179 9H14.7273C14.8068 9 14.8722 8.97159 14.9233 8.91477Z" fill="white"/>
</svg>
