<svg width="12" height="18" viewBox="0 0 12 18" fill="none" xmlns="http://www.w3.org/2000/svg">
	<path fill-rule="evenodd" clip-rule="evenodd" d="M6.27907 15.0353V16.7442H5.02326V15.0353C2.19771 14.7229 0 12.3274 0 9.4186H1.25581C1.25581 11.8461 3.22368 13.814 5.65116 13.814C8.07865 13.814 10.0465 11.8461 10.0465 9.4186H11.3023C11.3023 12.3274 9.10462 14.7229 6.27907 15.0353ZM8.64028 2.17449C8.23379 0.912742 7.04919 0 5.65116 0C3.92077 0 2.51163 1.40428 2.51163 3.13655V9.42159C2.51163 11.1541 3.91725 12.5581 5.65116 12.5581C7.38155 12.5581 8.7907 11.1539 8.7907 9.42159V5.80016C8.52362 6.01606 8.25714 6.21976 8 6.4C6.3033 7.58928 3.20137 7.6134 3.20137 7.6134L8.64028 2.17449ZM8.7907 18V16.7442H2.51163V18H8.7907Z" fill="white"/>
</svg>
