<svg width="14" height="18" viewBox="0 0 14 18" fill="none" xmlns="http://www.w3.org/2000/svg">
	<path d="M0.0178608 5.12237C0.214329 4.64013 0.392937 4.14002 0.607267 3.65778C1.96469 0.90722 5.01888 -0.521643 8.0195 0.174928C10.8594 0.817916 13.0027 3.5149 13.0205 6.44407C13.0384 9.4804 11.0022 12.1238 8.07308 12.8561C7.59084 12.9811 7.07287 13.0168 6.57277 13.0347C5.59043 13.0526 4.89386 12.3917 4.85814 11.4808C4.82241 10.5878 5.50112 9.96264 6.44775 9.76617C7.1979 9.60543 8.0195 9.37324 8.62676 8.92672C9.80557 8.03368 10.0556 6.3369 9.37691 5.05092C8.66248 3.71136 7.18004 3.01479 5.67973 3.37201C4.34017 3.67564 3.2328 4.97948 3.2328 6.40834C3.19708 9.53398 3.17922 12.6596 3.2328 15.7853C3.25066 16.839 2.91131 17.5713 1.96469 18C1.3217 18 0.660849 18 0 18C0.0178608 13.6955 0.0178608 9.40896 0.0178608 5.12237Z" fill="white"/>
</svg>
