<svg width="18" height="17" viewBox="0 0 18 17" fill="none" xmlns="http://www.w3.org/2000/svg">
	<path fill-rule="evenodd" clip-rule="evenodd" d="M18 15.4318C9 15.0415 8.73242 16.9277 0 15.4318V0.43183C8.73242 1.92773 9.26758 -1.06407 18 0.43183V15.4318ZM8.34042 6.87752C8.49269 6.88163 8.64532 6.88479 8.79795 6.88764C9.27295 6.89586 9.44863 6.73644 9.44863 6.17848V4.56785C9.44863 4.05702 9.34315 3.89823 8.86815 3.89064C8.69212 3.88748 8.5161 3.88368 8.34007 3.87894L8.34042 6.87752ZM8.34042 13.9115C7.56016 13.891 6.77991 13.8546 6 13.7986V1.93176C7.23185 2.02033 8.46336 2.06018 9.69521 2.06461C11.1202 2.06714 11.8414 2.73866 11.8418 4.01717V5.915C11.8418 6.9044 11.2435 7.35039 10.8038 7.53069C11.174 7.65405 11.8065 8.03804 11.8069 8.91484V12.9496C11.8065 13.4602 11.9123 13.6803 12 13.8217V13.9014C11.2201 13.9235 10.4402 13.9346 9.65993 13.9311C9.53664 13.803 9.44828 13.5471 9.44863 13.0208V9.56011C9.44863 9.00119 9.30788 8.85822 8.83288 8.85032C8.66872 8.84715 8.50457 8.84399 8.34042 8.83956V13.9115Z" fill="white"/>
</svg>
