<svg width="18" height="18" viewBox="0 0 18 18" fill="none" xmlns="http://www.w3.org/2000/svg">
	<path fill-rule="evenodd" clip-rule="evenodd" d="M5.59459 0C5.32592 0 5.10811 0.217807 5.10811 0.486486C5.10811 0.755166 5.32591 0.972973 5.59459 0.972973H11.9189C12.1876 0.972973 12.4054 0.755166 12.4054 0.486486C12.4054 0.217807 12.1876 0 11.9189 0H5.59459ZM1.94595 3.40541C1.67727 3.40541 1.45946 3.62321 1.45946 3.89189C1.45946 4.16057 1.67727 4.37838 1.94595 4.37838H15.5676C15.8362 4.37838 16.0541 4.16057 16.0541 3.89189C16.0541 3.62321 15.8362 3.40541 15.5676 3.40541H1.94595ZM0 7.2973C0 7.02862 0.217807 6.81081 0.486486 6.81081H17.027C17.2957 6.81081 17.5135 7.02862 17.5135 7.2973C17.5135 7.56598 17.2957 7.78378 17.027 7.78378H0.486487C0.217808 7.78378 0 7.56598 0 7.2973ZM0.486486 10.2162C0.217807 10.2162 0 10.434 0 10.7027C0 10.9714 0.217808 11.1892 0.486487 11.1892H17.027C17.2957 11.1892 17.5135 10.9714 17.5135 10.7027C17.5135 10.434 17.2957 10.2162 17.027 10.2162H0.486486ZM1.45946 14.1081C1.45946 13.8394 1.67727 13.6216 1.94595 13.6216H15.5676C15.8362 13.6216 16.0541 13.8394 16.0541 14.1081C16.0541 14.3768 15.8362 14.5946 15.5676 14.5946H1.94595C1.67727 14.5946 1.45946 14.3768 1.45946 14.1081ZM5.59459 17.027C5.32592 17.027 5.10811 17.2448 5.10811 17.5135C5.10811 17.7822 5.32591 18 5.59459 18H11.9189C12.1876 18 12.4054 17.7822 12.4054 17.5135C12.4054 17.2448 12.1876 17.027 11.9189 17.027H5.59459Z" fill="white"/>
</svg>
