<svg width="16" height="16" viewBox="0 0 16 16" fill="none" xmlns="http://www.w3.org/2000/svg">
	<path d="M4.36307 13.8182C4.36307 14.4242 4.15098 14.9394 3.72679 15.3636C3.3026 15.7879 2.78752 16 2.18154 16C1.57555 16 1.06047 15.7879 0.636281 15.3636C0.212094 14.9394 0 14.4242 0 13.8182C0 13.2121 0.212094 12.697 0.636281 12.2727C1.06047 11.8485 1.57555 11.6364 2.18154 11.6364C2.78752 11.6364 3.3026 11.8485 3.72679 12.2727C4.15098 12.697 4.36307 13.2121 4.36307 13.8182ZM10.1805 15.2159C10.1957 15.428 10.1313 15.6098 9.98735 15.7614C9.851 15.9205 9.67299 16 9.45333 16H7.91943C7.73006 16 7.5672 15.9375 7.43086 15.8125C7.29451 15.6875 7.21877 15.5303 7.20362 15.3409C7.03697 13.6061 6.3382 12.1231 5.1073 10.892C3.87639 9.66098 2.39363 8.96212 0.659006 8.79545C0.469636 8.7803 0.31246 8.70455 0.187476 8.56818C0.0624919 8.43182 0 8.26894 0 8.07955V6.54545C0 6.32576 0.0795352 6.14773 0.238606 6.01136C0.367377 5.88258 0.530235 5.81818 0.727179 5.81818H0.78399C1.99595 5.91667 3.1549 6.22159 4.26081 6.73295C5.36673 7.24432 6.34767 7.93182 7.20362 8.79545C8.06714 9.65152 8.75455 10.6326 9.26585 11.7386C9.77715 12.8447 10.082 14.0038 10.1805 15.2159ZM15.9979 15.2386C16.0131 15.4432 15.9449 15.6212 15.7934 15.7727C15.6571 15.9242 15.4829 16 15.2708 16H13.646C13.449 16 13.2805 15.9337 13.1403 15.8011C13.0002 15.6686 12.9264 15.5076 12.9188 15.3182C12.8279 13.6894 12.4454 12.142 11.7712 10.6761C11.0971 9.21023 10.2203 7.9375 9.14087 6.85795C8.06146 5.77841 6.7889 4.90152 5.32318 4.22727C3.85746 3.55303 2.31031 3.16667 0.68173 3.06818C0.492361 3.06061 0.331397 2.98674 0.198838 2.84659C0.0662793 2.70644 0 2.54167 0 2.35227V0.727272C0 0.515151 0.0757478 0.340909 0.227243 0.204545C0.363589 0.068181 0.530235 0 0.727179 0H0.761265C2.74586 0.098484 4.64523 0.55303 6.45939 1.36364C8.27355 2.17424 9.88509 3.28788 11.294 4.70455C12.7105 6.11364 13.824 7.72538 14.6345 9.53977C15.445 11.3542 15.8995 13.2538 15.9979 15.2386Z" fill="white"/>
</svg>
