<svg width="18" height="13" viewBox="0 0 18 13" fill="none" xmlns="http://www.w3.org/2000/svg">
	<path d="M17.8486 3.43955C12.8686 -1.14652 5.13139 -1.14652 0.151431 3.43955C-0.0455169 3.63649 -0.0455169 3.91785 0.123295 4.08666L1.0799 5.04326C1.27684 5.21207 1.5582 5.24021 1.72701 5.0714C5.83477 1.30126 12.1652 1.30126 16.273 5.0714C16.4699 5.24021 16.7232 5.21207 16.9201 5.04326L17.8767 4.08666C18.0455 3.91785 18.0455 3.63649 17.8486 3.43955ZM9.01407 8.98221C8.00119 8.98221 7.21341 9.79814 7.21341 10.7829C7.21341 11.7957 8.00119 12.5835 9.01407 12.5835C9.99881 12.5835 10.8147 11.7957 10.8147 10.7829C10.8147 9.79814 9.99881 8.98221 9.01407 8.98221ZM14.6974 6.64698C11.4618 3.77717 6.53816 3.77717 3.30259 6.64698C3.10564 6.81579 3.10564 7.12528 3.27446 7.29409L4.25919 8.25069C4.428 8.41951 4.68122 8.41951 4.87817 8.27883C7.24154 6.22495 10.7585 6.22495 13.1218 8.27883C13.3188 8.41951 13.572 8.41951 13.7408 8.25069L14.7255 7.29409C14.8944 7.12528 14.8944 6.81579 14.6974 6.64698Z" fill="white"/>
</svg>
