<svg width="18" height="18" viewBox="0 0 18 18" fill="none" xmlns="http://www.w3.org/2000/svg">
	<path d="M11.5714 8.03571C12.7768 8.03571 13.8214 7.03125 13.8214 5.78571C13.8214 4.58036 12.7768 3.53571 11.5714 3.53571C10.3259 3.53571 9.32143 4.58036 9.32143 5.78571C9.32143 5.94643 9.32143 6.06696 9.32143 6.1875L7.19196 7.27232C6.79018 6.95089 6.30804 6.75 5.78571 6.75C4.54018 6.75 3.53571 7.79464 3.53571 9C3.53571 10.2455 4.54018 11.25 5.78571 11.25C6.30804 11.25 6.79018 11.0893 7.19196 10.7679L9.32143 11.8527C9.32143 11.9732 9.32143 12.0938 9.32143 12.2143C9.32143 13.4598 10.3259 14.4643 11.5714 14.4643C12.7768 14.4643 13.8214 13.4598 13.8214 12.2143C13.8214 11.0089 12.7768 9.96429 11.5714 9.96429C10.8884 9.96429 10.3259 10.2455 9.92411 10.6875L7.91518 9.68304C8.03571 9.24107 8.03571 8.79911 7.91518 8.35714L9.92411 7.35268C10.3259 7.79464 10.8884 8.03571 11.5714 8.03571ZM11.5714 4.82143C12.0938 4.82143 12.5357 5.26339 12.5357 5.78571C12.5357 6.34821 12.0938 6.75 11.5714 6.75C11.0089 6.75 10.6071 6.34821 10.6071 5.78571C10.6071 5.26339 11.0089 4.82143 11.5714 4.82143ZM5.78571 9.96429C5.22321 9.96429 4.82143 9.5625 4.82143 9C4.82143 8.47768 5.22321 8.03571 5.78571 8.03571C6.30804 8.03571 6.75 8.47768 6.75 9C6.75 9.5625 6.30804 9.96429 5.78571 9.96429ZM11.5714 11.25C12.0938 11.25 12.5357 11.692 12.5357 12.2143C12.5357 12.7768 12.0938 13.1786 11.5714 13.1786C11.0089 13.1786 10.6071 12.7768 10.6071 12.2143C10.6071 11.692 11.0089 11.25 11.5714 11.25ZM16.0714 0H1.92857C0.84375 0 0 0.883929 0 1.92857V16.0714C0 17.1562 0.84375 18 1.92857 18H16.0714C17.1161 18 18 17.1562 18 16.0714V1.92857C18 0.883929 17.1161 0 16.0714 0ZM16.7143 16.0714C16.7143 16.433 16.3929 16.7143 16.0714 16.7143H1.92857C1.56696 16.7143 1.28571 16.433 1.28571 16.0714V1.92857C1.28571 1.60714 1.56696 1.28571 1.92857 1.28571H16.0714C16.3929 1.28571 16.7143 1.60714 16.7143 1.92857V16.0714Z" fill="white"/>
</svg>
