<svg width="18" height="10" viewBox="0 0 18 10" fill="none" xmlns="http://www.w3.org/2000/svg">
	<path d="M0 8.19269C0 8.41606 0.0809785 8.58495 0.242907 8.69944C0.404842 8.81391 0.577945 8.85438 0.762214 8.82089C0.93531 8.78739 1.05677 8.72596 1.12659 8.63662C1.19637 8.54728 1.23129 8.39929 1.23129 8.19269V5.76366C1.23129 5.59054 1.17127 5.44396 1.0512 5.32392C0.931162 5.20385 0.784585 5.14383 0.611468 5.14383C0.443945 5.14383 0.300161 5.20385 0.180101 5.32392C0.0600409 5.44396 0 5.59054 0 5.76366V8.19269ZM1.92648 9.23131C1.92648 9.39328 1.98372 9.5147 2.09818 9.59569C2.21266 9.67667 2.35926 9.71714 2.53792 9.71714C2.72219 9.71714 2.87156 9.67665 2.98604 9.59569C3.1005 9.51473 3.15775 9.39328 3.15775 9.23131V3.56916C3.15775 3.40163 3.0977 3.25783 2.97766 3.13779C2.8576 3.01775 2.71103 2.95771 2.53792 2.95771C2.37041 2.95771 2.2266 3.01775 2.10656 3.13779C1.9865 3.25786 1.92648 3.40163 1.92648 3.56916V9.23131ZM3.84458 9.49935C3.84458 9.66129 3.90321 9.78274 4.02048 9.86372C4.13774 9.94468 4.2885 9.98517 4.4728 9.98517C4.65147 9.98517 4.79805 9.94468 4.91251 9.86372C5.02699 9.78274 5.08424 9.66129 5.08424 9.49935V4.33136C5.08424 4.15827 5.0242 4.01028 4.90415 3.88743C4.78409 3.76459 4.64032 3.70318 4.4728 3.70318C4.29968 3.70318 4.15171 3.76459 4.02886 3.88743C3.90603 4.01028 3.84459 4.15827 3.84459 4.33136V9.49935H3.84458ZM5.77106 9.52447C5.77106 9.8316 5.97766 9.98517 6.39088 9.98517C6.80409 9.98517 7.01068 9.8316 7.01068 9.52447V1.14849C7.01068 0.679433 6.86829 0.414199 6.58351 0.352769C6.39924 0.308093 6.21775 0.361142 6.03907 0.511911C5.86038 0.662679 5.77104 0.874863 5.77104 1.14848V9.52447H5.77106ZM7.73106 9.76738V0.654305C7.73106 0.363943 7.8176 0.190841 7.99071 0.13499C8.36482 0.0456526 8.73617 0.000976562 9.10472 0.000976562C9.95905 0.000976562 10.7548 0.202001 11.4919 0.604049C12.2289 1.0061 12.825 1.55472 13.2801 2.24993C13.7352 2.94516 13.9991 3.71154 14.0717 4.54916C14.4123 4.40397 14.7752 4.33138 15.1605 4.33138C15.9423 4.33138 16.611 4.60778 17.1666 5.1606C17.7222 5.71343 18 6.37792 18 7.1541C18 7.93586 17.7222 8.60315 17.1666 9.15596C16.611 9.70878 15.9451 9.98519 15.1689 9.98519L7.88179 9.97681C7.83151 9.96006 7.79382 9.92934 7.76869 9.88468C7.74356 9.84001 7.73106 9.80088 7.73106 9.76738Z" fill="white"/>
</svg>
