<svg width="18" height="16" viewBox="0 0 18 16" fill="none" xmlns="http://www.w3.org/2000/svg">
	<path fill-rule="evenodd" clip-rule="evenodd" d="M9.40541 0.608108C9.40541 0.943957 9.13315 1.21622 8.7973 1.21622C6.47921 1.21622 4.05405 3.45854 4.05405 6.24324C4.05405 9.04774 6.22948 11.2703 8.7973 11.2703C9.13315 11.2703 9.4054 11.5425 9.4054 11.8784C9.4054 12.2142 9.13315 12.4865 8.7973 12.4865C5.50283 12.4865 2.83784 9.66314 2.83784 6.24324C2.83784 2.80355 5.79092 0 8.7973 0C9.13315 0 9.40541 0.272259 9.40541 0.608108ZM0.608108 5.7973C0.943957 5.7973 1.21622 6.06956 1.21622 6.40541C1.21622 10.0818 4.69984 13.8649 9 13.8649C13.3198 13.8649 16.7838 10.4679 16.7838 6.40541C16.7838 6.06956 17.056 5.7973 17.3919 5.7973C17.7277 5.7973 18 6.06956 18 6.40541C18 11.1808 13.9496 15.0811 9 15.0811C4.03073 15.0811 0 10.7561 0 6.40541C0 6.06956 0.272259 5.7973 0.608108 5.7973ZM11.3514 6.12162C11.3514 6.45747 11.6236 6.72973 11.9595 6.72973C12.2953 6.72973 12.5676 6.45747 12.5676 6.12162C12.5676 4.40291 10.9769 2.75676 9.04054 2.75676C7.12399 2.75676 5.51351 4.24525 5.51351 6.12162C5.51351 6.45747 5.78577 6.72973 6.12162 6.72973C6.45747 6.72973 6.72973 6.45747 6.72973 6.12162C6.72973 4.97802 7.73294 3.97297 9.04054 3.97297C10.3283 3.97297 11.3514 5.09743 11.3514 6.12162Z" fill="white"/>
</svg>
