<svg xmlns="http://www.w3.org/2000/svg" width="2337" height="2500" viewBox="0 -0.005 30.045 32.147"><g fill="#35B3A6"><path d="M.134 12.143h13.215c3.699.527 5.972 2.48 6.339 6.339v2.769H5.402C1.584 20.795.26 18.676 0 15.849l.134-3.706zM21.116 21.25v-3.928c.23-2.926 1.3-5.224 5.312-5.312h3.616v3.705c-.17 3.079-1.428 5.39-5.625 5.625l-3.303-.09zM10.134 23.304h10v4.018c-.01 3.604-1.963 4.778-4.821 4.82h-5.18v-8.838zM20.224 5.179c0 2.859-2.3 5.178-5.134 5.178-2.836 0-5.134-2.318-5.134-5.178-.003-2.86 2.293-5.182 5.129-5.184 2.835-.003 5.136 2.313 5.139 5.173v.01z"/></g></svg>