<svg width="18" height="11" viewBox="0 0 18 11" fill="none" xmlns="http://www.w3.org/2000/svg">
	<path fill-rule="evenodd" clip-rule="evenodd" d="M2.64397 0H0.675172C0.112529 0 0 0.264668 0 0.557242C0 1.07847 0.667069 3.66573 3.10849 7.0866C4.7352 9.42359 7.02809 10.6902 9.11392 10.6902C10.3661 10.6902 10.521 10.4084 10.521 9.92502V8.15877C10.521 7.59613 10.6398 7.4836 11.0359 7.4836C11.3285 7.4836 11.8281 7.62944 12.9975 8.75562C14.3325 10.0916 14.5522 10.6902 15.303 10.6902H17.2727C17.8353 10.6902 18.1171 10.4084 17.9542 9.853C17.7768 9.30026 17.1395 8.49726 16.2932 7.54572C15.8341 7.00378 15.1463 6.41953 14.9375 6.12696C14.6449 5.75156 14.7286 5.58502 14.9375 5.25103C14.9375 5.25103 17.3366 1.87158 17.5869 0.723784C17.7129 0.306978 17.5869 0 16.9909 0H15.0221C14.5216 0 14.2902 0.264668 14.1651 0.557242C14.1651 0.557242 13.164 2.99776 11.7453 4.58306C11.2862 5.04218 11.0773 5.18892 10.8271 5.18892C10.7019 5.18892 10.521 5.04218 10.521 4.62537V0.723784C10.521 0.223257 10.376 0 9.95833 0H6.86334C6.55096 0 6.36282 0.232259 6.36282 0.452815C6.36282 0.927236 7.0722 1.03706 7.14512 2.3721V5.27174C7.14512 5.9082 7.03079 6.02343 6.77962 6.02343C6.11255 6.02343 4.48854 3.57121 3.5253 0.766095C3.33625 0.220556 3.1472 0 2.64397 0Z" fill="white"/>
</svg>
