<svg width="10" height="18" viewBox="0 0 10 18" fill="none" xmlns="http://www.w3.org/2000/svg">
	<path fill-rule="evenodd" clip-rule="evenodd" d="M0.862069 8.62069H0.431034C0.215517 8.62069 0 8.40517 0 8.18966V6.89655C0 4.49892 1.80496 2.50539 4.09483 2.18211V1.2931H2.58621C2.37069 1.2931 2.15517 1.07759 2.15517 0.862069V0.431034C2.15517 0.188577 2.37069 0 2.58621 0H6.89655C7.13901 0 7.32759 0.188577 7.32759 0.431034V0.862069C7.32759 1.07759 7.13901 1.2931 6.89655 1.2931H5.38793V2.20905C7.78556 2.53233 9.48276 4.6875 9.48276 7.08513V8.18966C9.48276 8.40517 9.29418 8.62069 9.05172 8.62069H8.62069C8.40517 8.62069 8.18966 8.40517 8.18966 8.18966V7.03125C8.18966 5.22629 6.89655 3.63685 5.09159 3.44828C3.04418 3.2597 1.2931 4.87608 1.2931 6.89655V8.18966C1.2931 8.40517 1.10453 8.62069 0.862069 8.62069ZM8.62069 9.37931H9.05172C9.26724 9.37931 9.48276 9.59483 9.48276 9.81034V11.1034C9.48276 13.5011 7.6778 15.4946 5.38793 15.8179V16.7069H6.89655C7.11207 16.7069 7.32759 16.9224 7.32759 17.1379V17.569C7.32759 17.8114 7.11207 18 6.89655 18H2.58621C2.34375 18 2.15517 17.8114 2.15517 17.569V17.1379C2.15517 16.9224 2.34375 16.7069 2.58621 16.7069H4.09483V15.7909C1.6972 15.4677 0 13.3125 0 10.9149V9.81034C0 9.59483 0.188578 9.37931 0.431034 9.37931H0.862069C1.07759 9.37931 1.2931 9.59483 1.2931 9.81034V10.9688C1.2931 12.7737 2.58621 14.3631 4.39116 14.5517C6.43858 14.7403 8.18966 13.1239 8.18966 11.1034V9.81034C8.18966 9.59483 8.37823 9.37931 8.62069 9.37931ZM7.32759 11.1034C7.32759 12.5582 6.16918 13.6897 4.74138 13.6897C3.28664 13.6897 2.15517 12.5582 2.15517 11.1034V6.7931C2.15517 5.3653 3.28664 4.2069 4.74138 4.2069C6.16918 4.2069 7.32759 5.3653 7.32759 6.7931H5.01078C4.84914 6.7931 4.74138 6.90086 4.74138 7.00862V7.43966C4.74138 7.57435 4.84914 7.65517 5.01078 7.65517H7.32759V8.51724H5.01078C4.84914 8.51724 4.74138 8.625 4.74138 8.73276V9.16379C4.74138 9.29849 4.84914 9.37931 5.01078 9.37931H7.32759V10.2414H5.01078C4.84914 10.2414 4.74138 10.3491 4.74138 10.4569V10.8879C4.74138 11.0226 4.84914 11.1034 5.01078 11.1034H7.32759Z" fill="white"/>
</svg>
