<svg width="18" height="13" viewBox="0 0 18 13" fill="none" xmlns="http://www.w3.org/2000/svg">
	<path fill-rule="evenodd" clip-rule="evenodd" d="M16.0428 0.385501C16.8138 0.593078 17.4217 1.20098 17.6292 1.97199C18.0147 3.38055 17.9999 6.31628 17.9999 6.31628C17.9999 6.31628 17.9999 9.23719 17.6292 10.6458C17.4217 11.4168 16.8138 12.0247 16.0428 12.2322C14.6342 12.6029 8.99996 12.6029 8.99996 12.6029C8.99996 12.6029 3.38055 12.6029 1.95716 12.2174C1.18616 12.0098 0.578251 11.4019 0.370674 10.6309C0 9.23719 0 6.30146 0 6.30146C0 6.30146 0 3.38055 0.370674 1.97199C0.578251 1.20098 1.20098 0.578251 1.95716 0.370674C3.36572 0 8.99996 0 8.99996 0C8.99996 0 14.6342 0 16.0428 0.385501ZM7.20579 3.60299L11.8911 6.30149L7.20579 9V3.60299Z" fill="white"/>
</svg>
