<svg width="59" height="20" viewBox="0 0 59 20" fill="none" xmlns="http://www.w3.org/2000/svg">
<path fill-rule="evenodd" clip-rule="evenodd" d="M10 20C15.5228 20 20 15.5228 20 10C20 4.47715 15.5228 0 10 0C4.47715 0 0 4.47715 0 10C0 15.5228 4.47715 20 10 20ZM10 19.0776C15.0134 19.0776 19.0776 15.0134 19.0776 10C19.0776 4.9866 15.0134 0.922432 10 0.922432C4.9866 0.922432 0.922432 4.9866 0.922432 10C0.922432 15.0134 4.9866 19.0776 10 19.0776Z" fill="white"/>
<path fill-rule="evenodd" clip-rule="evenodd" d="M7.73585 6.77147C7.73585 5.46312 8.79648 4.4025 10.1048 4.4025C11.4132 4.4025 12.4738 5.46312 12.4738 6.77147V9.32912C12.4738 10.6375 11.4132 11.6981 10.1048 11.6981C8.79648 11.6981 7.73585 10.6375 7.73585 9.32912V6.77147ZM8.65828 6.72954C8.65828 5.93064 9.30592 5.283 10.1048 5.283C10.9037 5.283 11.5514 5.93064 11.5514 6.72954V9.37105C11.5514 10.17 10.9037 10.8176 10.1048 10.8176C9.30592 10.8176 8.65828 10.17 8.65828 9.37105V6.72954Z" fill="white"/>
<path d="M6.10063 8.51151V9.43385C6.10063 11.448 7.62357 13.1064 9.58072 13.3204V15.0943H8.31237C8.07502 15.0943 7.8826 15.2867 7.8826 15.5241C7.8826 15.7614 8.07502 15.9539 8.31237 15.9539H11.7296C11.9669 15.9539 12.1593 15.7614 12.1593 15.5241C12.1593 15.2867 11.9669 15.0943 11.7296 15.0943H10.4612V13.318C12.4083 13.0945 13.9203 11.4408 13.9203 9.43385V8.51151C13.9203 7.9874 13.0608 7.99733 13.0608 8.51151V9.46539C13.0608 11.15 11.6951 12.5157 10.0105 12.5157C8.32584 12.5157 6.96017 11.15 6.96017 9.46539V8.51151C6.96017 7.98118 6.10063 8.00203 6.10063 8.51151Z" fill="white"/>
<path d="M26.3964 7.59438C27.1585 7.59438 27.79 7.79761 28.2908 8.20408C28.6943 8.53152 28.9729 8.94847 29.1267 9.45491C28.826 9.45491 28.4172 9.45491 28.0623 9.45491C27.9577 9.20484 27.7943 8.99839 27.5722 8.83555C27.2529 8.58876 26.8537 8.46537 26.3746 8.46537C26.0262 8.46537 25.7069 8.54521 25.4165 8.7049C25.1335 8.86458 24.9048 9.11136 24.7306 9.44524C24.5564 9.77186 24.4693 10.1783 24.4693 10.6646C24.4693 11.1509 24.5564 11.561 24.7306 11.8949C24.9048 12.2215 25.1335 12.4647 25.4165 12.6244C25.7069 12.784 26.0262 12.8639 26.3746 12.8639C26.8537 12.8639 27.2529 12.7405 27.5722 12.4937C27.8181 12.3079 27.992 12.0708 28.0939 11.7822C28.4172 11.7822 28.7002 11.7822 29.1509 11.7822C29.0032 12.3321 28.7165 12.7797 28.2908 13.1252C27.79 13.5244 27.1585 13.724 26.3964 13.724C25.823 13.724 25.3149 13.6006 24.8722 13.3538C24.4294 13.107 24.081 12.755 23.827 12.2977C23.5802 11.8332 23.4568 11.2888 23.4568 10.6646C23.4568 10.0404 23.5802 9.49605 23.827 9.03152C24.081 8.56699 24.4294 8.21133 24.8722 7.96455C25.3149 7.71777 25.823 7.59438 26.3964 7.59438Z" fill="white"/>
<path d="M32.8537 7.59438C33.4343 7.59438 33.9243 7.73955 34.3235 8.02988C34.7299 8.32021 35.013 8.70853 35.1727 9.19483V7.67059H36.1634V13.6478H35.1727V12.1235C35.013 12.6099 34.7299 12.9982 34.3235 13.2885C33.9243 13.5788 33.4343 13.724 32.8537 13.724C32.3238 13.724 31.852 13.6006 31.4383 13.3538C31.0246 13.107 30.698 12.755 30.4584 12.2977C30.2262 11.8332 30.11 11.2888 30.11 10.6646C30.11 10.0404 30.2262 9.49605 30.4584 9.03152C30.698 8.56699 31.0246 8.21133 31.4383 7.96455C31.852 7.71777 32.3238 7.59438 32.8537 7.59438ZM33.1367 8.47626C32.527 8.47626 32.0371 8.67223 31.6669 9.06418C31.304 9.44887 31.1226 9.98235 31.1226 10.6646C31.1226 11.3469 31.304 11.884 31.6669 12.276C32.0371 12.6607 32.527 12.853 33.1367 12.853C33.5287 12.853 33.8771 12.7623 34.1819 12.5808C34.494 12.3994 34.7372 12.1453 34.9114 11.8187C35.0856 11.4848 35.1727 11.1001 35.1727 10.6646C35.1727 10.2291 35.0856 9.84445 34.9114 9.51057C34.7372 9.17668 34.494 8.92265 34.1819 8.74845C33.8771 8.56699 33.5287 8.47626 33.1367 8.47626Z" fill="white"/>
<path d="M39.504 7.59438C40.179 7.59438 40.7198 7.77221 41.1262 8.12786C41.54 8.47626 41.7904 8.94805 41.8775 9.54323H40.9303C40.8867 9.18757 40.7379 8.89724 40.4839 8.67223C40.2371 8.43997 39.9032 8.32384 39.4822 8.32384C39.1266 8.32384 38.8471 8.41094 38.6439 8.58514C38.4479 8.75208 38.3499 8.98071 38.3499 9.27104C38.3499 9.48879 38.4153 9.66662 38.5459 9.80453C38.6838 9.93518 38.8508 10.0368 39.0467 10.1094C39.25 10.1747 39.5258 10.2473 39.8742 10.3271C40.3169 10.4287 40.6726 10.534 40.9411 10.6429C41.217 10.7445 41.4492 10.9114 41.6379 11.1437C41.8339 11.3759 41.9319 11.688 41.9319 12.08C41.9319 12.5663 41.7468 12.9619 41.3766 13.2667C41.0137 13.5716 40.5274 13.724 39.9177 13.724C39.2064 13.724 38.6258 13.5534 38.1757 13.2123C37.7257 12.8711 37.4608 12.3957 37.381 11.786H38.3391C38.3753 12.1489 38.5314 12.4429 38.8072 12.6679C39.0903 12.8929 39.4605 13.0054 39.9177 13.0054C40.2589 13.0054 40.5238 12.9183 40.7125 12.7441C40.9085 12.5699 41.0065 12.3413 41.0065 12.0582C41.0065 11.826 40.9375 11.6409 40.7996 11.503C40.6617 11.3651 40.4911 11.2598 40.2879 11.1872C40.0847 11.1146 39.8052 11.0384 39.4496 10.9586C39.0068 10.857 38.6512 10.7554 38.3826 10.6537C38.1213 10.5521 37.8963 10.3924 37.7076 10.1747C37.5261 9.94969 37.4354 9.64847 37.4354 9.27104C37.4354 8.77022 37.6205 8.36739 37.9907 8.06254C38.3608 7.75043 38.8653 7.59438 39.504 7.59438Z" fill="white"/>
<path d="M45.9995 12.7768V13.6478H45.2591C44.6494 13.6478 44.1922 13.5026 43.8873 13.2123C43.5897 12.922 43.4409 12.4357 43.4409 11.7534V8.5307H42.5481V7.67059H43.4409V6.17902H44.4426V7.67059H45.9886V8.5307H44.4426V11.7751C44.4426 12.1598 44.5115 12.4248 44.6494 12.5699C44.7946 12.7078 45.0414 12.7768 45.3898 12.7768H45.9995Z" fill="white"/>
<path d="M49.8106 7.59438C50.384 7.59438 50.8957 7.71777 51.3457 7.96455C51.803 8.21133 52.1586 8.56699 52.4127 9.03152C52.674 9.49605 52.8046 10.0404 52.8046 10.6646C52.8046 11.2888 52.674 11.8332 52.4127 12.2977C52.1586 12.755 51.803 13.107 51.3457 13.3538C50.8957 13.6006 50.384 13.724 49.8106 13.724C49.2372 13.724 48.7218 13.6006 48.2646 13.3538C47.8145 13.107 47.4589 12.755 47.1976 12.2977C46.9363 11.8332 46.8056 11.2888 46.8056 10.6646C46.8056 10.0404 46.9363 9.49605 47.1976 9.03152C47.4589 8.56699 47.8145 8.21133 48.2646 7.96455C48.7218 7.71777 49.2372 7.59438 49.8106 7.59438ZM49.8106 8.46537C49.4549 8.46537 49.1247 8.54521 48.8198 8.7049C48.5222 8.86458 48.2791 9.11136 48.0904 9.44524C47.9089 9.77186 47.8182 10.1783 47.8182 10.6646C47.8182 11.1437 47.9089 11.5501 48.0904 11.884C48.2791 12.2106 48.5222 12.4538 48.8198 12.6135C49.1247 12.7732 49.4549 12.853 49.8106 12.853C50.1662 12.853 50.4928 12.7732 50.7904 12.6135C51.0953 12.4538 51.3384 12.2106 51.5199 11.884C51.7086 11.5501 51.803 11.1437 51.803 10.6646C51.803 10.1783 51.7086 9.77186 51.5199 9.44524C51.3384 9.11136 51.0953 8.86458 50.7904 8.7049C50.4928 8.54521 50.1662 8.46537 49.8106 8.46537Z" fill="white"/>
<path d="M55.8594 7.59438C56.5344 7.59438 57.0751 7.77221 57.4816 8.12786C57.8953 8.47626 58.1457 8.94805 58.2328 9.54323H57.2856C57.2421 9.18757 57.0933 8.89724 56.8393 8.67223C56.5925 8.43997 56.2586 8.32384 55.8376 8.32384C55.482 8.32384 55.2025 8.41094 54.9993 8.58514C54.8033 8.75208 54.7053 8.98071 54.7053 9.27104C54.7053 9.48879 54.7706 9.66662 54.9013 9.80453C55.0392 9.93518 55.2061 10.0368 55.4021 10.1094C55.6053 10.1747 55.8812 10.2473 56.2296 10.3271C56.6723 10.4287 57.028 10.534 57.2965 10.6429C57.5723 10.7445 57.8046 10.9114 57.9933 11.1437C58.1893 11.3759 58.2873 11.688 58.2873 12.08C58.2873 12.5663 58.1022 12.9619 57.732 13.2667C57.3691 13.5716 56.8828 13.724 56.2731 13.724C55.5618 13.724 54.9811 13.5534 54.5311 13.2123C54.0811 12.8711 53.8162 12.3957 53.7363 11.786H54.6944C54.7307 12.1489 54.8868 12.4429 55.1626 12.6679C55.4457 12.8929 55.8158 13.0054 56.2731 13.0054C56.6142 13.0054 56.8792 12.9183 57.0679 12.7441C57.2639 12.5699 57.3618 12.3413 57.3618 12.0582C57.3618 11.826 57.2929 11.6409 57.155 11.503C57.0171 11.3651 56.8465 11.2598 56.6433 11.1872C56.44 11.1146 56.1606 11.0384 55.8049 10.9586C55.3622 10.857 55.0065 10.7554 54.738 10.6537C54.4767 10.5521 54.2517 10.3924 54.063 10.1747C53.8815 9.94969 53.7908 9.64847 53.7908 9.27104C53.7908 8.77022 53.9759 8.36739 54.346 8.06254C54.7162 7.75043 55.2207 7.59438 55.8594 7.59438Z" fill="white"/>
</svg>
