<svg width="23" height="20" viewBox="0 0 23 20" fill="none" xmlns="http://www.w3.org/2000/svg">
<path d="M14.3594 8.07812C14.0859 7.92188 13.6953 8.07812 13.5391 8.39062C13.3828 8.70312 13.5391 9.05469 13.8516 9.21094C14.3984 9.48438 14.75 9.99219 14.75 10.5C14.75 11.0469 14.3984 11.5547 13.8516 11.8281C13.5391 11.9844 13.3828 12.3359 13.5391 12.6484C13.6953 12.9609 14.0859 13.1172 14.3594 12.9609C15.375 12.4922 16 11.5547 16 10.5C16 9.48438 15.375 8.54688 14.3594 8.07812ZM10.0234 3C9.78906 3 9.55469 3.11719 9.39844 3.3125L5.92188 6.75H1.9375C1.39062 6.75 1 7.17969 1 7.6875V13.3125C1 13.8594 1.39062 14.25 1.9375 14.25H5.92188L9.39844 17.7266C9.55469 17.9219 9.78906 18 10.0234 18C10.5312 18 11 17.6484 11 17.0625V3.97656C11 3.39062 10.5312 3 10.0234 3ZM9.75 16.3203L6.42969 13H2.25V8H6.42969L9.75 4.71875V16.3203ZM19.75 10.5C19.75 7.92188 18.3828 5.57812 16.2734 4.36719C15.9609 4.17188 15.5703 4.28906 15.4141 4.60156C15.2188 4.875 15.3359 5.26563 15.6484 5.42188C17.3672 6.4375 18.4609 8.39062 18.4609 10.5C18.4609 12.6484 17.3672 14.6016 15.6484 15.6172C15.3359 15.7734 15.2188 16.1641 15.4141 16.4375C15.5703 16.75 15.9609 16.8672 16.2734 16.6719C18.3828 15.4609 19.75 13.1172 19.75 10.5Z" fill="white"/>
</svg>
