<svg width="45" height="45" viewBox="0 0 45 45" fill="none" xmlns="http://www.w3.org/2000/svg">
    <path fill-rule="evenodd" clip-rule="evenodd" d="M2.72523 21.4312C2.9187 17.6031 4.22003 13.9053 6.48145 10.7927C8.74286 7.68017 11.8575 5.29984 15.4385 3.93288C15.9545 3.73592 16.5198 4.02577 16.6905 4.55102L17.1849 6.07271C17.3556 6.59796 17.0667 7.1592 16.553 7.36194C13.6943 8.49009 11.2084 10.4113 9.39391 12.9088C7.57943 15.4062 6.52038 18.3641 6.33083 21.4315C6.29677 21.9827 5.85227 22.4309 5.29998 22.4309H3.69998C3.1477 22.4309 2.69735 21.9828 2.72523 21.4312ZM42.2747 23.4996C42.0812 27.3278 40.7798 31.0256 38.5184 34.1381C36.257 37.2507 33.1423 39.631 29.5614 40.998C29.0454 41.1949 28.4801 40.9051 28.3094 40.3798L27.815 38.8582C27.6443 38.3329 27.9332 37.7717 28.4469 37.5689C31.3056 36.4408 33.7915 34.5195 35.606 32.0221C37.4205 29.5247 38.4795 26.5668 38.669 23.4994C38.7031 22.9482 39.1476 22.5 39.6999 22.5H41.2999C41.8522 22.5 42.3025 22.9481 42.2747 23.4996Z" fill="#E85555"/>
</svg>