<svg width="20" height="20" viewBox="0 0 20 20" fill="none" xmlns="http://www.w3.org/2000/svg">
<g opacity="1">
<path d="M9.26562 12H7.94531V7.79688L6.64844 8.17578V7.17578L9.14453 6.3125H9.26562V12ZM14.5297 9.67578C14.5297 10.444 14.3565 11.0365 14.0102 11.4531C13.6664 11.8698 13.1807 12.0781 12.5531 12.0781C11.9203 12.0781 11.4307 11.8685 11.0844 11.4492C10.738 11.0299 10.5648 10.4388 10.5648 9.67578V8.63672C10.5648 7.86849 10.7367 7.27604 11.0805 6.85938C11.4268 6.44271 11.9151 6.23438 12.5453 6.23438C13.1755 6.23438 13.6638 6.44401 14.0102 6.86328C14.3565 7.28255 14.5297 7.875 14.5297 8.64062V9.67578ZM13.2133 8.46875C13.2133 8.0599 13.1599 7.75521 13.0531 7.55469C12.9464 7.35156 12.7771 7.25 12.5453 7.25C12.3187 7.25 12.1534 7.34375 12.0492 7.53125C11.9477 7.71875 11.893 8.0026 11.8852 8.38281V9.83594C11.8852 10.2604 11.9385 10.5716 12.0453 10.7695C12.1521 10.9648 12.3214 11.0625 12.5531 11.0625C12.7771 11.0625 12.9424 10.9674 13.0492 10.7773C13.156 10.5846 13.2107 10.2839 13.2133 9.875V8.46875Z" fill="white"/>
<path d="M0.46875 2.58651C0.195312 2.58651 0 2.82089 0 3.05526V6.68026C0 6.9537 0.195312 7.14901 0.46875 7.14901H4.09375C4.32812 7.14901 4.5625 6.9537 4.5625 6.68026V6.28964C4.5625 6.05526 4.32812 5.82089 4.09375 5.82089H2.22656C3.63281 3.16464 6.44531 1.28964 9.6875 1.28964C14.2969 1.28964 18.0469 5.0787 18.0469 9.64901C18.0469 14.2975 14.2578 18.0084 9.6875 18.0084C7.5 18.0084 5.54688 17.2271 4.0625 15.899C3.90625 15.7037 3.59375 15.7428 3.4375 15.899L3.16406 16.1725C2.96875 16.3678 2.96875 16.6803 3.16406 16.8756C4.88281 18.399 7.1875 19.3365 9.6875 19.3365C15 19.3365 19.3359 15.0396 19.375 9.68808C19.375 4.37558 15.0391 0.000575483 9.6875 0.000575483C6.13281 -0.038487 3.00781 1.91464 1.32812 4.7662V3.05526C1.32812 2.82089 1.09375 2.58651 0.859375 2.58651H0.46875Z" fill="white"/>
</g>
</svg>
