<svg width="23" height="20" viewBox="0 0 23 20" fill="none" xmlns="http://www.w3.org/2000/svg">
<path d="M9.7 4.71871V6.16402L10.95 7.14058V3.93746C10.95 3.39058 10.4812 2.99996 9.97344 2.99996C9.73906 2.99996 9.50469 3.11714 9.34844 3.27339L7.86406 4.75777L8.87969 5.49996L9.7 4.71871ZM15.6375 5.42183C17.3562 6.43746 18.45 8.39058 18.45 10.5C18.45 11.2812 18.2937 12.0234 18.0203 12.7265L19.0359 13.5078C19.4656 12.6093 19.7 11.5937 19.7 10.5C19.7 7.92183 18.3719 5.57808 16.2625 4.36714C15.95 4.17183 15.5594 4.28902 15.4031 4.56246C15.2078 4.87496 15.325 5.26558 15.6375 5.42183ZM13.8016 9.21089C14.1531 9.36714 14.4266 9.67964 14.5828 9.99214L15.8719 11.0078C15.9109 10.8515 15.95 10.6953 15.95 10.5C15.95 9.48433 15.325 8.54683 14.3094 8.07808C14.0359 7.92183 13.6453 8.03902 13.4891 8.35152C13.3328 8.66402 13.4891 9.05464 13.8016 9.21089ZM21.5828 17.4843L1.59844 1.57808C1.44219 1.46089 1.24687 1.49996 1.12969 1.61714L0.739061 2.12496C0.660936 2.24214 0.660936 2.43746 0.817186 2.55464L20.8016 18.4609C20.9187 18.539 21.1141 18.539 21.2312 18.3828L21.6219 17.914C21.7391 17.7578 21.7 17.5625 21.5828 17.4843ZM9.7 16.3203L6.37969 13H2.2V7.99996H5.98906L4.3875 6.74996H1.8875C1.34062 6.74996 0.949998 7.17964 0.949998 7.68746V13.3125C0.949998 13.8593 1.34062 14.25 1.8875 14.25H5.87187L9.34844 17.7265C9.54375 17.9218 9.77812 18 9.97344 18C10.4812 18 10.95 17.6484 10.95 17.0625V11.9062L9.7 10.9296V16.3203Z" fill="#E85555"/>
</svg>
