<svg width="11" height="13" viewBox="0 0 11 13" fill="none" xmlns="http://www.w3.org/2000/svg">
<path d="M7.5 11H3.5625C2.83594 11 2.25 10.4141 2.25 9.6875V2.75H0.5625C0.234375 2.75 0 3.00781 0 3.3125V11.9375C0 12.2656 0.234375 12.5 0.5625 12.5H6.9375C7.24219 12.5 7.5 12.2656 7.5 11.9375V11ZM7.5 2.9375V0.5H3.5625C3.23438 0.5 3 0.757812 3 1.0625V9.6875C3 10.0156 3.23438 10.25 3.5625 10.25H9.9375C10.2422 10.25 10.5 10.0156 10.5 9.6875V3.5H8.0625C7.73438 3.5 7.5 3.26562 7.5 2.9375ZM10.3125 2.21094L8.78906 0.6875C8.69531 0.59375 8.50781 0.5 8.39062 0.5H8.25V2.75H10.5V2.60938C10.5 2.49219 10.4062 2.30469 10.3125 2.21094Z" fill="#F8F6F6"/>
</svg>
