<svg width="19" height="20" viewBox="0 0 19 20" fill="none" xmlns="http://www.w3.org/2000/svg">
<path d="M5.1875 19.25C6.30469 19.25 7.25 18.3477 7.25 17.1875V2.0625C7.25 0.945312 6.30469 0 5.1875 0H2.0625C0.902344 0 0 0.945312 0 2.0625V17.1875C0 18.3477 0.902344 19.25 2.0625 19.25H5.1875ZM18.25 17.1875V2.0625C18.25 0.945312 17.3047 0 16.1875 0H13.0625C11.9023 0 11 0.945312 11 2.0625V17.1875C11 18.3477 11.9023 19.25 13.0625 19.25H16.1875C17.3047 19.25 18.25 18.3477 18.25 17.1875Z" fill="#5F596E"/>
</svg>
