<svg width="11" height="13" viewBox="0 0 11 13" fill="none" xmlns="http://www.w3.org/2000/svg">
<path d="M9.51562 6.12109C9.65234 5.98438 9.65234 5.76562 9.51562 5.65625L8.96875 5.10938C8.85938 4.97266 8.64062 4.97266 8.50391 5.10938L5.93359 7.76172V0.953125C5.93359 0.789062 5.79688 0.625 5.60547 0.625H4.83984C4.67578 0.625 4.51172 0.789062 4.51172 0.953125V7.76172L1.96875 5.10938C1.83203 4.97266 1.61328 4.97266 1.50391 5.10938L0.957031 5.65625C0.820312 5.76562 0.820312 5.98438 0.957031 6.12109L5.00391 10.168C5.14062 10.3047 5.33203 10.3047 5.46875 10.168L9.51562 6.12109ZM10.1719 11.4531H0.328125C0.136719 11.4531 0 11.6172 0 11.7812V12.5469C0 12.7383 0.136719 12.875 0.328125 12.875H10.1719C10.3359 12.875 10.5 12.7383 10.5 12.5469V11.7812C10.5 11.6172 10.3359 11.4531 10.1719 11.4531Z" fill="white"/>
</svg>
