<svg width="20" height="20" viewBox="0 0 20 20" fill="none" xmlns="http://www.w3.org/2000/svg">
<g opacity="1">
<path d="M6.55078 8.60547H7.17188C7.66406 8.60547 7.91016 8.36458 7.91016 7.88281C7.91016 7.69531 7.85156 7.54297 7.73438 7.42578C7.61719 7.30599 7.45182 7.24609 7.23828 7.24609C7.0638 7.24609 6.91146 7.29688 6.78125 7.39844C6.65365 7.5 6.58984 7.6263 6.58984 7.77734H5.27344C5.27344 7.47786 5.35677 7.21094 5.52344 6.97656C5.6901 6.74219 5.92057 6.5599 6.21484 6.42969C6.51172 6.29688 6.83724 6.23047 7.19141 6.23047C7.82422 6.23047 8.32161 6.375 8.68359 6.66406C9.04557 6.95312 9.22656 7.35026 9.22656 7.85547C9.22656 8.10026 9.15104 8.33203 9 8.55078C8.85156 8.76693 8.63411 8.94271 8.34766 9.07812C8.64974 9.1875 8.88672 9.35417 9.05859 9.57812C9.23047 9.79948 9.31641 10.0742 9.31641 10.4023C9.31641 10.9102 9.12109 11.3164 8.73047 11.6211C8.33984 11.9258 7.82682 12.0781 7.19141 12.0781C6.81901 12.0781 6.47266 12.0078 6.15234 11.8672C5.83464 11.724 5.59375 11.5273 5.42969 11.2773C5.26562 11.0247 5.18359 10.7383 5.18359 10.418H6.50781C6.50781 10.5924 6.57812 10.7435 6.71875 10.8711C6.85938 10.9987 7.03255 11.0625 7.23828 11.0625C7.47005 11.0625 7.65495 10.9987 7.79297 10.8711C7.93099 10.7409 8 10.5755 8 10.375C8 10.0885 7.92839 9.88542 7.78516 9.76562C7.64193 9.64583 7.44401 9.58594 7.19141 9.58594H6.55078V8.60547ZM13.5297 9.67578C13.5297 10.444 13.3565 11.0365 13.0102 11.4531C12.6664 11.8698 12.1807 12.0781 11.5531 12.0781C10.9203 12.0781 10.4307 11.8685 10.0844 11.4492C9.73802 11.0299 9.56484 10.4388 9.56484 9.67578V8.63672C9.56484 7.86849 9.73672 7.27604 10.0805 6.85938C10.4268 6.44271 10.9151 6.23438 11.5453 6.23438C12.1755 6.23438 12.6638 6.44401 13.0102 6.86328C13.3565 7.28255 13.5297 7.875 13.5297 8.64062V9.67578ZM12.2133 8.46875C12.2133 8.0599 12.1599 7.75521 12.0531 7.55469C11.9464 7.35156 11.7771 7.25 11.5453 7.25C11.3187 7.25 11.1534 7.34375 11.0492 7.53125C10.9477 7.71875 10.893 8.0026 10.8852 8.38281V9.83594C10.8852 10.2604 10.9385 10.5716 11.0453 10.7695C11.1521 10.9648 11.3214 11.0625 11.5531 11.0625C11.7771 11.0625 11.9424 10.9674 12.0492 10.7773C12.156 10.5846 12.2107 10.2839 12.2133 9.875V8.46875Z" fill="white"/>
<path d="M18.9062 2.58651C19.1797 2.58651 19.375 2.82089 19.375 3.05526V6.68026C19.375 6.9537 19.1797 7.14901 18.9062 7.14901H15.2812C15.0469 7.14901 14.8125 6.9537 14.8125 6.68026V6.28964C14.8125 6.05526 15.0469 5.82089 15.2812 5.82089H17.1484C15.7422 3.16464 12.9297 1.28964 9.6875 1.28964C5.07812 1.28964 1.32812 5.0787 1.32812 9.64901C1.32812 14.2975 5.11719 18.0084 9.6875 18.0084C11.875 18.0084 13.8281 17.2271 15.3125 15.899C15.4688 15.7037 15.7812 15.7428 15.9375 15.899L16.2109 16.1725C16.4062 16.3678 16.4062 16.6803 16.2109 16.8756C14.4922 18.399 12.1875 19.3365 9.6875 19.3365C4.375 19.3365 0.0390625 15.0396 0 9.68808C0 4.37558 4.33594 0.000575483 9.6875 0.000575483C13.2422 -0.038487 16.3672 1.91464 18.0469 4.7662V3.05526C18.0469 2.82089 18.2812 2.58651 18.5156 2.58651H18.9062Z" fill="white"/>
</g>
</svg>
